# Blender v2.78 (sub 0) OBJ File: 'planet_skeleton.blend'
# www.blender.org
mtllib planet_skeleton.mtl
o Icosphere
v 3.395069 -2.098294 2.466633
v 3.600772 -2.225428 -2.616083
v -3.594766 2.227685 2.621876
v -3.589731 2.218604 -2.633594
v -1.250055 -2.669343 3.847338
v -1.092367 -3.084992 3.362018
v -0.972625 -3.685526 2.993484
v 2.859911 -3.084991 2.077823
v 3.272751 -2.669341 2.377765
v 3.094031 -2.311888 2.927830
v 2.577859 -2.434533 3.304200
v 1.900245 -2.437764 3.529870
v 3.836890 -2.382979 -2.087339
v 3.740662 -2.311886 2.037811
v 3.026622 -3.279476 -2.200617
v 3.363359 -2.744727 -2.431376
v -3.535048 -3.084971 0.000000
v -1.828432 -2.311889 3.847342
v -2.326316 -2.427277 3.455301
v -2.861421 -2.518198 2.993492
v -3.228893 -2.466684 2.345918
v -3.710060 -2.511665 1.780223
v -1.250055 -2.669343 -3.847338
v -1.092367 -3.084992 -3.362018
v -0.972625 -3.685526 -2.993484
v -3.731217 -2.518190 -1.796325
v -3.335415 -2.548061 -2.423312
v -2.944038 -2.586048 -3.066550
v -2.345894 -2.434533 -3.472733
v -1.769692 -2.237962 -3.724691
v 1.962774 -2.518202 -3.646399
v 2.495795 -2.356732 -3.198503
v 3.094031 -2.311888 -2.927830
v 3.445793 -1.723478 2.895916
v 3.330342 -1.216978 3.304214
v 3.030192 -0.609445 3.529891
v -3.030192 0.609445 3.529890
v -3.317707 1.201656 3.284857
v -3.341314 1.678475 2.834070
v -3.341314 1.678475 -2.834070
v -3.330342 1.216978 -3.304214
v -3.220787 0.630071 -3.738846
v 3.130100 -0.629400 -3.646420
v 3.426325 -1.248700 -3.385132
v 3.451485 -1.733513 -2.927836
v 3.731217 2.518190 1.796325
v 3.228892 2.466684 2.345919
v 2.861421 2.518198 2.993492
v 2.345894 2.434533 3.472733
v -1.962774 2.518202 3.646399
v -2.495795 2.356732 3.198503
v -3.094031 2.311888 2.927830
v -3.841537 2.383066 2.076855
v -3.847283 2.366160 -2.087339
v -2.995534 2.237961 -2.834064
v -2.495795 2.356732 -3.198504
v -1.962774 2.518202 -3.646399
v 2.270729 2.356732 -3.362025
v 2.861421 2.518198 -2.993492
v 3.430521 2.602348 -2.492410
v 3.731218 2.518190 -1.796324
v 0.972625 3.685526 2.993484
v 1.092368 3.084992 3.362018
v 3.637820 3.161997 -0.016483
v 3.147552 3.685508 -0.000000
v -2.859911 3.084991 2.077823
v -3.253563 2.667741 2.351570
v -2.859911 3.084991 -2.077823
v -3.343837 2.749335 -2.450669
v 0.941603 3.567709 -2.898007
v 1.092368 3.084992 -3.362018
v 2.848629 3.870330 -0.629202
v 3.413175 3.347649 -0.616984
v 3.076735 3.488919 -1.267523
v 1.641232 3.376235 -3.065524
v 3.597549 2.972541 -1.206216
v 3.340183 3.145548 -1.923374
v 2.347779 3.050113 -3.153309
v 1.756525 2.842187 -3.510929
v 0.273299 3.746700 -2.810900
v 0.474055 3.376236 -3.444755
v -0.256120 3.507263 -3.335199
v -0.985703 3.440802 -3.033626
v -0.762254 2.955613 -3.563276
v -1.526328 3.053471 -3.440447
v -2.210371 2.953544 -3.102915
v -3.129669 3.376232 -1.515345
v -3.251113 3.507257 -0.787058
v -3.189756 3.440795 0.000000
v -3.338094 3.600765 0.808458
v -3.117863 3.352066 1.511726
v -3.484750 2.842184 -1.807912
v -3.637907 2.958972 -1.116427
v -3.723978 3.037748 -0.386658
v -3.723978 3.037748 0.386658
v -3.636113 2.955281 1.134795
v -3.373525 2.750999 1.750700
v 0.273299 3.746700 2.810900
v -1.045342 3.649521 3.217176
v -0.247681 3.395092 3.228871
v 0.459404 3.268173 3.334907
v -2.268332 3.057118 3.204785
v -1.526328 3.053471 3.440447
v -0.794544 3.139721 3.776844
v 2.757799 3.746687 0.608680
v 1.641232 3.376235 3.065524
v 3.092835 3.507252 1.274205
v 3.422667 3.376220 0.613619
v 1.756525 2.842187 3.510929
v 2.352908 3.059104 3.140786
v 3.153342 2.955604 1.826048
v 3.621835 2.977887 1.226598
v 3.318600 1.971836 -2.888627
v 3.518348 0.657140 -3.033646
v 3.331871 1.375015 -3.430309
v 2.717651 1.872507 -3.334922
v 3.534704 -0.624170 -3.021571
v 3.413679 0.000359 -3.440470
v 2.984441 0.640020 -3.563299
v -2.986592 1.845838 -3.341135
v -3.073985 1.893860 3.423736
v 2.717650 1.872504 3.334924
v 2.984439 0.640016 3.563301
v 3.251501 1.339431 3.335222
v 3.419442 2.042596 2.982353
v 3.413677 0.000353 3.440472
v 3.518346 0.657132 3.033650
v 3.651460 -0.644202 3.121199
v 2.891606 -1.787133 -3.233942
v -3.534702 0.624170 -3.021573
v -3.304447 -0.000000 -3.330801
v -2.984437 -0.640020 -3.563303
v -3.634511 -0.678917 -3.133600
v -3.251495 -1.339436 -3.335227
v -2.881683 -1.978002 -3.541515
v -3.228889 -1.920051 -2.810924
v -3.534702 0.624170 3.021573
v -3.304447 0.000000 3.330801
v -3.518342 -0.657140 3.033653
v -2.984437 -0.640020 3.563302
v -3.147393 -1.296819 3.228899
v -3.335654 -1.982994 2.903651
v -2.807744 -1.933939 3.444778
v 2.986592 -1.845839 3.341135
v 2.276054 -3.055129 -3.200720
v 1.753205 -3.507260 -2.848762
v 1.526328 -3.053469 -3.440450
v 1.018176 -3.554442 -3.133576
v 0.787457 -3.053468 -3.680528
v 0.256118 -3.507257 -3.335206
v -0.273303 -3.746692 -2.810910
v -0.474057 -3.376228 -3.444762
v -1.796076 -2.922023 -3.604893
v -1.588522 -3.268172 -2.968040
v -2.711111 -2.955607 -2.434723
v -3.153348 -2.955602 -1.826039
v -3.707891 -3.065402 -1.267856
v -3.422670 -3.376217 -0.613615
v -3.881900 -2.842168 -0.585631
v -3.758288 -2.750984 0.566541
v -3.313670 -3.268155 0.593607
v -3.506545 -2.882408 1.187214
v -3.153348 -2.955601 1.826042
v -2.711110 -2.955605 2.434726
v -1.588523 -3.268165 2.968047
v -1.700176 -2.750998 3.399268
v 3.373524 -2.750999 -1.750700
v 3.534681 -2.882416 -1.100599
v 3.129669 -3.376231 -1.515344
v 3.624432 -2.955604 -0.376181
v 3.147383 -3.395084 -0.762226
v 3.624432 -2.955603 0.376183
v 3.189759 -3.440792 0.000002
v 3.651103 -2.977890 1.136510
v 3.251117 -3.507252 0.787062
v 3.373526 -2.750995 1.750702
v 3.029729 -3.268162 1.467469
v -0.474053 -3.376235 3.444757
v -0.277308 -3.855176 2.881498
v 0.256124 -3.507261 3.335201
v 0.787461 -3.053469 3.680526
v 0.985708 -3.440798 3.033628
v 1.526332 -3.053468 3.440449
v 1.741378 -3.484327 2.840739
v 2.139036 -2.882418 3.021555
vn 0.6877 -0.2532 0.6804
vn 0.5348 -0.3305 -0.7776
vn -0.4563 0.6951 0.5556
vn -0.7238 0.4994 -0.4762
vn 0.7276 0.6833 -0.0609
vn 0.6767 0.7284 -0.1075
vn 0.6692 0.7184 -0.1901
vn 0.0186 0.6959 -0.7179
vn 0.7003 0.6809 -0.2143
vn 0.7066 0.7026 -0.0841
vn 0.2108 0.6525 -0.7279
vn 0.0665 0.6475 -0.7592
vn 0.8503 0.4922 -0.1864
vn 0.8347 0.4585 -0.3051
vn 0.4774 0.2042 -0.8546
vn 0.4505 0.2111 -0.8675
vn 0.4070 0.6959 -0.5917
vn 0.1746 0.8732 -0.4551
vn 0.0840 0.8717 -0.4829
vn -0.3488 0.6131 -0.7088
vn -0.0151 0.7341 -0.6789
vn -0.4219 0.6041 -0.6761
vn -0.6558 0.4147 -0.6309
vn -0.3009 0.4324 -0.8500
vn -0.4348 0.8729 -0.2214
vn -0.5000 0.6475 -0.5751
vn -0.7282 0.6309 -0.2678
vn -0.7209 0.6511 -0.2374
vn -0.7598 0.6307 -0.1577
vn -0.6497 0.7516 0.1141
vn -0.6023 0.7983 0.0000
vn -0.6944 0.6709 -0.2602
vn -0.8651 0.4774 0.1542
vn -0.7242 0.5468 0.4202
vn -0.7261 0.4975 0.4746
vn -0.6727 0.5022 0.5434
vn -0.6288 0.7432 0.2285
vn -0.6941 0.6752 -0.2497
vn -0.5056 0.8351 0.2167
vn -0.5506 0.7032 0.4498
vn 0.0334 0.7439 0.6675
vn -0.1184 0.7119 0.6922
vn 0.1195 0.5365 0.8354
vn -0.3948 0.5842 0.7091
vn 0.2365 0.7687 0.5943
vn -0.6655 0.2097 0.7164
vn -0.2559 0.5218 0.8138
vn 0.1604 0.5393 0.8267
vn 0.4852 0.8717 0.0693
vn 0.4738 0.8533 0.2176
vn 0.7301 0.6832 0.0170
vn 0.0665 0.6475 0.7592
vn 0.2139 0.6525 0.7270
vn 0.6296 0.5829 0.5137
vn 0.7004 0.6806 0.2147
vn 0.3549 0.4356 0.8272
vn 0.5995 0.3704 0.7095
vn 0.5250 0.6568 0.5414
vn 0.5516 0.6977 0.4571
vn 0.5884 0.3527 -0.7275
vn 0.3984 0.6213 -0.6748
vn 0.5370 0.2978 -0.7893
vn 0.4264 0.3468 -0.8354
vn 0.6634 0.3148 -0.6789
vn 0.6930 -0.2024 -0.6920
vn 0.8267 0.1690 -0.5367
vn 0.8237 -0.1970 -0.5317
vn -0.5378 0.6623 -0.5216
vn -0.8042 0.4146 -0.4258
vn -0.7838 0.4844 -0.3885
vn -0.3192 0.1973 -0.9269
vn -0.5296 0.0818 0.8443
vn -0.9120 0.2570 0.3196
vn -0.9036 0.3088 0.2969
vn -0.3322 0.7145 0.6157
vn 0.5476 -0.0399 0.8358
vn 0.6388 0.2436 0.7297
vn 0.3508 0.3518 0.8679
vn 0.3404 0.3792 0.8604
vn 0.6230 0.7241 0.2959
vn 0.6634 0.3148 0.6789
vn 0.7044 -0.0378 0.7088
vn 0.5288 -0.2120 0.8219
vn 0.4244 -0.6095 -0.6696
vn 0.4798 -0.2966 -0.8257
vn 0.4090 -0.3370 -0.8481
vn -0.9094 0.1242 -0.3970
vn -0.9070 -0.1374 -0.3981
vn -0.5523 0.0265 -0.8332
vn -0.5477 -0.0629 -0.8343
vn -0.8497 -0.3712 -0.3744
vn -0.3705 -0.5479 -0.7500
vn -0.8869 -0.2244 -0.4037
vn -0.8465 -0.1682 -0.5051
vn -0.7095 -0.0537 0.7026
vn -0.7057 0.0879 0.7030
vn -0.6998 -0.0925 0.7084
vn -0.6890 -0.1857 0.7005
vn -0.7027 -0.1381 0.6980
vn -0.7262 -0.5821 0.3658
vn -0.6216 -0.4423 0.6465
vn -0.5194 -0.4920 0.6987
vn 0.6991 -0.3454 0.6261
vn 0.5929 -0.4534 0.6654
vn 0.6938 -0.3817 0.6107
vn 0.8216 -0.4740 0.3168
vn 0.5165 -0.4867 -0.7045
vn 0.6654 -0.2071 -0.7172
vn 0.2042 -0.7374 -0.6439
vn 0.2585 -0.5232 -0.8120
vn 0.2968 -0.6994 -0.6502
vn 0.2301 -0.6673 -0.7083
vn 0.1420 -0.6994 -0.7005
vn -0.0840 -0.8717 -0.4829
vn 0.0606 -0.8533 -0.5179
vn -0.3561 -0.5393 -0.7631
vn 0.0540 -0.7497 -0.6596
vn -0.3944 -0.5365 -0.7461
vn -0.3428 -0.1492 -0.9275
vn -0.3534 -0.1481 -0.9237
vn -0.0438 -0.8837 -0.4660
vn -0.5291 -0.8029 -0.2745
vn -0.5121 -0.7741 -0.3721
vn -0.5803 -0.7442 -0.3309
vn -0.4963 -0.6139 -0.6138
vn -0.7575 -0.6525 0.0203
vn -0.7426 -0.6475 0.1713
vn -0.7578 -0.6472 0.0829
vn -0.7516 -0.6373 0.1699
vn -0.6156 -0.7457 0.2549
vn -0.5567 -0.6440 0.5247
vn -0.6472 -0.6000 0.4702
vn -0.6771 -0.6568 0.3320
vn -0.3177 -0.7211 0.6157
vn -0.3944 -0.5365 0.7461
vn -0.3130 -0.6472 0.6951
vn -0.3849 -0.7591 0.5250
vn -0.4341 -0.7024 0.5641
vn 0.7255 -0.4999 -0.4730
vn 0.6145 -0.7887 -0.0164
vn 0.8426 -0.5382 -0.0175
vn 0.8455 -0.4423 -0.2990
vn 0.8875 -0.4186 -0.1926
vn 0.7351 -0.6594 -0.1577
vn 0.7865 -0.6166 -0.0339
vn 0.7448 -0.6673 0.0000
vn 0.7101 -0.6993 -0.0814
vn 0.8113 -0.5829 -0.0455
vn 0.7819 -0.6131 -0.1127
vn 0.5705 -0.6524 0.4989
vn 0.5600 -0.7076 0.4309
vn 0.6828 -0.7024 0.2012
vn 0.6200 -0.7591 0.1985
vn 0.6618 -0.6472 0.3784
vn -0.3561 -0.5393 0.7631
vn -0.0878 -0.7738 0.6273
vn -0.0421 -0.7684 0.6386
vn 0.3004 -0.7749 0.5561
vn 0.1771 -0.8195 0.5450
vn 0.1091 -0.7883 0.6055
vn 0.5690 -0.5575 0.6046
vn 0.5858 -0.4533 0.6718
vn 0.2364 -0.6736 0.7003
vn 0.8596 -0.2532 0.4438
usemtl None
s off
f 1//1 9//1 14//1
f 2//2 33//2 45//2
f 3//3 52//3 67//3
f 4//4 54//4 69//4
f 64//5 73//5 65//5
f 65//6 73//6 72//6
f 73//7 74//7 72//7
f 75//8 71//8 70//8
f 73//9 76//9 74//9
f 76//10 77//10 74//10
f 78//11 79//11 75//11
f 75//12 79//12 71//12
f 76//13 61//13 77//13
f 61//14 60//14 77//14
f 59//15 58//15 78//15
f 78//16 58//16 79//16
f 71//17 81//17 70//17
f 70//18 81//18 80//18
f 81//19 82//19 80//19
f 82//20 84//20 83//20
f 84//21 85//21 83//21
f 85//22 57//22 86//22
f 57//23 56//23 86//23
f 55//24 4//24 69//24
f 69//25 92//25 68//25
f 68//26 92//26 87//26
f 92//27 93//27 87//27
f 87//28 93//28 88//28
f 93//29 94//29 88//29
f 88//30 94//30 89//30
f 94//31 95//31 89//31
f 89//32 95//32 90//32
f 95//33 96//33 90//33
f 90//34 96//34 91//34
f 96//35 97//35 91//35
f 91//36 97//36 66//36
f 97//37 67//37 66//37
f 69//38 54//38 92//38
f 97//39 53//39 67//39
f 53//40 3//40 67//40
f 100//41 101//41 98//41
f 98//42 101//42 62//42
f 101//43 63//43 62//43
f 103//44 104//44 99//44
f 99//45 104//45 100//45
f 51//46 50//46 102//46
f 102//47 50//47 103//47
f 63//48 106//48 62//48
f 107//49 108//49 105//49
f 105//50 108//50 65//50
f 108//51 64//51 65//51
f 63//52 109//52 106//52
f 109//53 110//53 106//53
f 111//54 112//54 107//54
f 107//55 112//55 108//55
f 109//56 49//56 110//56
f 49//57 48//57 110//57
f 47//58 46//58 111//58
f 111//59 46//59 112//59
f 113//60 59//60 60//60
f 115//61 116//61 113//61
f 113//62 116//62 59//62
f 116//63 58//63 59//63
f 118//64 119//64 114//64
f 114//65 119//65 115//65
f 44//66 43//66 117//66
f 117//67 43//67 118//67
f 120//68 55//68 56//68
f 41//69 40//69 120//69
f 120//70 40//70 55//70
f 40//71 4//71 55//71
f 39//72 52//72 3//72
f 38//73 121//73 39//73
f 39//74 121//74 52//74
f 121//75 51//75 52//75
f 35//76 128//76 36//76
f 122//77 48//77 49//77
f 124//78 125//78 122//78
f 122//79 125//79 48//79
f 125//80 47//80 48//80
f 126//81 127//81 123//81
f 123//82 127//82 124//82
f 36//83 128//83 126//83
f 45//84 129//84 44//84
f 45//85 33//85 129//85
f 33//86 32//86 129//86
f 42//87 130//87 41//87
f 42//88 131//88 130//88
f 132//89 133//89 131//89
f 132//90 134//90 133//90
f 135//91 136//91 134//91
f 29//92 28//92 135//92
f 135//93 28//93 136//93
f 28//94 27//94 136//94
f 137//95 37//95 38//95
f 137//96 138//96 37//96
f 139//97 140//97 138//97
f 139//98 141//98 140//98
f 142//99 143//99 141//99
f 21//100 20//100 142//100
f 142//101 20//101 143//101
f 20//102 19//102 143//102
f 144//103 34//103 35//103
f 11//104 10//104 144//104
f 144//105 10//105 34//105
f 10//106 1//106 34//106
f 16//107 33//107 2//107
f 145//108 31//108 32//108
f 146//109 147//109 145//109
f 145//110 147//110 31//110
f 146//111 148//111 147//111
f 148//112 149//112 147//112
f 148//113 150//113 149//113
f 151//114 152//114 150//114
f 151//115 25//115 152//115
f 25//116 24//116 152//116
f 24//117 153//117 23//117
f 25//118 154//118 24//118
f 23//119 153//119 30//119
f 153//120 29//120 30//120
f 24//121 154//121 153//121
f 155//122 27//122 28//122
f 155//123 156//123 27//123
f 156//124 26//124 27//124
f 156//125 157//125 26//125
f 158//126 159//126 157//126
f 158//127 17//127 159//127
f 17//128 161//128 160//128
f 161//129 162//129 160//129
f 162//130 163//130 22//130
f 163//131 21//131 22//131
f 163//132 164//132 21//132
f 164//133 20//133 21//133
f 166//134 18//134 19//134
f 7//135 6//135 165//135
f 165//136 6//136 166//136
f 6//137 5//137 166//137
f 166//138 5//138 18//138
f 13//139 16//139 2//139
f 13//140 167//140 16//140
f 167//141 15//141 16//141
f 168//142 169//142 167//142
f 167//143 169//143 15//143
f 170//144 171//144 168//144
f 168//145 171//145 169//145
f 172//146 173//146 170//146
f 170//147 173//147 171//147
f 174//148 175//148 172//148
f 172//149 175//149 173//149
f 176//150 177//150 174//150
f 174//151 177//151 175//151
f 14//152 9//152 176//152
f 9//153 8//153 176//153
f 176//154 8//154 177//154
f 7//155 178//155 6//155
f 7//156 179//156 178//156
f 179//157 180//157 178//157
f 180//158 182//158 181//158
f 182//159 183//159 181//159
f 182//160 184//160 183//160
f 184//161 185//161 183//161
f 183//162 185//162 12//162
f 185//163 11//163 12//163
f 9//164 1//164 10//164
