# Blender v2.79 (sub 0) OBJ File: 'socket_front_geyser.blend'
# www.blender.org
mtllib socket_front_geyser.mtl
o Icosphere
v -1.296776 -2.098296 3.991132
v 1.296776 2.098296 3.991132
v -1.250055 -2.669343 3.847338
v -1.092367 -3.084992 3.362018
v 2.577859 -2.434533 3.304200
v 1.900245 -2.437764 3.529870
v 1.281020 -2.527553 3.899649
v 0.555427 -2.518202 4.103682
v -0.139064 -2.356734 4.054637
v -0.795861 -2.368421 4.302984
v -1.828432 -2.311889 3.847342
v -2.326316 -2.427277 3.455301
v 1.071334 1.733512 4.397410
v 0.752108 1.216976 4.630697
v 0.139522 0.628681 4.677741
v -0.115405 0.209198 4.865516
v -0.404037 -0.637851 4.918176
v -0.947863 -1.215838 4.596137
v -1.145788 -1.531562 4.315883
v 3.330342 -1.216978 3.304214
v 3.030192 -0.609445 3.529891
v 2.920962 0.007528 4.028273
v 2.420748 0.609445 3.972678
v 2.045686 1.178372 4.054654
v 1.720692 1.732991 4.155771
v -1.661403 -1.586655 4.290154
v -1.882693 -1.180215 4.170414
v -2.500701 -0.629400 4.103705
v -2.841002 -0.000585 3.895025
v -3.030192 0.609445 3.529890
v -3.317707 1.201656 3.284857
v 2.345894 2.434533 3.472733
v 1.769692 2.237962 3.724691
v 0.782144 2.311890 4.187298
v 0.141192 2.493907 4.303436
v -0.555427 2.518202 4.103682
v -1.274034 2.548068 3.920999
v -1.962774 2.518202 3.646399
v -2.495795 2.356732 3.198503
v 1.092368 3.084992 3.362018
v 1.291166 2.737745 3.949308
v -0.247681 3.395092 3.228871
v 0.459404 3.268173 3.334907
v -1.526328 3.053471 3.440447
v -0.794544 3.139721 3.776844
v -0.045551 2.882423 3.701779
v 0.642578 2.842188 3.872866
v 1.756525 2.842187 3.510929
v -3.073985 1.893860 3.423736
v -2.893179 1.315267 3.827830
v -2.408546 1.933939 3.734812
v -2.547648 0.661238 4.069680
v -1.713572 1.971912 4.051876
v -2.146657 -0.000003 4.171987
v -1.857116 0.678914 4.424956
v -1.437769 1.357449 4.424952
v -0.960029 1.920052 4.171972
v -1.693929 -0.793970 4.330657
v -1.449867 -0.000004 4.462230
v -0.836798 0.654913 4.612247
v -0.568950 1.130598 4.687898
v -0.245835 1.923050 4.414385
v -1.158089 -0.645519 4.794972
v -0.601609 0.211121 4.688722
v 0.075516 1.289405 4.671378
v 0.438459 1.787132 4.315962
v 2.182115 1.787132 3.749418
v 2.598448 1.248338 3.701801
v 2.717650 1.872504 3.334924
v 2.984439 0.640016 3.563301
v 3.251501 1.339431 3.335222
v 3.413677 0.000353 3.440472
v -3.304447 0.000000 3.330801
v -2.984437 -0.640020 3.563302
v -3.147393 -1.296819 3.228899
v -2.598444 -1.248341 3.701803
v -2.807744 -1.933939 3.444778
v -2.321879 -1.887819 3.975314
v 1.448649 1.230056 4.458521
v 1.083579 0.624171 4.522154
v 1.781411 0.624171 4.295415
v 1.449867 0.000000 4.462230
v 2.146657 0.000000 4.171987
v 0.357168 -0.679545 4.915404
v 1.097306 -0.668186 4.646749
v 1.797958 -0.657141 4.283587
v 2.611957 -0.686560 4.179182
v -0.075516 -1.289407 4.671377
v 0.667029 -1.332486 4.585303
v 1.437768 -1.357453 4.424951
v 2.098275 -1.296821 3.991128
v 2.717665 -1.248341 3.615183
v -0.438459 -1.787133 4.315961
v 0.238425 -1.872508 4.295402
v 1.675577 -1.920055 3.939472
v 2.331914 -1.872508 3.615176
v 2.986592 -1.845839 3.341135
v -0.622536 -2.751003 3.749406
v -0.474053 -3.376235 3.444757
v 0.045553 -2.882422 3.701780
v 0.256124 -3.507261 3.335201
v 0.787461 -3.053469 3.680526
v 1.526332 -3.053468 3.440449
v -2.794422 1.389486 4.128277
v -2.434159 1.839372 4.050115
v -2.536866 0.910149 4.291760
v -1.927146 1.868466 4.284929
v -2.034613 0.924338 4.557629
v -1.727481 1.422371 4.558763
v -2.904686 1.385866 4.071555
v -2.474506 1.935024 3.988988
v -1.985034 0.821012 4.601589
v -1.612804 1.423308 4.601584
v -2.597979 0.805322 4.286230
v -1.857618 1.968731 4.270427
v -2.438552 0.838243 4.071179
v -2.161991 1.335411 4.112972
v -1.828832 1.796560 4.064348
v -2.696108 1.317580 3.907696
v -2.335845 1.767466 3.829534
v -1.936299 0.852432 4.337048
v -1.629167 1.350465 4.338181
v 0.376644 0.609443 4.636845
v -0.000000 -0.000000 4.846653
v -1.063265 0.657137 4.522305
v -0.670135 1.339434 4.609434
v -0.715552 -0.000002 4.636981
v -0.060479 1.096930 4.732112
v -0.524023 0.400890 4.919323
v 0.546282 0.430455 4.843328
v -0.192634 0.946217 4.955617
v -0.667615 0.670902 4.874181
v -0.503257 0.966446 4.926651
v -0.227742 0.399608 5.043402
v -0.072375 0.657537 4.908899
v 0.003768 0.651660 4.897182
v -0.190686 0.331685 5.040413
v -0.740954 0.671669 4.847223
v -0.536643 1.034515 4.904929
v -0.561555 0.333152 4.905558
v -0.148790 1.008833 4.938655
v -0.490143 0.376817 4.607272
v -0.321276 0.652421 4.670691
v -0.158754 0.922145 4.643567
v -0.633736 0.646829 4.562130
v -0.469377 0.942374 4.614601
v -0.193862 0.375536 4.731351
v -0.038495 0.633464 4.596848
v 0.292973 0.020193 4.985872
v 1.019130 0.440728 4.771646
v 1.271935 -2.499216 4.184316
v 1.261088 0.026367 4.727311
v 0.531315 -0.430106 5.035429
v 1.023678 -0.423550 4.851447
v 0.507250 0.501588 4.846315
v 0.214111 0.027263 5.009607
v 1.057452 0.513050 4.757052
v 0.492092 -0.501622 5.063116
v 1.068136 -0.492782 4.854024
v 1.342532 0.027263 4.710413
v 0.250911 -0.004230 4.825625
v 0.728958 0.002839 4.686175
v 1.219027 0.001943 4.567064
v 0.504220 0.406031 4.683081
v 0.977068 0.416304 4.611400
v 0.489254 -0.454530 4.875183
v 0.981616 -0.447974 4.691200
v 0.692990 -2.492934 4.349214
v 0.779199 -1.557057 4.727874
v 1.393965 -1.577488 4.601660
v 0.442648 -1.977195 4.488663
v 1.576436 -2.017541 4.206039
v 1.302605 -2.570601 4.124300
v 0.634972 -2.561996 4.312035
v 0.737659 -1.470994 4.755185
v 1.446832 -1.493967 4.607642
v 0.343291 -1.967879 4.488441
v 1.665645 -2.011628 4.160942
v 0.400123 -1.893001 4.304110
v 0.994055 -1.985350 4.317084
v 1.533911 -1.933348 4.021486
v 0.736674 -1.472863 4.543321
v 1.351440 -1.493295 4.417107
v 0.650465 -2.408740 4.164661
v 1.229410 -2.415022 3.999763
v -0.752108 -1.216976 4.630697
v -1.037320 -1.678474 4.256795
v -1.717973 -1.733514 4.187306
v -2.045686 -1.178372 4.054654
v -1.781412 -0.624173 4.295415
v -1.244188 -0.814652 4.734182
v -1.683082 -1.514178 4.578913
v -1.419358 -1.047793 4.854340
v -1.810788 -1.261775 4.491168
v -1.696352 -1.031828 4.583194
v -1.353044 -1.472626 4.582077
v -1.235461 -1.287702 4.759689
v -1.153166 -1.288911 4.775835
v -1.307243 -1.534690 4.557668
v -1.708631 -1.577578 4.537639
v -1.880896 -1.261179 4.444426
v -1.733950 -0.960502 4.569169
v -1.383844 -0.976602 4.883298
v -1.574115 -1.427645 4.336297
v -1.434042 -1.213445 4.426090
v -1.310391 -0.961259 4.611723
v -1.701821 -1.175241 4.248552
v -1.587385 -0.945294 4.340578
v -1.244077 -1.386092 4.339461
v -1.126494 -1.201168 4.517073
vn -0.5793 -0.1491 0.8014
vn -0.0459 -0.5137 0.8567
vn 0.4761 0.0616 0.8773
vn 0.3069 0.7079 0.6362
vn 0.0123 0.6806 0.7326
vn -0.1148 0.7594 0.6404
vn 0.2074 0.8001 0.5629
vn 0.0828 0.8699 0.4863
vn -0.3277 0.5600 0.7610
vn -0.4075 0.5142 0.7547
vn -0.2116 0.3899 0.8962
vn 0.2618 0.5262 0.8090
vn -0.1341 0.8130 0.5666
vn -0.0911 0.8235 0.5600
vn 0.2966 0.5436 0.7852
vn -0.0202 0.5060 0.8623
vn 0.3784 0.0637 0.9234
vn 0.2195 0.8705 0.4404
vn 0.6268 0.2720 0.7302
vn 0.2835 0.3253 0.9021
vn -0.7708 -0.1149 0.6267
vn -0.7436 0.1582 0.6496
vn -0.3684 0.1071 0.9235
vn -0.2449 -0.2857 0.9265
vn 0.1033 -0.9931 0.0561
vn -0.7936 0.1617 0.5866
vn -0.4025 0.4363 0.8048
vn -0.3313 0.7140 0.6168
vn -0.6259 0.5597 0.5431
vn -0.7315 -0.1397 0.6673
vn 0.6765 0.5795 0.4543
vn -0.0471 0.9988 -0.0165
vn -0.7851 0.5840 -0.2062
vn -0.3949 0.4246 0.8147
vn -0.3473 0.4516 0.8219
vn -0.3692 -0.0807 0.9258
vn -0.4504 -0.1366 0.8823
vn -0.2358 -0.8335 0.4997
vn -0.8937 -0.4405 0.0854
vn 0.5899 -0.3646 0.7205
vn -0.1056 0.4810 0.8703
vn -0.1286 0.3119 0.9414
vn -0.2276 0.2611 0.9381
vn -0.2576 0.0402 0.9654
vn -0.3842 -0.0424 0.9223
vn -0.3784 -0.1771 0.9085
vn -0.1222 -0.0188 0.9923
vn -0.1194 0.0738 0.9901
vn -0.2334 0.0103 0.9723
vn -0.1863 0.5302 0.8272
vn -0.2833 0.4829 0.8286
vn -0.3067 0.3102 0.8998
vn -0.2477 0.3440 0.9057
vn -0.8507 -0.5056 -0.1438
vn -0.3950 0.7830 0.4804
vn -0.6183 0.1209 0.7766
vn -0.2152 0.3688 0.9042
vn -0.2313 0.0472 0.9717
vn 0.0257 0.9155 0.4015
vn 0.8257 0.2970 0.4797
vn 0.8099 -0.2559 0.5278
vn -0.0540 0.3516 0.9346
vn 0.2151 0.4588 0.8621
vn 0.1582 0.0840 0.9838
vn 0.2058 0.1038 0.9731
vn 0.6093 0.1847 0.7712
vn 0.5893 -0.7106 0.3843
vn -0.9108 0.3943 0.1225
vn -0.1463 -0.3679 0.9183
vn -0.1553 0.3340 0.9297
vn -0.2704 0.2747 0.9227
vn -0.8451 -0.3838 0.3721
vn -0.1880 -0.8407 0.5078
vn -0.8475 0.4271 0.3152
vn 0.0573 -0.0253 0.9980
vn 0.1070 0.5250 0.8444
vn -0.0765 0.4493 0.8901
vn -0.0971 0.2966 0.9501
vn 0.4820 0.5019 0.7181
vn 0.2402 0.6167 0.7497
vn 0.6274 0.2321 0.7433
vn 0.5063 0.2134 0.8355
vn 0.4981 0.4806 0.7217
vn 0.7128 -0.3600 0.6019
vn 0.5290 0.5207 0.6701
vn 0.2886 0.3136 0.9046
vn 0.4853 0.3025 0.8203
vn 0.5384 0.3482 0.7674
vn 0.5816 0.1908 0.7908
vn 0.5716 0.1804 0.8005
vn 0.4759 0.1031 0.8734
vn 0.4039 0.4050 0.8203
vn 0.7155 0.3658 0.5953
vn -0.7652 0.1390 0.6286
vn -0.7636 -0.1540 0.6271
vn -0.7315 -0.1774 0.6583
vn -0.6243 -0.2259 0.7478
vn -0.7071 -0.3032 0.6389
vn -0.4438 -0.4377 0.7820
vn -0.6458 -0.0872 0.7585
vn -0.7359 -0.0289 0.6765
vn -0.5449 0.1193 0.8300
vn -0.3370 0.0259 0.9411
vn -0.5863 -0.5597 0.5856
vn -0.3776 -0.6410 0.6682
vn -0.1821 -0.4722 0.8625
vn -0.0321 -0.5019 0.8643
vn 0.2691 0.6376 0.7218
vn 0.2252 0.2820 0.9326
vn 0.1613 -0.0898 0.9828
vn 0.8502 -0.3368 0.4047
vn 0.0094 0.1055 0.9944
vn -0.0972 -0.3950 0.9135
vn -0.1803 -0.5495 0.8158
vn 0.3268 0.3514 0.8774
vn 0.5617 0.1820 0.8071
vn 0.2405 -0.0431 0.9697
vn 0.3079 -0.0860 0.9475
vn 0.5633 0.0882 0.8215
vn 0.4473 0.1683 0.8784
vn 0.8327 0.4589 0.3097
vn 0.0513 0.9006 0.4317
vn 0.3078 0.0897 0.9472
vn 0.3842 0.0424 0.9223
vn 0.4505 0.0879 0.8884
vn 0.1752 0.2339 0.9563
vn -0.5727 -0.2211 0.7894
vn 0.2456 -0.7227 0.6461
vn -0.5476 0.5542 0.6268
vn 0.4601 0.0024 0.8878
vn 0.3841 -0.0472 0.9221
vn 0.1301 0.0985 0.9866
vn 0.1796 0.1320 0.9748
vn 0.8258 -0.2587 0.5012
vn -0.0164 -0.3614 0.9323
vn 0.0805 -0.4190 0.9044
vn 0.3299 -0.2966 0.8962
vn 0.1924 -0.2132 0.9579
vn 0.4601 -0.0578 0.8860
vn 0.5527 -0.1177 0.8250
vn 0.1048 -0.3724 0.9221
vn 0.4529 -0.5878 0.6704
vn 0.8105 -0.3320 0.4826
vn 0.4544 -0.1042 0.8847
vn -0.1070 -0.5250 0.8444
vn -0.0453 -0.5585 0.8283
vn 0.0693 -0.5140 0.8550
vn 0.9507 0.2691 0.1539
vn -0.0638 -0.9812 -0.1819
vn 0.8302 -0.5273 -0.1808
vn 0.5253 -0.4177 0.7414
vn 0.4338 -0.3626 0.8248
vn 0.5103 -0.3154 0.8001
vn 0.3833 -0.2369 0.8927
vn 0.4518 -0.1959 0.8704
vn -0.0921 0.0344 0.9952
vn 0.3475 -0.2339 0.9080
vn -0.0266 -0.4284 0.9032
vn -0.1461 -0.3468 0.9265
vn -0.7661 0.3040 0.5663
vn 0.1480 0.7957 0.5873
vn -0.8475 -0.4821 0.2222
vn 0.5138 -0.3840 0.7672
vn 0.4228 -0.4423 0.7909
vn 0.2964 -0.3598 0.8847
vn 0.3772 -0.3165 0.8704
vn -0.1565 -0.2532 0.9547
vn -0.6032 -0.2408 0.7603
vn 0.0028 -0.7591 0.6510
vn -0.0193 -0.8253 0.5643
vn 0.2411 -0.7615 0.6017
vn -0.3330 -0.4758 0.8141
vn -0.0231 -0.4423 0.8966
vn -0.0535 -0.5694 0.8203
vn -0.1930 -0.5927 0.7820
vn 0.0413 -0.4952 0.8678
vn -0.0975 -0.5279 0.8437
vn -0.1280 -0.6486 0.7503
vn 0.2206 -0.5443 0.8094
vn 0.2548 -0.5658 0.7842
vn 0.5096 -0.4186 0.7517
vn -0.8381 -0.5037 -0.2094
vn 0.7224 -0.4946 0.4832
vn 0.8321 0.5162 0.2026
vn 0.1119 0.9584 -0.2625
vn -0.7451 0.4606 -0.4823
vn -0.0743 -0.9574 0.2790
vn -0.3779 0.4309 0.8195
vn -0.3485 0.2143 0.9125
vn -0.4007 0.1112 0.9094
vn -0.4034 0.3812 0.8318
vn -0.4580 0.1859 0.8693
vn -0.3386 0.3748 0.8631
vn -0.3596 0.1223 0.9251
vn -0.3381 0.4173 0.8435
vn -0.4064 0.3812 0.8304
vn -0.4638 0.1852 0.8663
vn -0.3841 0.2348 0.8930
vn -0.3720 0.3590 0.8560
vn 0.2825 0.1899 0.9403
vn -0.4022 0.1017 0.9099
vn -0.3668 -0.0328 0.9297
vn -0.0576 0.3316 0.9417
vn -0.3025 -0.1589 0.9398
vn 0.2482 0.0334 0.9681
vn 0.8563 -0.4995 0.1315
vn -0.0712 -0.9951 0.0690
vn -0.9248 -0.3737 -0.0716
vn -0.8779 0.4606 -0.1308
vn 0.8773 0.4763 0.0585
vn 0.0349 0.9967 -0.0731
vn 0.2921 0.2649 0.9190
vn -0.3821 0.0597 0.9222
vn -0.3352 -0.0178 0.9420
vn -0.0668 0.2881 0.9553
vn -0.3599 -0.1131 0.9261
vn 0.2452 -0.0287 0.9690
vn -0.3279 -0.0165 0.9446
vn -0.3284 0.0150 0.9444
vn -0.0822 0.1486 0.9855
vn -0.3861 0.0244 0.9221
vn 0.2594 0.3191 0.9115
vn 0.2490 -0.0528 0.9671
vn 0.8224 -0.5535 -0.1315
vn -0.0633 0.9889 -0.1341
vn 0.8587 0.4226 -0.2898
vn 0.0427 -0.9893 0.1396
vn -0.8125 -0.5055 0.2903
vn -0.8568 0.4934 0.1497
vn 0.3049 0.1375 0.9424
vn 0.1532 0.0804 0.9849
vn 0.3349 0.2100 0.9186
vn 0.2324 0.0378 0.9719
vn 0.2733 0.2421 0.9310
vn 0.1981 0.1623 0.9667
vn 0.2742 0.1601 0.9482
vn 0.1474 0.0897 0.9850
vn 0.2361 0.0340 0.9711
vn 0.2682 0.2445 0.9318
vn 0.3405 0.2011 0.9185
vn 0.2340 0.1419 0.9618
vn -0.1107 -0.9136 -0.3913
vn -0.9147 -0.4033 0.0268
vn -0.7834 0.4773 0.3982
vn 0.1207 0.9134 0.3889
vn 0.8147 -0.4332 -0.3854
vn 0.8988 0.4382 -0.0072
vn 0.2146 -0.5837 0.7831
vn 0.1920 -0.2014 0.9605
vn -0.1064 -0.4140 0.9040
vn 0.4895 -0.4512 0.7462
vn -0.1030 -0.3185 0.9423
vn 0.4950 -0.3618 0.7899
vn -0.0878 -0.4389 0.8943
vn 0.1803 -0.3200 0.9301
vn 0.4559 -0.4831 0.7476
vn -0.0660 -0.2902 0.9547
vn 0.2336 -0.4916 0.8389
vn 0.4768 -0.3380 0.8114
vn -0.2040 -0.5531 0.8078
vn -0.6381 -0.1670 0.7516
vn -0.5563 -0.0845 0.8267
vn -0.6441 -0.0601 0.7626
vn -0.0248 -0.4860 0.8736
vn -0.0992 -0.3600 0.9277
vn 0.8428 -0.4996 0.2003
vn -0.1224 0.9509 0.2842
vn 0.6921 0.5231 0.4974
vn 0.1920 -0.9485 -0.2520
vn -0.7743 -0.4000 -0.4904
vn -0.7763 0.6171 -0.1286
vn -0.2330 -0.5742 0.7848
vn -0.6397 -0.0947 0.7628
vn -0.5311 -0.0829 0.8432
vn -0.6821 -0.0861 0.7262
vn 0.0250 -0.4605 0.8873
vn -0.1037 -0.4096 0.9064
vn -0.5515 0.0110 0.8341
vn -0.5571 -0.0544 0.8286
vn -0.6939 -0.1740 0.6987
vn 0.0429 -0.4100 0.9111
vn -0.2028 -0.6082 0.7675
vn -0.2267 -0.5028 0.8341
usemtl None
s off
f 1//1 10//1 187//1
f 1//2 187//2 188//2
f 2//3 33//3 41//3
f 45//4 46//4 42//4
f 42//5 46//5 43//5
f 46//6 47//6 43//6
f 43//7 47//7 40//7
f 47//8 41//8 40//8
f 38//9 37//9 44//9
f 44//10 37//10 45//10
f 37//11 36//11 45//11
f 45//12 36//12 46//12
f 36//13 35//13 46//13
f 46//14 35//14 47//14
f 35//15 34//15 47//15
f 47//16 34//16 41//16
f 34//17 2//17 41//17
f 41//18 48//18 40//18
f 41//19 33//19 48//19
f 33//20 32//20 48//20
f 30//21 50//21 31//21
f 29//22 52//22 30//22
f 28//23 54//23 29//23
f 189//24 190//24 28//24
f 26//25 19//25 199//25 200//25
f 31//26 50//26 49//26
f 50//27 51//27 49//27
f 49//28 51//28 39//28
f 51//29 38//29 39//29
f 30//30 52//30 50//30
f 56//31 53//31 115//31 113//31
f 53//32 51//32 111//32 115//32
f 51//33 50//33 110//33 111//33
f 51//34 53//34 38//34
f 53//35 37//35 38//35
f 29//36 54//36 52//36
f 54//37 55//37 52//37
f 52//38 55//38 112//38 114//38
f 50//39 52//39 114//39 110//39
f 55//40 56//40 113//40 112//40
f 56//41 57//41 53//41
f 53//42 57//42 37//42
f 57//43 36//43 37//43
f 28//44 190//44 54//44
f 190//45 59//45 54//45
f 54//46 59//46 55//46
f 59//47 125//47 55//47
f 55//48 125//48 56//48
f 125//49 126//49 56//49
f 56//50 126//50 57//50
f 126//51 62//51 57//51
f 57//52 62//52 36//52
f 62//53 35//53 36//53
f 27//54 26//54 200//54 201//54
f 191//55 58//55 202//55 203//55
f 190//56 63//56 59//56
f 63//57 127//57 59//57
f 59//58 127//58 125//58
f 128//59 61//59 139//59 141//59
f 15//60 128//60 141//60 136//60
f 16//61 15//61 136//61 137//61
f 126//62 65//62 62//62
f 65//63 66//63 62//63
f 62//64 66//64 35//64
f 66//65 34//65 35//65
f 18//66 191//66 203//66 198//66
f 19//67 18//67 198//67 199//67
f 58//68 27//68 201//68 202//68
f 186//69 17//69 63//69
f 63//70 17//70 127//70
f 17//71 124//71 127//71
f 60//72 64//72 140//72 138//72
f 64//73 16//73 137//73 140//73
f 61//74 60//74 138//74 139//74
f 123//75 14//75 65//75
f 65//76 14//76 66//76
f 14//77 13//77 66//77
f 66//78 13//78 34//78
f 13//79 2//79 34//79
f 25//80 33//80 2//80
f 24//81 67//81 25//81
f 23//82 68//82 24//82
f 22//83 70//83 23//83
f 21//84 72//84 22//84
f 25//85 67//85 33//85
f 67//86 32//86 33//86
f 24//87 68//87 67//87
f 68//88 69//88 67//88
f 67//89 69//89 32//89
f 23//90 70//90 68//90
f 70//91 71//91 68//91
f 68//92 71//92 69//92
f 22//93 72//93 70//93
f 73//94 29//94 30//94
f 73//95 74//95 29//95
f 74//96 28//96 29//96
f 75//97 76//97 74//97
f 74//98 76//98 28//98
f 76//99 189//99 28//99
f 75//100 77//100 76//100
f 77//101 78//101 76//101
f 76//102 78//102 189//102
f 78//103 188//103 189//103
f 77//104 12//104 78//104
f 12//105 11//105 78//105
f 78//106 11//106 188//106
f 11//107 1//107 188//107
f 13//108 25//108 2//108
f 14//109 79//109 13//109
f 123//110 80//110 14//110
f 85//111 82//111 160//111 159//111
f 17//112 84//112 124//112
f 186//113 88//113 17//113
f 187//114 93//114 186//114
f 13//115 79//115 25//115
f 79//116 24//116 25//116
f 14//117 80//117 79//117
f 80//118 81//118 79//118
f 79//119 81//119 24//119
f 81//120 23//120 24//120
f 82//121 80//121 157//121 160//121
f 80//122 123//122 155//122 157//122
f 80//123 82//123 81//123
f 82//124 83//124 81//124
f 81//125 83//125 23//125
f 83//126 22//126 23//126
f 124//127 84//127 158//127 156//127
f 84//128 85//128 159//128 158//128
f 123//129 124//129 156//129 155//129
f 85//130 86//130 82//130
f 82//131 86//131 83//131
f 86//132 87//132 83//132
f 83//133 87//133 22//133
f 87//134 21//134 22//134
f 17//135 88//135 84//135
f 88//136 89//136 84//136
f 84//137 89//137 85//137
f 89//138 90//138 85//138
f 85//139 90//139 86//139
f 90//140 91//140 86//140
f 86//141 91//141 87//141
f 91//142 92//142 87//142
f 87//143 92//143 21//143
f 92//144 20//144 21//144
f 186//145 93//145 88//145
f 93//146 94//146 88//146
f 88//147 94//147 89//147
f 95//148 90//148 176//148 178//148
f 8//149 7//149 173//149 174//149
f 7//150 95//150 178//150 173//150
f 90//151 95//151 91//151
f 95//152 96//152 91//152
f 91//153 96//153 92//153
f 96//154 97//154 92//154
f 92//155 97//155 20//155
f 187//156 10//156 93//156
f 10//157 9//157 93//157
f 93//158 9//158 94//158
f 9//159 8//159 94//159
f 89//160 94//160 177//160 175//160
f 90//161 89//161 175//161 176//161
f 94//162 8//162 174//162 177//162
f 7//163 6//163 95//163
f 95//164 6//164 96//164
f 6//165 5//165 96//165
f 96//166 5//166 97//166
f 3//167 1//167 11//167
f 3//168 10//168 1//168
f 4//169 98//169 3//169
f 3//170 98//170 10//170
f 98//171 9//171 10//171
f 4//172 99//172 98//172
f 99//173 100//173 98//173
f 98//174 100//174 9//174
f 100//175 8//175 9//175
f 99//176 101//176 100//176
f 101//177 102//177 100//177
f 100//178 102//178 8//178
f 102//179 7//179 8//179
f 102//180 103//180 7//180
f 103//181 6//181 7//181
f 109//182 107//182 118//182 122//182
f 105//183 104//183 119//183 120//183
f 104//184 106//184 116//184 119//184
f 106//185 108//185 121//185 116//185
f 108//186 109//186 122//186 121//186
f 107//187 105//187 120//187 118//187
f 104//188 105//188 111//188 110//188
f 109//189 108//189 112//189 113//189
f 106//190 104//190 110//190 114//190
f 105//191 107//191 115//191 111//191
f 108//192 106//192 114//192 112//192
f 107//193 109//193 113//193 115//193
f 116//194 117//194 119//194
f 119//195 117//195 120//195
f 117//196 118//196 120//196
f 116//197 121//197 117//197
f 121//198 122//198 117//198
f 117//199 122//199 118//199
f 15//200 16//200 124//200 123//200
f 60//201 61//201 126//201 125//201
f 64//202 60//202 125//202 127//202
f 61//203 128//203 65//203 126//203
f 16//204 64//204 127//204 124//204
f 128//205 15//205 123//205 65//205
f 133//206 132//206 145//206 146//206
f 131//207 133//207 146//207 144//207
f 135//208 131//208 144//208 148//208
f 134//209 135//209 148//209 147//209
f 132//210 129//210 142//210 145//210
f 129//211 134//211 147//211 142//211
f 135//212 134//212 137//212 136//212
f 132//213 133//213 139//213 138//213
f 129//214 132//214 138//214 140//214
f 133//215 131//215 141//215 139//215
f 134//216 129//216 140//216 137//216
f 131//217 135//217 136//217 141//217
f 142//218 143//218 145//218
f 145//219 143//219 146//219
f 143//220 144//220 146//220
f 142//221 147//221 143//221
f 147//222 148//222 143//222
f 143//223 148//223 144//223
f 130//224 149//224 161//224 164//224
f 153//225 154//225 167//225 166//225
f 149//226 153//226 166//226 161//226
f 150//227 130//227 164//227 165//227
f 152//228 150//228 165//228 163//228
f 154//229 152//229 163//229 167//229
f 149//230 130//230 155//230 156//230
f 130//231 150//231 157//231 155//231
f 154//232 153//232 158//232 159//232
f 150//233 152//233 160//233 157//233
f 153//234 149//234 156//234 158//234
f 152//235 154//235 159//235 160//235
f 161//236 162//236 164//236
f 164//237 162//237 165//237
f 162//238 163//238 165//238
f 161//239 166//239 162//239
f 166//240 167//240 162//240
f 162//241 167//241 163//241
f 170//242 169//242 182//242 183//242
f 172//243 170//243 183//243 181//243
f 151//244 172//244 181//244 185//244
f 168//245 151//245 185//245 184//245
f 169//246 171//246 179//246 182//246
f 171//247 168//247 184//247 179//247
f 151//248 168//248 174//248 173//248
f 169//249 170//249 176//249 175//249
f 171//250 169//250 175//250 177//250
f 170//251 172//251 178//251 176//251
f 168//252 171//252 177//252 174//252
f 172//253 151//253 173//253 178//253
f 179//254 180//254 182//254
f 182//255 180//255 183//255
f 180//256 181//256 183//256
f 179//257 184//257 180//257
f 184//258 185//258 180//258
f 180//259 185//259 181//259
f 18//260 19//260 187//260 186//260
f 26//261 27//261 189//261 188//261
f 27//262 58//262 190//262 189//262
f 58//263 191//263 63//263 190//263
f 19//264 26//264 188//264 187//264
f 191//265 18//265 186//265 63//265
f 195//266 194//266 207//266 208//266
f 192//267 196//267 209//267 204//267
f 194//268 192//268 204//268 207//268
f 193//269 195//269 208//269 206//269
f 197//270 193//270 206//270 210//270
f 196//271 197//271 210//271 209//271
f 197//272 196//272 199//272 198//272
f 192//273 194//273 201//273 200//273
f 194//274 195//274 202//274 201//274
f 195//275 193//275 203//275 202//275
f 196//276 192//276 200//276 199//276
f 193//277 197//277 198//277 203//277
f 204//278 205//278 207//278
f 207//279 205//279 208//279
f 205//280 206//280 208//280
f 204//281 209//281 205//281
f 209//282 210//282 205//282
f 205//283 210//283 206//283
