# Blender v2.78 (sub 0) OBJ File: 'socket_back.blend'
# www.blender.org
mtllib socket_back.mtl
o Icosphere
v -1.296776 -2.098296 -3.991132
v 1.339557 2.167519 -4.122802
v -1.250055 -2.669343 -3.847338
v -1.092367 -3.084992 -3.362018
v -2.345894 -2.434533 -3.472733
v -1.769692 -2.237962 -3.724691
v -0.782144 -2.311890 -4.187298
v -0.143326 -2.434534 -4.188382
v 0.555427 -2.518202 -4.103682
v 1.274034 -2.548068 -3.920999
v 1.962774 -2.518202 -3.646399
v 2.495795 -2.356732 -3.198503
v -3.330342 1.216978 -3.304214
v -3.220787 0.630071 -3.738846
v -2.844246 -0.008323 -3.891856
v -2.575248 -0.646748 -4.208149
v -2.113365 -1.216979 -4.188400
v -1.662841 -1.678476 -4.053553
v 1.763716 1.780016 -4.299164
v 2.113365 1.216979 -4.188400
v 2.500701 0.629400 -4.103705
v 2.757812 -0.000000 -3.795798
v 3.130100 -0.629400 -3.646420
v 3.426325 -1.248700 -3.385132
v -1.119140 -1.778010 -4.509220
v -0.752108 -1.216976 -4.630697
v -0.388977 -0.629398 -4.789844
v 0.000000 0.000000 -4.691866
v 0.399825 0.645518 -4.917864
v 0.728249 1.178369 -4.482713
v 1.037320 1.678474 -4.256795
v -2.495795 2.356732 -3.198504
v -1.962774 2.518202 -3.646399
v -1.233345 2.466691 -3.795775
v -0.555427 2.518202 -4.103682
v 0.139064 2.356734 -4.054637
v 0.782144 2.311890 -4.187298
v 1.769692 2.237962 -3.724691
v 2.270729 2.356732 -3.362025
v 1.092368 3.084992 -3.362018
v 1.250055 2.669343 -3.847338
v 1.756525 2.842187 -3.510929
v 0.474055 3.376236 -3.444755
v -0.256120 3.507263 -3.335199
v 0.622537 2.751003 -3.749405
v -0.047375 2.977900 -3.823598
v -0.762254 2.955613 -3.563276
v -1.526328 3.053471 -3.440447
v 3.331871 1.375015 -3.430309
v 2.717651 1.872507 -3.334922
v 3.413679 0.000359 -3.440470
v 2.984441 0.640020 -3.563299
v 2.598449 1.248341 -3.701799
v 2.182115 1.787134 -3.749418
v 0.438460 1.787132 -4.315962
v 0.073661 1.248338 -4.522150
v -0.235127 1.984543 -4.555855
v -0.331020 0.661238 -4.789909
v -0.670131 1.339435 -4.609434
v -1.029936 2.042610 -4.418220
v -0.735914 0.001014 -4.764856
v -1.063261 0.657138 -4.522306
v -1.437765 1.357451 -4.424953
v -1.675576 1.920054 -3.939473
v -1.083577 -0.624172 -4.522155
v -1.525370 -0.007382 -4.735699
v -1.902309 0.704445 -4.543585
v -2.098273 1.296819 -3.991130
v -2.408544 1.933940 -3.734813
v -1.402330 -1.191424 -4.315969
v -1.817193 -0.647572 -4.417643
v -2.217205 0.000357 -4.309761
v -2.615578 0.678615 -4.178539
v -2.806880 1.289407 -3.734821
v -2.986592 1.845838 -3.341135
v 1.402331 1.191424 -4.315969
v 1.840081 0.644198 -4.437245
v 1.119480 0.644197 -4.671382
v 2.217208 -0.000359 -4.309760
v 1.449867 -0.000000 -4.462230
v 0.735497 -0.015926 -4.763931
v 2.547648 -0.661241 -4.069680
v 1.857115 -0.678919 -4.424956
v 1.088960 -0.668012 -4.648753
v 0.320011 -0.640019 -4.636980
v 2.884370 -1.331152 -3.829794
v 2.167231 -1.339438 -4.122992
v 1.391834 -1.314281 -4.283582
v 0.670134 -1.339438 -4.609433
v -0.068213 -1.324160 -4.795900
v 2.891606 -1.787133 -3.233942
v 2.475794 -1.992678 -3.828590
v 1.675577 -1.920055 -3.939472
v 0.991955 -1.964932 -4.289160
v 0.238425 -1.872508 -4.295402
v -0.454253 -1.895789 -4.577962
v -3.304447 -0.000000 -3.330801
v -2.984437 -0.640020 -3.563303
v -2.598444 -1.248341 -3.701803
v -3.251495 -1.339436 -3.335227
v -2.182111 -1.787133 -3.749421
v -2.881683 -1.978002 -3.541515
v 1.526328 -3.053469 -3.440450
v 0.787457 -3.053468 -3.680528
v 0.256118 -3.507257 -3.335206
v 0.047374 -2.977896 -3.823601
v -0.474057 -3.376228 -3.444762
v -0.622538 -2.750998 -3.749408
vn -0.3455 -0.4256 -0.8363
vn -0.5797 -0.5891 -0.5630
vn 0.2261 0.4994 -0.8363
vn 0.1449 0.7743 -0.6160
vn 0.5130 0.2962 -0.8057
vn 0.4520 0.3062 -0.8378
vn 0.5550 0.4742 -0.6835
vn -0.0028 0.7591 -0.6510
vn 0.3330 0.4758 -0.8141
vn 0.2533 0.4717 -0.8446
vn 0.0122 0.6806 -0.7325
vn -0.2940 0.5829 -0.7575
vn -0.0196 0.7024 -0.7115
vn -0.1014 0.6838 -0.7226
vn 0.2336 0.3998 -0.8864
vn 0.1537 0.3847 -0.9102
vn -0.2642 0.6977 -0.6659
vn -0.3527 0.6568 -0.6666
vn -0.0773 0.4879 -0.8695
vn -0.1473 0.4575 -0.8769
vn 0.3462 0.0061 -0.9381
vn 0.2379 0.4580 -0.8565
vn 0.5384 0.3482 -0.7674
vn 0.5094 0.4284 -0.7464
vn 0.4496 0.4535 -0.7696
vn 0.4751 0.0729 -0.8769
vn 0.4710 0.1491 -0.8695
vn 0.7451 -0.0217 -0.6666
vn 0.7071 0.3032 -0.6389
vn 0.6563 0.3352 -0.6759
vn 0.6266 0.4266 -0.6522
vn 0.7434 0.3495 -0.5703
vn 0.6306 0.6037 -0.4878
vn 0.4118 0.7105 -0.5706
vn 0.1566 0.1698 -0.9730
vn 0.1516 0.3276 -0.9326
vn 0.1110 0.5867 -0.8022
vn -0.1727 -0.2285 -0.9581
vn 0.0984 0.0934 -0.9908
vn -0.3596 -0.0303 -0.9326
vn -0.4312 0.0877 -0.8980
vn 0.1254 0.1580 -0.9794
vn -0.1676 0.3369 -0.9265
vn 0.0895 0.3025 -0.9489
vn 0.3618 0.1094 -0.9258
vn 0.4186 0.5512 -0.7218
vn 0.2113 0.7026 -0.6795
vn -0.1402 0.4892 -0.8608
vn 0.1493 0.3233 -0.9345
vn 0.1170 0.0036 -0.9931
vn -0.1546 0.1848 -0.9705
vn -0.0915 0.6112 -0.7862
vn -0.3290 0.7269 -0.6028
vn 0.0981 -0.0977 -0.9904
vn -0.3389 0.1728 -0.9248
vn -0.3426 0.0778 -0.9363
vn -0.2334 0.0103 -0.9723
vn -0.2280 0.1452 -0.9628
vn -0.5984 0.3632 -0.7141
vn -0.5478 0.5972 -0.5859
vn -0.1611 0.3708 -0.9146
vn -0.3561 -0.1594 -0.9208
vn -0.0309 -0.3467 -0.9375
vn -0.0383 0.3296 -0.9433
vn 0.0401 0.2801 -0.9591
vn 0.0338 0.1553 -0.9873
vn -0.5093 0.4908 -0.7069
vn -0.5253 0.4177 -0.7414
vn -0.2559 0.2509 -0.9336
vn -0.2483 0.3274 -0.9117
vn -0.6259 0.5597 -0.5431
vn -0.4368 -0.0802 -0.8960
vn -0.1270 -0.2750 -0.9530
vn -0.1169 -0.3986 -0.9096
vn -0.5172 -0.1800 -0.8367
vn -0.5241 -0.0480 -0.8503
vn -0.4509 -0.0931 -0.8877
vn -0.3953 0.5531 -0.7333
vn -0.2997 0.4975 -0.8140
vn -0.3347 0.2069 -0.9193
vn -0.5634 0.3482 -0.7493
vn -0.4966 0.6406 -0.5858
vn -0.6478 -0.0626 -0.7593
vn -0.1471 -0.4070 -0.9015
vn -0.1583 -0.2968 -0.9417
vn -0.2587 -0.2419 -0.9352
vn -0.2664 -0.0040 -0.9639
vn -0.5477 0.1746 -0.8182
vn -0.5458 -0.1615 -0.8222
vn -0.5739 -0.1453 -0.8059
vn -0.5670 0.3605 -0.7407
vn -0.6164 0.3911 -0.6835
vn -0.6301 0.3025 -0.7151
vn -0.0997 0.3198 -0.9422
vn 0.1789 -0.0818 -0.9805
vn 0.4473 0.1682 -0.8784
vn 0.6872 -0.0729 -0.7228
vn 0.5758 0.1499 -0.8037
vn 0.6361 -0.0212 -0.7713
vn -0.0678 0.0701 -0.9952
vn 0.2252 0.2821 -0.9326
vn 0.1552 0.3304 -0.9310
vn 0.2810 0.4164 -0.8647
vn 0.2053 0.4562 -0.8659
vn 0.2821 0.4965 -0.8209
vn 0.4505 0.0879 -0.8884
vn 0.1942 -0.0797 -0.9777
vn 0.3056 -0.1486 -0.9405
vn 0.3890 -0.0979 -0.9160
vn 0.3234 -0.0557 -0.9446
vn -0.0997 -0.2732 -0.9568
vn 0.6867 0.0809 -0.7224
vn 0.4574 -0.0926 -0.8844
vn 0.1945 0.0629 -0.9789
vn 0.2794 0.1152 -0.9532
vn 0.3877 0.0476 -0.9206
vn -0.0218 -0.1853 -0.9824
vn -0.0995 -0.1343 -0.9859
vn 0.2110 0.0217 -0.9772
vn 0.5877 0.0056 -0.8091
vn 0.3761 -0.1390 -0.9161
vn 0.4533 -0.1857 -0.8718
vn 0.1804 -0.3377 -0.9238
vn 0.2533 -0.3832 -0.8883
vn 0.4011 -0.3009 -0.8652
vn -0.0170 -0.0479 -0.9987
vn 0.2456 0.0849 -0.9656
vn 0.2111 0.1059 -0.9717
vn -0.2492 -0.1067 -0.9625
vn 0.5287 -0.6710 -0.5199
vn 0.7861 -0.4862 -0.3816
vn 0.3705 -0.2305 -0.8998
vn 0.0942 -0.3717 -0.9236
vn 0.1703 -0.4252 -0.8889
vn 0.4524 -0.2708 -0.8497
vn 0.4063 -0.2421 -0.8811
vn -0.0511 -0.4759 -0.8780
vn 0.1832 -0.6049 -0.7750
vn 0.3365 -0.5252 -0.7816
vn -0.2583 -0.1870 -0.9478
vn -0.1249 -0.1312 -0.9835
vn 0.7615 -0.5505 -0.3422
vn 0.5699 -0.7035 -0.4246
vn 0.0896 -0.4032 -0.9107
vn 0.3673 -0.2611 -0.8927
vn 0.4489 -0.3116 -0.8375
vn 0.2023 -0.4510 -0.8693
vn -0.0286 -0.2974 -0.9543
vn 0.0879 -0.2436 -0.9659
vn 0.3572 -0.4031 -0.8426
vn -0.1216 -0.6268 -0.7697
vn -0.1858 -0.5907 -0.7852
vn -0.4908 -0.6557 -0.5737
vn -0.7415 -0.2926 -0.6038
vn -0.8413 -0.0905 -0.5329
vn -0.5953 -0.5039 -0.6259
vn -0.3336 -0.5495 -0.7660
vn -0.7649 -0.1554 -0.6251
vn -0.7815 -0.3839 -0.4919
vn -0.4759 -0.1031 -0.8734
vn -0.6266 -0.4266 -0.6522
vn -0.2549 -0.1121 -0.9605
vn -0.4893 -0.0016 -0.8721
vn -0.3964 -0.4078 -0.8225
vn -0.2886 -0.3136 -0.9046
vn -0.1785 -0.3482 -0.9203
vn 0.3277 -0.5600 -0.7610
vn 0.2472 -0.6000 -0.7608
vn 0.1822 -0.5600 -0.8082
vn 0.0772 -0.6595 -0.7478
vn 0.0943 -0.5919 -0.8005
vn 0.0356 -0.5484 -0.8355
vn -0.0122 -0.6806 -0.7325
vn -0.2533 -0.4717 -0.8446
vn -0.2863 -0.6013 -0.7460
vn -0.1402 -0.7242 -0.6752
vn -0.3330 -0.4758 -0.8141
vn 0.0028 -0.7591 -0.6510
vn 0.0196 -0.7024 -0.7115
vn -0.4345 -0.2532 -0.8643
vn -0.4168 -0.2539 -0.8728
usemtl None
s off
f 1//1 6//1 18//1
f 1//2 18//2 25//2
f 2//3 37//3 41//3
f 42//4 41//4 40//4
f 39//5 38//5 42//5
f 42//6 38//6 41//6
f 38//7 2//7 41//7
f 41//8 45//8 40//8
f 40//9 45//9 43//9
f 45//10 46//10 43//10
f 43//11 46//11 44//11
f 46//12 47//12 44//12
f 41//13 37//13 45//13
f 37//14 36//14 45//14
f 45//15 36//15 46//15
f 36//16 35//16 46//16
f 46//17 35//17 47//17
f 35//18 34//18 47//18
f 47//19 34//19 48//19
f 34//20 33//20 48//20
f 52//21 53//21 49//21
f 49//22 53//22 50//22
f 53//23 54//23 50//23
f 50//24 54//24 39//24
f 54//25 38//25 39//25
f 23//26 22//26 51//26
f 51//27 22//27 52//27
f 22//28 21//28 52//28
f 52//29 21//29 53//29
f 21//30 20//30 53//30
f 53//31 20//31 54//31
f 20//32 19//32 54//32
f 54//33 19//33 38//33
f 19//34 2//34 38//34
f 31//35 37//35 2//35
f 30//36 55//36 31//36
f 29//37 56//37 30//37
f 28//38 58//38 29//38
f 27//39 61//39 28//39
f 26//40 65//40 27//40
f 25//41 70//41 26//41
f 31//42 55//42 37//42
f 55//43 36//43 37//43
f 30//44 56//44 55//44
f 56//45 57//45 55//45
f 55//46 57//46 36//46
f 57//47 35//47 36//47
f 29//48 58//48 56//48
f 58//49 59//49 56//49
f 56//50 59//50 57//50
f 59//51 60//51 57//51
f 57//52 60//52 35//52
f 60//53 34//53 35//53
f 28//54 61//54 58//54
f 61//55 62//55 58//55
f 58//56 62//56 59//56
f 62//57 63//57 59//57
f 59//58 63//58 60//58
f 63//59 64//59 60//59
f 60//60 64//60 34//60
f 64//61 33//61 34//61
f 27//62 65//62 61//62
f 65//63 66//63 61//63
f 61//64 66//64 62//64
f 66//65 67//65 62//65
f 62//66 67//66 63//66
f 67//67 68//67 63//67
f 63//68 68//68 64//68
f 68//69 69//69 64//69
f 64//70 69//70 33//70
f 69//71 32//71 33//71
f 26//72 70//72 65//72
f 70//73 71//73 65//73
f 65//74 71//74 66//74
f 71//75 72//75 66//75
f 66//76 72//76 67//76
f 72//77 73//77 67//77
f 67//78 73//78 68//78
f 73//79 74//79 68//79
f 68//80 74//80 69//80
f 74//81 75//81 69//81
f 69//82 75//82 32//82
f 25//83 18//83 70//83
f 18//84 17//84 70//84
f 70//85 17//85 71//85
f 17//86 16//86 71//86
f 71//87 16//87 72//87
f 16//88 15//88 72//88
f 72//89 15//89 73//89
f 15//90 14//90 73//90
f 73//91 14//91 74//91
f 14//92 13//92 74//92
f 74//93 13//93 75//93
f 19//94 31//94 2//94
f 20//95 76//95 19//95
f 21//96 77//96 20//96
f 22//97 79//97 21//97
f 23//98 82//98 22//98
f 24//99 86//99 23//99
f 19//100 76//100 31//100
f 76//101 30//101 31//101
f 20//102 77//102 76//102
f 77//103 78//103 76//103
f 76//104 78//104 30//104
f 78//105 29//105 30//105
f 21//106 79//106 77//106
f 79//107 80//107 77//107
f 77//108 80//108 78//108
f 80//109 81//109 78//109
f 78//110 81//110 29//110
f 81//111 28//111 29//111
f 22//112 82//112 79//112
f 82//113 83//113 79//113
f 79//114 83//114 80//114
f 83//115 84//115 80//115
f 80//116 84//116 81//116
f 84//117 85//117 81//117
f 81//118 85//118 28//118
f 85//119 27//119 28//119
f 23//120 86//120 82//120
f 86//121 87//121 82//121
f 82//122 87//122 83//122
f 87//123 88//123 83//123
f 83//124 88//124 84//124
f 88//125 89//125 84//125
f 84//126 89//126 85//126
f 89//127 90//127 85//127
f 85//128 90//128 27//128
f 90//129 26//129 27//129
f 24//130 91//130 86//130
f 91//131 92//131 86//131
f 86//132 92//132 87//132
f 92//133 93//133 87//133
f 87//134 93//134 88//134
f 93//135 94//135 88//135
f 88//136 94//136 89//136
f 94//137 95//137 89//137
f 89//138 95//138 90//138
f 95//139 96//139 90//139
f 90//140 96//140 26//140
f 96//141 25//141 26//141
f 91//142 12//142 92//142
f 12//143 11//143 92//143
f 92//144 11//144 93//144
f 11//145 10//145 93//145
f 93//146 10//146 94//146
f 10//147 9//147 94//147
f 94//148 9//148 95//148
f 9//149 8//149 95//149
f 95//150 8//150 96//150
f 8//151 7//151 96//151
f 96//152 7//152 25//152
f 7//153 1//153 25//153
f 15//154 97//154 14//154
f 16//155 98//155 15//155
f 17//156 99//156 16//156
f 18//157 101//157 17//157
f 15//158 98//158 97//158
f 16//159 99//159 98//159
f 99//160 100//160 98//160
f 17//161 101//161 99//161
f 101//162 102//162 99//162
f 99//163 102//163 100//163
f 18//164 6//164 101//164
f 6//165 5//165 101//165
f 101//166 5//166 102//166
f 103//167 10//167 11//167
f 103//168 104//168 10//168
f 104//169 9//169 10//169
f 105//170 106//170 104//170
f 104//171 106//171 9//171
f 106//172 8//172 9//172
f 105//173 107//173 106//173
f 107//174 108//174 106//174
f 106//175 108//175 8//175
f 108//176 7//176 8//176
f 107//177 4//177 108//177
f 4//178 3//178 108//178
f 108//179 3//179 7//179
f 3//180 1//180 7//180
f 3//181 6//181 1//181
