# Blender v2.78 (sub 0) OBJ File: 'socket_right.blend'
# www.blender.org
mtllib socket_right.mtl
o Icosphere
v 3.395069 -2.098294 2.466633
v 3.600772 -2.225428 -2.616083
v 4.312346 2.156183 0.000000
v 3.836890 -2.382979 -2.087339
v 3.939099 -2.434528 -1.430599
v 4.074472 -2.518194 -0.739879
v 3.991126 -2.466683 0.000000
v 3.944324 -2.437757 0.716421
v 3.921454 -2.421751 1.413910
v 3.740662 -2.311886 2.037811
v 4.369009 1.678458 0.328850
v 4.636475 1.216966 0.715643
v 4.651215 0.626321 1.104246
v 4.462236 -0.000000 1.449846
v 4.435219 -0.629396 1.850065
v 4.145638 -1.219371 2.137490
v 3.727908 -1.678471 2.301966
v 3.851130 -1.733510 -2.377768
v 4.283010 -1.241613 -2.207554
v 4.435219 -0.629396 -1.850065
v 4.609447 0.000000 -1.497677
v 4.648844 0.626519 -1.112810
v 4.636475 1.216966 -0.715643
v 4.482776 1.740222 -0.325680
v 3.445793 -1.723478 2.895916
v 3.330342 -1.216978 3.304214
v 3.426325 -1.248700 -3.385132
v 3.451485 -1.733513 -2.927836
v 4.089266 2.237944 0.532094
v 4.027696 2.434518 1.157943
v 3.731217 2.518190 1.796325
v 3.228892 2.466684 2.345919
v 3.430521 2.602348 -2.492410
v 3.731218 2.518190 -1.796324
v 4.027696 2.434518 -1.157943
v 4.089266 2.237944 -0.532094
v 3.916375 2.583720 0.000000
v 3.637820 3.161997 -0.016483
v 3.413175 3.347649 -0.616984
v 3.758286 2.750986 -0.566545
v 3.597549 2.972541 -1.206216
v 3.422667 3.376220 0.613619
v 3.621835 2.977887 1.226598
v 3.881898 2.842170 0.585636
v 4.380077 1.845824 -0.947570
v 4.323592 1.248331 -1.327340
v 4.011508 1.872497 -1.554081
v 4.311151 0.640016 -1.737230
v 4.176764 1.339431 -2.061702
v 3.772760 1.971832 -2.263524
v 4.326982 0.000359 -2.183408
v 4.103368 0.678916 -2.488271
v 3.764101 1.357450 -2.734762
v 3.318600 1.971836 -2.888627
v 3.965989 -0.624169 -2.427953
v 3.795810 0.000000 -2.757795
v 3.518348 0.657140 -3.033646
v 3.331871 1.375015 -3.430309
v 3.671392 -1.191422 -2.667396
v 3.534704 -0.624170 -3.021571
v 3.413679 0.000359 -3.440470
v 3.251501 1.339431 3.335222
v 3.419442 2.042596 2.982353
v 3.413677 0.000353 3.440472
v 3.518346 0.657132 3.033650
v 3.764099 1.357442 2.734767
v 3.792314 1.982985 2.275117
v 3.651460 -0.644202 3.121199
v 4.023073 0.008008 2.928130
v 4.103365 0.678905 2.488278
v 4.176763 1.339423 2.061709
v 4.011508 1.872492 1.554085
v 3.671390 -1.191427 2.667398
v 4.096816 -0.644204 2.508214
v 4.326979 0.000348 2.183414
v 4.577751 0.677875 1.826174
v 4.323593 1.248324 1.327346
v 4.380079 1.845820 0.947573
v 4.687966 1.230044 0.000000
v 4.635670 0.624165 0.366866
v 4.788689 0.644192 -0.378836
v 4.783982 -0.000359 0.776888
v 4.975859 0.007107 -0.004082
v 4.631151 0.000000 -0.752364
v 4.508922 -0.640016 1.128548
v 4.782266 -0.678913 0.398821
v 4.782266 -0.678913 -0.398821
v 4.781955 -0.686500 -1.191905
v 4.278061 -1.248335 1.467470
v 4.590915 -1.339430 0.787061
v 4.652675 -1.357445 0.000000
v 4.444198 -1.296813 -0.762229
v 4.278061 -1.248335 -1.467469
v 4.100534 -1.845833 1.807914
v 4.158849 -1.872500 1.100601
v 4.405327 -1.982989 0.388444
v 4.264449 -1.920046 -0.376182
v 4.418348 -1.971559 -1.157930
v 4.215075 -1.887706 -1.851432
v 3.373524 -2.750999 -1.750700
v 3.534681 -2.882416 -1.100599
v 3.624432 -2.955604 -0.376181
v 3.624432 -2.955603 0.376183
v 3.651103 -2.977890 1.136510
v 3.373526 -2.750995 1.750702
vn 0.6791 -0.2708 0.6822
vn 0.7972 -0.4983 0.3409
vn 0.8026 -0.1260 -0.5831
vn 0.7190 0.6659 -0.1991
vn 0.8954 0.4278 -0.1236
vn 0.8589 0.4823 -0.1722
vn 0.8664 0.4973 -0.0455
vn 0.8402 0.5369 -0.0759
vn 0.8343 0.5442 0.0888
vn 0.7800 0.6255 0.0206
vn 0.7624 0.5846 -0.2774
vn 0.7516 0.6374 0.1700
vn 0.7587 0.6504 0.0379
vn 0.8941 0.4268 -0.1357
vn 0.7836 0.5484 0.2920
vn 0.7967 0.5694 0.2027
vn 0.9456 0.3253 -0.0092
vn 0.9395 0.3304 -0.0905
vn 0.7190 0.6659 0.1991
vn 0.8071 0.5317 -0.2567
vn 0.9336 0.3454 -0.0955
vn 0.8550 0.3017 -0.4219
vn 0.8585 0.2282 -0.4593
vn 0.9238 -0.0427 -0.3805
vn 0.7655 0.1717 -0.6200
vn 0.5726 -0.2305 -0.7868
vn 0.7894 0.6133 -0.0262
vn 0.8413 0.5339 0.0849
vn 0.8771 0.1959 -0.4386
vn 0.8348 0.2369 -0.4969
vn 0.8168 0.3165 -0.4824
vn 0.8914 0.2436 -0.3821
vn 0.8453 0.2866 -0.4509
vn 0.9777 0.1031 -0.1827
vn 0.9049 0.4050 -0.1307
vn 0.8524 0.4742 -0.2205
vn 0.9166 0.2978 -0.2668
vn 0.8738 0.3527 -0.3348
vn 0.8885 0.2772 -0.3658
vn 0.9471 0.1990 -0.2517
vn 0.9627 0.0629 -0.2631
vn 0.8318 0.2329 -0.5038
vn 0.8003 0.3577 -0.4811
vn 0.7407 0.4023 -0.5381
vn 0.7892 0.2202 -0.5734
vn 0.7602 -0.1970 -0.6191
vn 0.7252 -0.1566 -0.6705
vn 0.7327 -0.0630 -0.6776
vn 0.6821 -0.0188 -0.7310
vn 0.6786 0.0738 -0.7308
vn 0.8464 -0.0718 -0.5278
vn 0.7677 0.4400 -0.4659
vn 0.6020 0.0242 -0.7981
vn 0.7973 -0.1696 -0.5793
vn 0.8058 -0.0897 -0.5854
vn 0.8618 -0.1566 -0.4825
vn 0.8612 0.1613 -0.4820
vn 0.8082 -0.0458 -0.5872
vn 0.9259 -0.2326 -0.2976
vn 0.9454 0.0250 -0.3248
vn 0.8713 -0.1720 0.4597
vn 0.7604 0.0103 0.6494
vn 0.7504 0.1444 0.6450
vn 0.8594 0.2770 0.4298
vn 0.6453 0.7106 0.2803
vn 0.5723 0.5821 0.5776
vn 0.6383 -0.1395 0.7571
vn 0.6003 0.3498 0.7192
vn 0.6248 0.3744 0.6852
vn 0.6786 0.0738 0.7308
vn 0.8318 0.2329 0.5038
vn 0.8108 0.3224 0.4885
vn 0.8691 0.4547 0.1945
vn 0.9210 0.3128 0.2321
vn 0.8914 0.2436 0.3821
vn 0.8375 -0.3304 0.4353
vn 0.7356 -0.4164 0.5344
vn 0.7776 -0.2758 0.5650
vn 0.9165 -0.1381 0.3754
vn 0.9179 0.1348 0.3732
vn 0.8129 0.0062 0.5824
vn 0.7818 0.2746 0.5597
vn 0.8670 0.4852 0.1132
vn 0.9049 0.4050 0.1307
vn 0.8348 0.2369 0.4969
vn 0.8168 0.3165 0.4824
vn 0.8413 0.5339 -0.0849
vn 0.8904 -0.2025 0.4076
vn 0.6756 -0.3907 0.6252
vn 0.6886 -0.3507 0.6347
vn 0.8711 -0.2117 0.4431
vn 0.8867 -0.0879 0.4539
vn 0.9808 0.0729 0.1808
vn 0.9498 -0.2591 0.1753
vn 0.9668 -0.2284 0.1147
vn 0.8918 0.4487 0.0587
vn 0.8556 0.2992 0.4223
vn 0.8771 0.1959 0.4386
vn 0.9009 0.4146 -0.1283
vn 0.8625 0.4844 -0.1465
vn 0.8884 0.3271 0.3222
vn 0.9517 0.2425 0.1883
vn 0.8364 0.5435 0.0701
vn 0.9997 0.0111 -0.0211
vn 0.9017 -0.0342 0.4311
vn 0.9946 0.0217 0.1013
vn 0.9147 -0.3534 0.1961
vn 0.6707 -0.3826 0.6355
vn 0.8610 0.4701 0.1940
vn 0.9407 0.3313 -0.0737
vn 0.9966 -0.0431 0.0709
vn 0.9787 0.0377 0.2018
vn 0.9737 0.2153 -0.0740
vn 0.9710 0.1472 -0.1885
vn 0.9758 0.2178 -0.0212
vn 0.9041 0.3628 0.2256
vn 0.9038 0.3806 0.1957
vn 0.9080 0.0206 -0.4185
vn 0.9743 -0.1325 -0.1824
vn 0.9986 -0.0449 -0.0291
vn 0.8921 -0.1491 0.4266
vn 0.9142 -0.1990 0.3531
vn 0.9627 -0.1335 0.2353
vn 0.9624 -0.2716 0.0000
vn 0.9082 -0.0156 -0.4182
vn 0.9764 0.2161 -0.0024
vn 0.9724 0.2317 -0.0283
vn 0.8852 0.0153 -0.4650
vn 0.9475 -0.3032 0.1013
vn 0.8984 -0.1031 0.4269
vn 0.9335 -0.0629 0.3530
vn 0.9691 -0.2329 0.0814
vn 0.9822 -0.1876 0.0000
vn 0.9024 -0.3330 -0.2733
vn 0.8762 -0.4819 0.0043
vn 0.7776 -0.5877 -0.2236
vn 0.7644 -0.4681 -0.4433
vn 0.9699 -0.2436 0.0043
vn 0.9647 -0.1737 0.1982
vn 0.9675 -0.2369 0.0887
vn 0.8089 -0.4050 0.4262
vn 0.8175 -0.4547 0.3535
vn 0.9431 -0.3224 0.0814
vn 0.8636 -0.4640 -0.1973
vn 0.8674 -0.4177 -0.2705
vn 0.9674 -0.1547 0.2006
vn 0.9705 0.0931 -0.2222
vn 0.9595 0.0693 -0.2729
vn 0.9948 -0.1014 0.0057
vn 0.6937 -0.4023 -0.5975
vn 0.7303 -0.2504 0.6356
vn 0.8196 -0.4745 0.3211
vn 0.9319 -0.3514 0.0901
vn 0.9251 -0.3776 0.0390
vn 0.7722 -0.5306 0.3496
vn 0.7268 -0.6827 0.0750
vn 0.8169 -0.5428 -0.1952
vn 0.9197 -0.3708 0.1294
vn 0.8912 -0.4060 0.2022
vn 0.7398 -0.6351 -0.2219
vn 0.7452 -0.6000 -0.2910
vn 0.8206 -0.5454 -0.1705
vn 0.7474 -0.2848 -0.6002
vn 0.8643 -0.2210 -0.4518
vn 0.5460 -0.8243 -0.1497
vn 0.6409 -0.7370 -0.2149
vn 0.7429 -0.6568 0.1294
vn 0.8250 -0.5599 0.0765
vn 0.8908 -0.4528 0.0396
vn 0.6217 -0.7206 0.3070
vn 0.5890 -0.7513 -0.2979
vn 0.6215 -0.7680 -0.1546
vn 0.8000 -0.6000 0.0000
vn 0.8629 -0.5034 -0.0450
vn 0.6509 -0.5678 0.5039
usemtl None
s off
f 1//1 10//1 17//1
f 1//2 17//2 25//2
f 2//3 28//3 18//3
f 3//4 36//4 37//4
f 37//5 40//5 38//5
f 38//6 40//6 39//6
f 40//7 41//7 39//7
f 37//8 36//8 40//8
f 36//9 35//9 40//9
f 40//10 35//10 41//10
f 35//11 34//11 41//11
f 43//12 44//12 42//12
f 42//13 44//13 38//13
f 44//14 37//14 38//14
f 31//15 30//15 43//15
f 43//16 30//16 44//16
f 30//17 29//17 44//17
f 44//18 29//18 37//18
f 29//19 3//19 37//19
f 24//20 36//20 3//20
f 23//21 45//21 24//21
f 22//22 46//22 23//22
f 21//23 48//23 22//23
f 20//24 51//24 21//24
f 19//25 55//25 20//25
f 18//26 59//26 19//26
f 24//27 45//27 36//27
f 45//28 35//28 36//28
f 23//29 46//29 45//29
f 46//30 47//30 45//30
f 45//31 47//31 35//31
f 47//32 34//32 35//32
f 22//33 48//33 46//33
f 48//34 49//34 46//34
f 46//35 49//35 47//35
f 49//36 50//36 47//36
f 47//37 50//37 34//37
f 50//38 33//38 34//38
f 21//39 51//39 48//39
f 51//40 52//40 48//40
f 48//41 52//41 49//41
f 52//42 53//42 49//42
f 49//43 53//43 50//43
f 53//44 54//44 50//44
f 50//45 54//45 33//45
f 20//46 55//46 51//46
f 55//47 56//47 51//47
f 51//48 56//48 52//48
f 56//49 57//49 52//49
f 52//50 57//50 53//50
f 57//51 58//51 53//51
f 53//52 58//52 54//52
f 19//53 59//53 55//53
f 59//54 60//54 55//54
f 55//55 60//55 56//55
f 60//56 61//56 56//56
f 56//57 61//57 57//57
f 18//58 28//58 59//58
f 28//59 27//59 59//59
f 59//60 27//60 60//60
f 25//61 73//61 26//61
f 65//62 66//62 62//62
f 62//63 66//63 63//63
f 66//64 67//64 63//64
f 63//65 67//65 32//65
f 67//66 31//66 32//66
f 68//67 69//67 64//67
f 64//68 69//68 65//68
f 69//69 70//69 65//69
f 65//70 70//70 66//70
f 70//71 71//71 66//71
f 66//72 71//72 67//72
f 71//73 72//73 67//73
f 67//74 72//74 31//74
f 72//75 30//75 31//75
f 26//76 73//76 68//76
f 73//77 74//77 68//77
f 68//78 74//78 69//78
f 74//79 75//79 69//79
f 69//80 75//80 70//80
f 75//81 76//81 70//81
f 70//82 76//82 71//82
f 76//83 77//83 71//83
f 71//84 77//84 72//84
f 77//85 78//85 72//85
f 72//86 78//86 30//86
f 78//87 29//87 30//87
f 25//88 17//88 73//88
f 17//89 16//89 73//89
f 73//90 16//90 74//90
f 16//91 15//91 74//91
f 74//92 15//92 75//92
f 15//93 14//93 75//93
f 75//94 14//94 76//94
f 14//95 13//95 76//95
f 76//96 13//96 77//96
f 13//97 12//97 77//97
f 77//98 12//98 78//98
f 12//99 11//99 78//99
f 78//100 11//100 29//100
f 11//101 3//101 29//101
f 11//102 24//102 3//102
f 12//103 79//103 11//103
f 13//104 80//104 12//104
f 14//105 82//105 13//105
f 15//106 85//106 14//106
f 16//107 89//107 15//107
f 17//108 94//108 16//108
f 11//109 79//109 24//109
f 79//110 23//110 24//110
f 12//111 80//111 79//111
f 80//112 81//112 79//112
f 79//113 81//113 23//113
f 81//114 22//114 23//114
f 13//115 82//115 80//115
f 82//116 83//116 80//116
f 80//117 83//117 81//117
f 83//118 84//118 81//118
f 81//119 84//119 22//119
f 84//120 21//120 22//120
f 14//121 85//121 82//121
f 85//122 86//122 82//122
f 82//123 86//123 83//123
f 86//124 87//124 83//124
f 83//125 87//125 84//125
f 87//126 88//126 84//126
f 84//127 88//127 21//127
f 88//128 20//128 21//128
f 15//129 89//129 85//129
f 89//130 90//130 85//130
f 85//131 90//131 86//131
f 90//132 91//132 86//132
f 86//133 91//133 87//133
f 91//134 92//134 87//134
f 87//135 92//135 88//135
f 92//136 93//136 88//136
f 88//137 93//137 20//137
f 93//138 19//138 20//138
f 16//139 94//139 89//139
f 94//140 95//140 89//140
f 89//141 95//141 90//141
f 95//142 96//142 90//142
f 90//143 96//143 91//143
f 96//144 97//144 91//144
f 91//145 97//145 92//145
f 97//146 98//146 92//146
f 92//147 98//147 93//147
f 98//148 99//148 93//148
f 93//149 99//149 19//149
f 99//150 18//150 19//150
f 17//151 10//151 94//151
f 10//152 9//152 94//152
f 94//153 9//153 95//153
f 9//154 8//154 95//154
f 95//155 8//155 96//155
f 8//156 7//156 96//156
f 96//157 7//157 97//157
f 7//158 6//158 97//158
f 97//159 6//159 98//159
f 6//160 5//160 98//160
f 98//161 5//161 99//161
f 5//162 4//162 99//162
f 99//163 4//163 18//163
f 4//164 2//164 18//164
f 5//165 100//165 4//165
f 6//166 101//166 5//166
f 7//167 102//167 6//167
f 8//168 103//168 7//168
f 9//169 104//169 8//169
f 10//170 105//170 9//170
f 5//171 101//171 100//171
f 6//172 102//172 101//172
f 7//173 103//173 102//173
f 8//174 104//174 103//174
f 9//175 105//175 104//175
