# Blender v2.78 (sub 0) OBJ File: 'socket_bottom.blend'
# www.blender.org
mtllib socket_bottom.mtl
o Icosphere
v 0.000000 -4.846653 0.000000
v -0.972625 -3.685526 2.993484
v -0.762220 -3.991157 2.345911
v -0.564960 -4.320997 1.738798
v -0.376231 -4.691234 1.157940
v -0.178721 -4.812021 0.550057
v 0.467908 -4.812020 0.339951
v 0.985006 -4.691233 0.715640
v 1.528045 -4.463478 1.110176
v 1.995557 -3.991156 1.449840
v 2.546417 -3.685525 1.850059
v 2.859911 -3.084991 2.077823
v 3.272751 -2.669341 2.377765
v 3.094031 -2.311888 2.927830
v 2.577859 -2.434533 3.304200
v 0.467908 -4.812020 -0.339951
v 0.953298 -4.541490 -0.692603
v 1.479114 -4.320996 -1.074627
v 2.061391 -4.122826 -1.497671
v 2.465199 -3.567708 -1.791051
v 3.026622 -3.279476 -2.200617
v 3.363359 -2.744727 -2.431376
v -3.535048 -3.084971 0.000000
v -3.047161 -3.567691 0.000000
v -2.538424 -4.098634 -0.007904
v -1.828296 -4.320989 0.000000
v -1.250698 -4.816401 0.000000
v -0.578370 -4.812019 0.000000
v -2.326316 -2.427277 3.455301
v -2.861421 -2.518198 2.993492
v -0.972625 -3.685526 -2.993484
v -0.774467 -4.103397 -2.409307
v -0.604254 -4.574478 -1.859734
v -0.376231 -4.691234 -1.157940
v -0.188514 -4.785944 -0.547996
v -2.944038 -2.586048 -3.066550
v -2.345894 -2.434533 -3.472733
v 2.495795 -2.356732 -3.198503
v 3.094031 -2.311888 -2.927830
v 2.796300 -2.842187 -2.755488
v 2.331901 -3.268171 -2.427943
v 2.276054 -3.055129 -3.200720
v 1.873332 -3.746697 -2.113408
v 1.753205 -3.507260 -2.848762
v 1.400097 -4.278774 -1.794954
v 1.227845 -3.973789 -2.488262
v 1.018176 -3.554442 -3.133576
v 0.844028 -4.571229 -1.371687
v 0.648401 -4.196542 -1.995551
v 0.469238 -3.973787 -2.734754
v 0.256118 -3.507257 -3.335206
v 0.307887 -4.743137 -0.947572
v 0.123435 -4.571227 -1.605830
v -0.079043 -4.251956 -2.270895
v -0.273303 -3.746692 -2.810910
v -1.796076 -2.922023 -3.604893
v -1.588522 -3.268172 -2.968040
v -2.285766 -2.977898 -3.065524
v -1.478672 -3.870342 -2.514761
v -2.167577 -3.507259 -2.547702
v -2.711111 -2.955607 -2.434723
v -1.268428 -4.256138 -1.876635
v -1.987064 -3.973788 -1.936655
v -2.665591 -3.554439 -1.936656
v -3.153348 -2.955602 -1.826039
v -1.043737 -4.571229 -1.226588
v -1.697523 -4.196541 -1.233316
v -2.525943 -4.079203 -1.318726
v -2.994324 -3.395079 -1.233317
v -3.707891 -3.065402 -1.267856
v -0.779779 -4.591795 -0.566539
v -1.489097 -4.571226 -0.613615
v -2.187763 -4.278767 -0.629200
v -2.757802 -3.746685 -0.608678
v -3.422670 -3.376217 -0.613615
v -3.313670 -3.268155 0.593607
v -3.506545 -2.882408 1.187214
v -2.848632 -3.870329 0.629203
v -3.092839 -3.507248 1.274204
v -3.153348 -2.955601 1.826042
v -2.187762 -4.278766 0.629204
v -2.377508 -3.846914 1.249928
v -2.665590 -3.554436 1.936662
v -2.711110 -2.955605 2.434726
v -1.489097 -4.571225 0.613620
v -1.753793 -4.334818 1.274207
v -1.976825 -3.953027 1.926445
v -2.098252 -3.395084 2.466648
v -2.285766 -2.977894 3.065528
v -0.779779 -4.591795 0.566545
v -1.043739 -4.571226 1.226598
v -1.233317 -4.142233 1.826047
v -1.478674 -3.870335 2.514772
v -1.588523 -3.268165 2.968047
v -1.700176 -2.750998 3.399268
v 3.129669 -3.376231 -1.515344
v 3.147383 -3.395084 -0.762226
v 2.588876 -3.746695 -1.128543
v 3.189759 -3.440792 0.000002
v 2.745910 -3.973784 -0.398817
v 2.195678 -4.391823 -0.806221
v 3.251117 -3.507252 0.787062
v 2.658133 -3.846915 0.386248
v 2.167807 -4.334819 0.000004
v 1.591144 -4.696746 -0.397482
v 3.029729 -3.268162 1.467469
v 2.588882 -3.746689 1.128549
v 2.139774 -4.278768 0.776890
v 1.599980 -4.695894 0.384060
v 0.992817 -4.717690 -0.008925
v -0.277308 -3.855176 2.881498
v 0.256124 -3.507261 3.335201
v -0.077630 -4.278775 2.275105
v 0.454080 -3.846921 2.647379
v 0.985708 -3.440798 3.033628
v 0.119215 -4.425408 1.554078
v 0.648410 -4.196542 1.995547
v 1.227854 -3.973787 2.488260
v 1.741378 -3.484327 2.840739
v 2.139036 -2.882418 3.021555
v 0.297856 -4.591796 0.916680
v 0.817041 -4.425406 1.327340
v 1.355564 -4.142233 1.737227
v 1.934762 -3.870335 2.183402
v 2.408328 -3.376228 2.508202
v 2.707520 -2.750998 2.667388
vn 0.0228 -0.9973 0.0702
vn -0.0597 -0.9973 0.0434
vn -0.0595 -0.9942 -0.0897
vn -0.0051 -0.9941 -0.1084
vn 0.4762 -0.5837 -0.6577
vn 0.1309 -0.8863 -0.4442
vn 0.5032 -0.6605 -0.5572
vn 0.2649 -0.9605 -0.0854
vn 0.3745 -0.9270 -0.0197
vn 0.3630 -0.9104 -0.1988
vn 0.4919 -0.5063 -0.7083
vn 0.3919 -0.4759 -0.7873
vn 0.2031 -0.7263 -0.6567
vn 0.5474 -0.7958 -0.2590
vn 0.6842 -0.2130 -0.6975
vn 0.4752 -0.7537 -0.4539
vn 0.5587 -0.7575 -0.3379
vn 0.5247 -0.8102 -0.2613
vn 0.4208 -0.7113 -0.5630
vn 0.5171 -0.7287 -0.4490
vn 0.4821 -0.8068 -0.3415
vn 0.2757 -0.7626 -0.5852
vn 0.4040 -0.9095 -0.0976
vn 0.0472 -0.8497 -0.5251
vn 0.0078 -0.9146 -0.4043
vn 0.1005 -0.9456 -0.3093
vn 0.1876 -0.7947 -0.5773
vn 0.1209 -0.7626 -0.6354
vn 0.3006 -0.9537 -0.0066
vn 0.0894 -0.9573 -0.2750
vn 0.1777 -0.8180 -0.5470
vn 0.2456 -0.8426 -0.4793
vn 0.1938 -0.9253 -0.3258
vn -0.1632 -0.7490 -0.6421
vn -0.1894 -0.8068 -0.5597
vn -0.0041 -0.9937 -0.1116
vn -0.0307 -0.9891 -0.1441
vn 0.0047 -0.9672 -0.2539
vn 0.0691 -0.9802 -0.1855
vn 0.1670 -0.8680 -0.4676
vn -0.0350 -0.7641 -0.6441
vn -0.0217 -0.7339 -0.6789
vn 0.0867 -0.7961 -0.5989
vn -0.1952 -0.8278 -0.5259
vn -0.3513 -0.7618 -0.5442
vn -0.1650 -0.9802 -0.1095
vn -0.3101 -0.9493 -0.0520
vn -0.3116 -0.8738 -0.3734
vn -0.6053 -0.5192 -0.6034
vn -0.3480 -0.5866 -0.7313
vn -0.4292 -0.5919 -0.6822
vn -0.2856 -0.6091 -0.7399
vn -0.1998 -0.7076 -0.6778
vn -0.6831 -0.5829 -0.4400
vn -0.4876 -0.8200 -0.2998
vn -0.2188 -0.8653 -0.4510
vn -0.3016 -0.8567 -0.4185
vn -0.3900 -0.7838 -0.4832
vn -0.4713 -0.7626 -0.4430
vn -0.6430 -0.5180 -0.5641
vn -0.7088 -0.4822 -0.5149
vn -0.4092 -0.8686 -0.2796
vn -0.4805 -0.8428 -0.2424
vn -0.3509 -0.9246 -0.1484
vn -0.1092 -0.9597 -0.2590
vn -0.4501 -0.7283 -0.5168
vn -0.8115 -0.5230 -0.2608
vn -0.7751 -0.5890 -0.2288
vn -0.3437 -0.7961 -0.4981
vn -0.1809 -0.9826 0.0417
vn -0.0276 -0.9994 -0.0201
vn -0.4653 -0.8180 -0.3381
vn -0.3468 -0.8497 -0.3971
vn -0.1140 -0.9679 -0.2242
vn -0.6751 -0.7279 0.1204
vn -0.8254 -0.5645 -0.0052
vn -0.4634 -0.8356 -0.2949
vn -0.3965 -0.8841 -0.2472
vn -0.2946 -0.9214 -0.2534
vn 0.0061 -0.9313 -0.3642
vn -0.0024 -0.9289 -0.3702
vn -0.6502 -0.7581 -0.0503
vn -0.3843 -0.9095 0.1585
vn -0.2982 -0.9485 0.1067
vn -0.6753 -0.7168 -0.1733
vn -0.7160 -0.6840 -0.1392
vn -0.4867 -0.8732 0.0254
vn -0.6885 -0.6959 0.2042
vn -0.7027 -0.7102 0.0429
vn -0.7189 -0.6873 -0.1037
vn -0.2961 -0.9493 -0.1054
vn -0.6502 -0.7581 0.0503
vn 0.0061 -0.9313 0.3642
vn -0.7893 -0.6123 -0.0454
vn -0.7920 -0.6091 0.0430
vn -0.8362 -0.5424 0.0808
vn -0.7934 -0.4718 0.3846
vn -0.5251 -0.8496 0.0488
vn -0.4828 -0.7812 0.3959
vn -0.3953 -0.8563 0.3324
vn -0.4143 -0.8870 0.2040
vn -0.7352 -0.5180 0.4372
vn -0.7088 -0.4822 0.5149
vn -0.3843 -0.9095 -0.1585
vn -0.3769 -0.9097 0.1745
vn -0.5891 -0.7365 0.3324
vn -0.6041 -0.7604 0.2385
vn -0.4929 -0.8557 0.1577
vn -0.3864 -0.6836 0.6192
vn -0.4571 -0.5890 0.6664
vn -0.5579 -0.7526 0.3496
vn -0.6051 -0.6977 0.3834
vn -0.5040 -0.5235 0.6870
vn -0.0024 -0.9289 0.3702
vn -0.0277 -0.9994 0.0201
vn -0.2955 -0.9309 0.2147
vn -0.2398 -0.8238 0.5137
vn -0.1609 -0.8748 0.4570
vn -0.1973 -0.9338 0.2984
vn -0.5366 -0.6443 0.5449
vn -0.4942 -0.5786 0.6489
vn -0.2758 -0.8271 0.4898
vn -0.1683 -0.6524 0.7389
vn -0.2262 -0.5738 0.7871
vn -0.3283 -0.9139 0.2385
vn -0.3412 -0.9370 0.0753
vn -0.1810 -0.9826 -0.0417
vn -0.1009 -0.8535 0.5112
vn -0.1499 -0.8258 0.5436
vn -0.1822 -0.8876 0.4230
vn -0.0773 -0.9365 0.3422
vn -0.0566 -0.9099 0.4110
vn -0.4292 -0.5919 0.6822
vn 0.3411 -0.9223 -0.1815
vn 0.5483 -0.8356 -0.0338
vn 0.3788 -0.8732 -0.3066
vn 0.6854 -0.6605 -0.3064
vn 0.7947 -0.6017 -0.0803
vn 0.6525 -0.6723 -0.3496
vn 0.7160 -0.6079 -0.3433
vn 0.6975 -0.6117 -0.3734
vn 0.0469 -0.9278 -0.3701
vn 0.5502 -0.8274 -0.1128
vn 0.6796 -0.7084 0.1905
vn 0.6119 -0.7672 0.1924
vn 0.5661 -0.8207 0.0776
vn 0.4907 -0.8678 0.0783
vn 0.1003 -0.8629 -0.4954
vn 0.0126 -0.8734 -0.4868
vn 0.4940 -0.7574 0.4269
vn 0.4073 -0.8993 0.1594
vn 0.7000 -0.6961 0.1593
vn 0.6719 -0.7365 0.0774
vn 0.5726 -0.8159 0.0795
vn 0.5341 -0.8454 -0.0051
vn 0.0354 -0.9994 0.0007
vn -0.1228 -0.9627 -0.2410
vn 0.3238 -0.9115 -0.2536
vn 0.7576 -0.5365 0.3718
vn 0.6949 -0.7119 0.1013
vn 0.4254 -0.8993 0.1013
vn 0.5323 -0.7312 0.4266
vn 0.4676 -0.7722 0.4302
vn 0.4270 -0.8481 0.3138
vn 0.1630 -0.9349 0.3154
vn 0.0122 -0.9993 0.0366
vn 0.2011 -0.9788 0.0379
vn 0.1769 -0.9842 0.0000
vn 0.0738 -0.9973 0.0000
vn -0.1616 -0.9117 0.3778
vn -0.3279 -0.8707 0.3665
vn 0.0179 -0.8405 0.5415
vn 0.2318 -0.9370 0.2615
vn -0.2974 -0.8259 0.4790
vn 0.2023 -0.7703 0.6047
vn 0.1615 -0.8656 0.4739
vn 0.2772 -0.8274 0.4884
vn -0.1033 -0.9798 0.1710
vn 0.2028 -0.9473 0.2480
vn 0.2906 -0.8044 0.5181
vn -0.0507 -0.8863 0.4603
vn 0.0289 -0.7084 0.7052
vn 0.1459 -0.6744 0.7238
vn 0.2460 -0.9188 0.3088
vn 0.0893 -0.9573 0.2749
vn 0.1129 -0.9309 0.3473
vn 0.2023 -0.9097 0.3626
vn 0.1619 -0.9566 0.2421
vn 0.2456 -0.9361 0.2517
vn 0.3479 -0.7602 0.5487
vn 0.3932 -0.7377 0.5489
vn 0.4478 -0.5154 0.7307
vn 0.5457 -0.4423 0.7117
vn 0.4653 -0.7513 0.4681
vn 0.5103 -0.7242 0.4638
vn 0.1254 -0.9139 0.3860
vn -0.0338 -0.9370 0.3478
vn -0.0175 -0.9188 0.3944
vn 0.0783 -0.9063 0.4154
vn 0.0983 -0.8745 0.4750
vn 0.4059 -0.7633 0.5027
vn 0.3015 -0.9365 0.1792
vn 0.3734 -0.9099 0.1808
vn 0.4751 -0.7538 0.4539
vn 0.7367 -0.5393 0.4080
vn 0.7479 -0.4758 0.4629
vn 0.3804 -0.7591 0.5283
vn 0.4023 -0.7024 0.5872
usemtl None
s off
f 1//1 7//1 6//1
f 1//2 6//2 28//2
f 1//3 28//3 35//3
f 1//4 35//4 16//4
f 21//5 40//5 22//5
f 20//6 41//6 21//6
f 19//7 43//7 20//7
f 18//8 45//8 19//8
f 17//9 48//9 18//9
f 16//10 52//10 17//10
f 22//11 40//11 39//11
f 40//12 38//12 39//12
f 21//13 41//13 40//13
f 41//14 42//14 40//14
f 40//15 42//15 38//15
f 20//16 43//16 41//16
f 43//17 44//17 41//17
f 41//18 44//18 42//18
f 19//19 45//19 43//19
f 45//20 46//20 43//20
f 43//21 46//21 44//21
f 46//22 47//22 44//22
f 18//23 48//23 45//23
f 48//24 49//24 45//24
f 45//25 49//25 46//25
f 49//26 50//26 46//26
f 46//27 50//27 47//27
f 50//28 51//28 47//28
f 17//29 52//29 48//29
f 52//30 53//30 48//30
f 48//31 53//31 49//31
f 53//32 54//32 49//32
f 49//33 54//33 50//33
f 54//34 55//34 50//34
f 50//35 55//35 51//35
f 16//36 35//36 52//36
f 35//37 34//37 52//37
f 52//38 34//38 53//38
f 34//39 33//39 53//39
f 53//40 33//40 54//40
f 33//41 32//41 54//41
f 54//42 32//42 55//42
f 32//43 31//43 55//43
f 32//44 59//44 31//44
f 33//45 62//45 32//45
f 34//46 66//46 33//46
f 35//47 71//47 34//47
f 57//48 58//48 56//48
f 56//49 58//49 37//49
f 58//50 36//50 37//50
f 31//51 59//51 57//51
f 59//52 60//52 57//52
f 57//53 60//53 58//53
f 60//54 61//54 58//54
f 58//55 61//55 36//55
f 32//56 62//56 59//56
f 62//57 63//57 59//57
f 59//58 63//58 60//58
f 63//59 64//59 60//59
f 60//60 64//60 61//60
f 64//61 65//61 61//61
f 33//62 66//62 62//62
f 66//63 67//63 62//63
f 62//64 67//64 63//64
f 67//65 68//65 63//65
f 63//66 68//66 64//66
f 68//67 69//67 64//67
f 64//68 69//68 65//68
f 69//69 70//69 65//69
f 34//70 71//70 66//70
f 71//71 72//71 66//71
f 66//72 72//72 67//72
f 72//73 73//73 67//73
f 67//74 73//74 68//74
f 73//75 74//75 68//75
f 68//76 74//76 69//76
f 74//77 75//77 69//77
f 69//78 75//78 70//78
f 35//79 28//79 71//79
f 28//80 27//80 71//80
f 71//81 27//81 72//81
f 27//82 26//82 72//82
f 72//83 26//83 73//83
f 26//84 25//84 73//84
f 73//85 25//85 74//85
f 25//86 24//86 74//86
f 74//87 24//87 75//87
f 24//88 23//88 75//88
f 24//89 76//89 23//89
f 25//90 78//90 24//90
f 26//91 81//91 25//91
f 27//92 85//92 26//92
f 28//93 90//93 27//93
f 24//94 78//94 76//94
f 78//95 79//95 76//95
f 76//96 79//96 77//96
f 79//97 80//97 77//97
f 25//98 81//98 78//98
f 81//99 82//99 78//99
f 78//100 82//100 79//100
f 82//101 83//101 79//101
f 79//102 83//102 80//102
f 83//103 84//103 80//103
f 26//104 85//104 81//104
f 85//105 86//105 81//105
f 81//106 86//106 82//106
f 86//107 87//107 82//107
f 82//108 87//108 83//108
f 87//109 88//109 83//109
f 83//110 88//110 84//110
f 88//111 89//111 84//111
f 84//112 89//112 30//112
f 89//113 29//113 30//113
f 27//114 90//114 85//114
f 90//115 91//115 85//115
f 85//116 91//116 86//116
f 91//117 92//117 86//117
f 86//118 92//118 87//118
f 92//119 93//119 87//119
f 87//120 93//120 88//120
f 93//121 94//121 88//121
f 88//122 94//122 89//122
f 94//123 95//123 89//123
f 89//124 95//124 29//124
f 28//125 6//125 90//125
f 6//126 5//126 90//126
f 90//127 5//127 91//127
f 5//128 4//128 91//128
f 91//129 4//129 92//129
f 4//130 3//130 92//130
f 92//131 3//131 93//131
f 3//132 2//132 93//132
f 93//133 2//133 94//133
f 96//134 20//134 21//134
f 97//135 98//135 96//135
f 96//136 98//136 20//136
f 98//137 19//137 20//137
f 99//138 100//138 97//138
f 97//139 100//139 98//139
f 100//140 101//140 98//140
f 98//141 101//141 19//141
f 101//142 18//142 19//142
f 102//143 103//143 99//143
f 99//144 103//144 100//144
f 103//145 104//145 100//145
f 100//146 104//146 101//146
f 104//147 105//147 101//147
f 101//148 105//148 18//148
f 105//149 17//149 18//149
f 106//150 107//150 102//150
f 102//151 107//151 103//151
f 107//152 108//152 103//152
f 103//153 108//153 104//153
f 108//154 109//154 104//154
f 104//155 109//155 105//155
f 109//156 110//156 105//156
f 105//157 110//157 17//157
f 110//158 16//158 17//158
f 12//159 11//159 106//159
f 106//160 11//160 107//160
f 11//161 10//161 107//161
f 107//162 10//162 108//162
f 10//163 9//163 108//163
f 108//164 9//164 109//164
f 9//165 8//165 109//165
f 109//166 8//166 110//166
f 8//167 7//167 110//167
f 110//168 7//168 16//168
f 7//169 1//169 16//169
f 3//170 111//170 2//170
f 4//171 113//171 3//171
f 5//172 116//172 4//172
f 6//173 121//173 5//173
f 3//174 113//174 111//174
f 113//175 114//175 111//175
f 111//176 114//176 112//176
f 114//177 115//177 112//177
f 4//178 116//178 113//178
f 116//179 117//179 113//179
f 113//180 117//180 114//180
f 117//181 118//181 114//181
f 114//182 118//182 115//182
f 118//183 119//183 115//183
f 5//184 121//184 116//184
f 121//185 122//185 116//185
f 116//186 122//186 117//186
f 122//187 123//187 117//187
f 117//188 123//188 118//188
f 123//189 124//189 118//189
f 118//190 124//190 119//190
f 124//191 125//191 119//191
f 119//192 125//192 120//192
f 125//193 126//193 120//193
f 120//194 126//194 15//194
f 126//195 14//195 15//195
f 6//196 7//196 121//196
f 7//197 8//197 121//197
f 121//198 8//198 122//198
f 8//199 9//199 122//199
f 122//200 9//200 123//200
f 9//201 10//201 123//201
f 123//202 10//202 124//202
f 10//203 11//203 124//203
f 124//204 11//204 125//204
f 11//205 12//205 125//205
f 125//206 12//206 126//206
f 12//207 13//207 126//207
f 126//208 13//208 14//208
