# Blender v2.78 (sub 0) OBJ File: 'socket_left.blend'
# www.blender.org
mtllib socket_left.mtl
o Icosphere
v -4.457031 -2.208780 0.012832
v -3.594766 2.227685 2.621876
v -3.589731 2.218604 -2.633594
v -4.045339 -2.669321 -0.000000
v -3.535048 -3.084971 0.000000
v -3.228893 -2.466684 2.345918
v -3.710060 -2.511665 1.780223
v -3.899179 -2.356718 1.120668
v -4.089266 -2.237944 0.532094
v -4.224066 -2.311871 -0.550058
v -4.135206 -2.499601 -1.189131
v -3.731217 -2.518190 -1.796325
v -3.335415 -2.548061 -2.423312
v -3.851130 1.733510 2.377768
v -4.286534 1.257764 2.189878
v -4.559023 0.638588 1.886877
v -4.462236 -0.000000 1.449846
v -4.526297 -0.609439 1.074631
v -4.636475 -1.216966 0.715643
v -4.369009 -1.678458 0.328850
v -3.317707 1.201656 3.284857
v -3.341314 1.678475 2.834070
v -3.341314 1.678475 -2.834070
v -3.330342 1.216978 -3.304214
v -4.369009 -1.678458 -0.328850
v -4.488360 -1.178360 -0.692606
v -4.526297 -0.609439 -1.074631
v -4.730912 -0.007888 -1.541851
v -4.293519 0.609441 -1.791057
v -4.038278 1.178366 -2.077828
v -3.851130 1.733510 -2.377768
v -3.841537 2.383066 2.076855
v -3.813217 2.356727 1.385216
v -3.944324 2.437757 0.716421
v -4.122795 2.548060 -0.000000
v -4.053158 2.505018 -0.736374
v -3.939099 2.434528 -1.430599
v -3.847283 2.366160 -2.087339
v -3.484750 2.842184 -1.807912
v -3.637907 2.958972 -1.116427
v -3.723978 3.037748 -0.386658
v -3.723978 3.037748 0.386658
v -3.636113 2.955281 1.134795
v -3.373525 2.750999 1.750700
v -3.969235 1.787127 -1.750703
v -4.278061 1.248334 -1.467470
v -4.274260 1.923198 -1.130217
v -4.657768 0.661235 -1.165333
v -4.710507 1.382094 -0.812448
v -4.378792 1.978999 -0.390907
v -4.783982 0.000359 -0.776888
v -4.629536 0.657137 -0.386245
v -4.652675 1.357446 0.000000
v -4.264448 1.920046 0.376183
v -4.762735 -0.648479 -0.372390
v -4.691866 0.000003 0.000002
v -4.629534 0.657139 0.386247
v -4.590914 1.339433 0.787062
v -4.158849 1.872502 1.100602
v -4.538078 -1.191409 0.000002
v -4.635671 -0.624160 0.366870
v -4.911734 -0.000077 0.798023
v -4.508920 0.640022 1.128552
v -4.278059 1.248340 1.467472
v -3.969233 1.787130 1.750704
v -3.792654 1.230054 -2.755499
v -3.534702 0.624170 -3.021573
v -3.965987 0.624169 -2.427956
v -3.304447 -0.000000 -3.330801
v -3.921031 -0.000370 -2.848781
v -4.326979 -0.000359 -2.183413
v -3.634511 -0.678917 -3.133600
v -3.972409 -0.657139 -2.408681
v -4.311149 -0.640016 -1.737235
v -3.251495 -1.339436 -3.335227
v -3.749577 -1.357123 -2.708643
v -4.043465 -1.296815 -1.995563
v -4.588240 -1.308823 -1.410015
v -3.228889 -1.920051 -2.810924
v -3.671127 -1.920048 -2.202238
v -4.143819 -1.933930 -1.605837
v -4.502516 -1.885987 -0.960304
v -3.792655 1.230054 2.755499
v -4.096818 0.644196 2.508213
v -3.534702 0.624170 3.021573
v -4.188921 -0.000000 2.113421
v -3.921031 -0.000370 2.848781
v -3.304447 0.000000 3.330801
v -4.311149 -0.640016 1.737235
v -4.103363 -0.678916 2.488279
v -3.518342 -0.657140 3.033653
v -4.582237 -1.324634 1.416808
v -4.043465 -1.296815 1.995563
v -3.764093 -1.357450 2.734772
v -3.147393 -1.296819 3.228899
v -4.350983 -1.850476 0.938733
v -4.011504 -1.872498 1.554091
v -3.792307 -1.982991 2.275125
v -3.335654 -1.982994 2.903651
v -3.707891 -3.065402 -1.267856
v -3.881900 -2.842168 -0.585631
v -3.758288 -2.750984 0.566541
v -3.506545 -2.882408 1.187214
vn -0.8049 -0.1994 0.5589
vn -0.9865 0.1637 0.0000
vn -0.7329 0.6585 -0.1710
vn -0.7572 0.5956 -0.2683
vn -0.7983 0.5718 -0.1892
vn -0.7907 0.5917 -0.1571
vn -0.8115 0.5738 -0.1103
vn -0.7754 0.6315 0.0000
vn -0.8407 0.4630 0.2807
vn -0.8982 0.4129 0.1510
vn -0.9061 0.3607 0.2213
vn -0.7729 0.4256 0.4707
vn -0.6407 0.7658 -0.0554
vn -0.8587 0.2181 -0.4638
vn -0.9562 0.2151 -0.1985
vn -0.9007 0.2134 -0.3783
vn -0.7919 0.3629 -0.4911
vn -0.9297 -0.3633 -0.0606
vn -0.9063 -0.2756 -0.3205
vn -0.9565 -0.2821 -0.0740
vn -0.9769 0.0941 -0.1920
vn -0.9815 0.1197 -0.1497
vn -0.8748 0.3025 -0.3784
vn -0.8494 0.2397 -0.4701
vn -0.8385 0.2724 -0.4719
vn -0.8685 0.4581 -0.1892
vn -0.8213 0.2735 -0.5007
vn -0.7928 0.2202 -0.5684
vn -0.7710 0.2881 -0.5679
vn -0.8119 0.5622 -0.1572
vn -0.8827 0.4425 -0.1582
vn -0.8759 0.4698 -0.1103
vn -0.9866 0.1473 -0.0700
vn -0.9774 0.2081 0.0365
vn -0.9953 -0.0902 0.0356
vn -0.9951 -0.0708 0.0687
vn -0.8936 0.4422 0.0770
vn -0.8599 0.4829 0.1653
vn -0.9369 0.3092 0.1634
vn -0.8880 0.3666 0.2777
vn -0.9182 -0.2308 -0.3220
vn -0.9922 0.0409 0.1177
vn -0.9800 0.1613 0.1163
vn -0.9955 0.0944 0.0000
vn -0.9995 -0.0330 0.0000
vn -0.9969 0.0103 0.0785
vn -0.8443 0.5302 0.0784
vn -0.8101 0.5653 0.1552
vn -0.8829 0.4423 0.1577
vn -0.8507 0.4754 0.2244
vn -0.9029 -0.4236 -0.0728
vn -0.9463 -0.2738 0.1717
vn -0.9856 0.0106 0.1690
vn -0.9368 -0.2361 -0.2581
vn -0.9358 0.2403 -0.2578
vn -0.8700 0.4689 0.1522
vn -0.9865 -0.0378 0.1594
vn -0.8984 0.1031 0.4269
vn -0.8089 0.4050 0.4262
vn -0.8866 0.3482 0.3043
vn -0.8508 0.4284 0.3044
vn -0.9709 0.2347 -0.0487
vn -0.9447 -0.3279 0.0000
vn -0.9028 -0.4070 -0.1387
vn -0.9871 -0.0802 -0.1386
vn -0.9846 0.0898 0.1503
vn -0.8645 -0.4816 0.1436
vn -0.7961 -0.2544 0.5491
vn -0.8032 0.2194 0.5538
vn -0.9923 -0.1054 -0.0658
vn -0.9217 0.3833 -0.0602
vn -0.9123 0.4093 -0.0160
vn -0.8637 0.5038 -0.0167
vn -0.7607 0.6187 0.1962
vn -0.9758 0.1037 0.1926
vn -0.8625 0.2231 0.4541
vn -0.6685 -0.0317 -0.7431
vn -0.6355 0.5435 -0.5484
vn -0.5678 0.4508 -0.6888
vn -0.9345 0.1377 -0.3282
vn -0.7645 -0.0431 -0.6431
vn -0.8060 -0.0860 -0.5856
vn -0.9386 0.0882 -0.3335
vn -0.8782 0.1683 -0.4477
vn -0.6079 0.1609 -0.7775
vn -0.7665 0.3201 -0.5569
vn -0.8200 0.2781 -0.5003
vn -0.8452 0.3212 -0.4272
vn -0.7910 0.3611 -0.4938
vn -0.6144 0.0704 -0.7859
vn -0.8896 -0.2042 -0.4085
vn -0.8216 -0.2716 -0.5012
vn -0.8506 -0.3148 -0.4211
vn -0.7852 -0.3673 -0.4987
vn -0.8404 -0.4806 -0.2507
vn -0.7540 -0.2521 -0.6065
vn -0.9023 -0.1084 -0.4173
vn -0.9200 -0.1353 -0.3677
vn -0.8792 -0.1857 -0.4388
vn -0.7315 -0.0302 -0.6812
vn -0.9224 0.2304 -0.3101
vn -0.9907 0.0237 0.1336
vn -0.6637 -0.5154 -0.5421
vn -0.6809 -0.5400 -0.4947
vn -0.8565 -0.4060 -0.3187
vn -0.7558 -0.2509 -0.6048
vn -0.6975 -0.2907 -0.6549
vn -0.7988 -0.4391 -0.4113
vn -0.9890 -0.0347 0.1440
vn -0.9716 -0.0665 0.2273
vn -0.7892 -0.2200 -0.5734
vn -0.8218 -0.2611 -0.5064
vn -0.7368 -0.3274 -0.5916
vn -0.7745 -0.3828 -0.5036
vn -0.8338 -0.3356 -0.4384
vn -0.8517 -0.5229 0.0352
vn -0.9047 -0.3093 0.2929
vn -0.9261 -0.0834 -0.3680
vn -0.6680 -0.0209 0.7438
vn -0.6861 0.3839 0.6179
vn -0.8011 0.0612 0.5954
vn -0.8583 -0.3720 0.3535
vn -0.9487 -0.0874 0.3040
vn -0.9878 0.1229 0.0953
vn -0.8942 -0.4371 -0.0968
vn -0.5678 0.4508 0.6888
vn -0.6207 0.5222 0.5849
vn -0.7460 0.1101 0.6568
vn -0.6731 0.0377 0.7385
vn -0.7448 -0.0242 0.6669
vn -0.7769 -0.2445 0.5802
vn -0.9369 -0.0752 0.3413
vn -0.6561 0.2049 0.7264
vn -0.6079 0.1609 0.7775
vn -0.9236 -0.0472 0.3804
vn -0.9631 0.0265 0.2678
vn -0.9372 0.0704 0.3415
vn -0.6634 -0.2042 0.7198
vn -0.6085 -0.1540 0.7785
vn -0.9246 0.2208 0.3104
vn -0.7309 -0.0297 0.6818
vn -0.9281 -0.2830 0.2421
vn -0.8907 -0.3330 0.3093
vn -0.6786 -0.0738 0.7308
vn -0.6139 -0.1177 0.7806
vn -0.9127 -0.4085 0.0079
vn -0.6900 -0.6290 0.3581
vn -0.6228 -0.4976 0.6037
vn -0.9380 -0.2423 0.2480
vn -0.9215 -0.2022 0.3317
vn -0.7523 -0.3677 0.5466
vn -0.6002 -0.2022 0.7739
vn -0.8728 -0.4758 -0.1084
vn -0.7615 -0.6375 0.1173
vn -0.7513 -0.5283 0.3956
vn -0.9129 -0.3686 0.1752
vn -0.9098 -0.3502 0.2229
vn -0.5845 -0.6011 0.5450
vn -0.6145 -0.6504 0.4465
vn -0.7335 -0.4881 -0.4731
vn -0.7984 -0.6021 -0.0066
vn -0.8382 -0.5437 0.0432
vn -0.6307 -0.7743 0.0525
vn -0.8402 -0.5370 -0.0760
vn -0.7352 -0.6521 -0.1849
vn -0.6646 -0.6063 0.4367
vn -0.6183 -0.7591 0.2039
vn -0.8019 -0.4948 0.3350
vn -0.8340 -0.5271 0.1630
vn -0.7967 -0.5694 0.2026
vn -0.8033 -0.5883 0.0921
usemtl None
s off
f 1//1 9//1 20//1
f 1//2 20//2 25//2
f 38//3 37//3 39//3
f 39//4 37//4 40//4
f 37//5 36//5 40//5
f 40//6 36//6 41//6
f 36//7 35//7 41//7
f 41//8 35//8 42//8
f 35//9 34//9 42//9
f 42//10 34//10 43//10
f 34//11 33//11 43//11
f 43//12 33//12 44//12
f 33//13 32//13 44//13
f 31//14 38//14 3//14
f 30//15 45//15 31//15
f 29//16 46//16 30//16
f 28//17 48//17 29//17
f 27//18 51//18 28//18
f 26//19 55//19 27//19
f 25//20 60//20 26//20
f 31//21 45//21 38//21
f 45//22 37//22 38//22
f 30//23 46//23 45//23
f 46//24 47//24 45//24
f 45//25 47//25 37//25
f 47//26 36//26 37//26
f 29//27 48//27 46//27
f 48//28 49//28 46//28
f 46//29 49//29 47//29
f 49//30 50//30 47//30
f 47//31 50//31 36//31
f 50//32 35//32 36//32
f 28//33 51//33 48//33
f 51//34 52//34 48//34
f 48//35 52//35 49//35
f 52//36 53//36 49//36
f 49//37 53//37 50//37
f 53//38 54//38 50//38
f 50//39 54//39 35//39
f 54//40 34//40 35//40
f 27//41 55//41 51//41
f 55//42 56//42 51//42
f 51//43 56//43 52//43
f 56//44 57//44 52//44
f 52//45 57//45 53//45
f 57//46 58//46 53//46
f 53//47 58//47 54//47
f 58//48 59//48 54//48
f 54//49 59//49 34//49
f 59//50 33//50 34//50
f 26//51 60//51 55//51
f 60//52 61//52 55//52
f 55//53 61//53 56//53
f 61//54 62//54 56//54
f 56//55 62//55 57//55
f 62//56 63//56 57//56
f 57//57 63//57 58//57
f 63//58 64//58 58//58
f 58//59 64//59 59//59
f 64//60 65//60 59//60
f 59//61 65//61 33//61
f 65//62 32//62 33//62
f 25//63 20//63 60//63
f 20//64 19//64 60//64
f 60//65 19//65 61//65
f 19//66 18//66 61//66
f 61//67 18//67 62//67
f 18//68 17//68 62//68
f 62//69 17//69 63//69
f 17//70 16//70 63//70
f 63//71 16//71 64//71
f 16//72 15//72 64//72
f 64//73 15//73 65//73
f 15//74 14//74 65//74
f 65//75 14//75 32//75
f 14//76 2//76 32//76
f 23//77 31//77 3//77
f 24//78 66//78 23//78
f 23//79 66//79 31//79
f 66//80 30//80 31//80
f 24//81 67//81 66//81
f 67//82 68//82 66//82
f 66//83 68//83 30//83
f 68//84 29//84 30//84
f 69//85 70//85 67//85
f 67//86 70//86 68//86
f 70//87 71//87 68//87
f 68//88 71//88 29//88
f 71//89 28//89 29//89
f 69//90 72//90 70//90
f 72//91 73//91 70//91
f 70//92 73//92 71//92
f 73//93 74//93 71//93
f 71//94 74//94 28//94
f 74//95 27//95 28//95
f 75//96 76//96 72//96
f 72//97 76//97 73//97
f 76//98 77//98 73//98
f 73//99 77//99 74//99
f 77//100 78//100 74//100
f 74//101 78//101 27//101
f 78//102 26//102 27//102
f 75//103 79//103 76//103
f 79//104 80//104 76//104
f 76//105 80//105 77//105
f 80//106 81//106 77//106
f 77//107 81//107 78//107
f 81//108 82//108 78//108
f 78//109 82//109 26//109
f 82//110 25//110 26//110
f 79//111 13//111 80//111
f 13//112 12//112 80//112
f 80//113 12//113 81//113
f 12//114 11//114 81//114
f 81//115 11//115 82//115
f 11//116 10//116 82//116
f 82//117 10//117 25//117
f 10//118 1//118 25//118
f 14//119 22//119 2//119
f 15//120 83//120 14//120
f 16//121 84//121 15//121
f 17//122 86//122 16//122
f 18//123 89//123 17//123
f 19//124 92//124 18//124
f 20//125 96//125 19//125
f 14//126 83//126 22//126
f 83//127 21//127 22//127
f 15//128 84//128 83//128
f 84//129 85//129 83//129
f 83//130 85//130 21//130
f 16//131 86//131 84//131
f 86//132 87//132 84//132
f 84//133 87//133 85//133
f 87//134 88//134 85//134
f 17//135 89//135 86//135
f 89//136 90//136 86//136
f 86//137 90//137 87//137
f 90//138 91//138 87//138
f 87//139 91//139 88//139
f 18//140 92//140 89//140
f 92//141 93//141 89//141
f 89//142 93//142 90//142
f 93//143 94//143 90//143
f 90//144 94//144 91//144
f 94//145 95//145 91//145
f 19//146 96//146 92//146
f 96//147 97//147 92//147
f 92//148 97//148 93//148
f 97//149 98//149 93//149
f 93//150 98//150 94//150
f 98//151 99//151 94//151
f 94//152 99//152 95//152
f 20//153 9//153 96//153
f 9//154 8//154 96//154
f 96//155 8//155 97//155
f 8//156 7//156 97//156
f 97//157 7//157 98//157
f 7//158 6//158 98//158
f 98//159 6//159 99//159
f 100//160 11//160 12//160
f 100//161 101//161 11//161
f 101//162 10//162 11//162
f 5//163 4//163 101//163
f 101//164 4//164 10//164
f 4//165 1//165 10//165
f 4//166 9//166 1//166
f 5//167 102//167 4//167
f 4//168 102//168 9//168
f 102//169 8//169 9//169
f 102//170 103//170 8//170
f 103//171 7//171 8//171
