# Blender v2.79 (sub 0) OBJ File: 'socket_top_geyser.blend'
# www.blender.org
mtllib socket_top_geyser.mtl
o Icosphere
v 0.017799 4.819472 -0.012930
v 3.228892 2.466684 2.345919
v 2.861421 2.518198 2.993492
v -2.495795 2.356732 3.198503
v -3.094031 2.311888 2.927830
v -2.995534 2.237961 -2.834064
v -2.495795 2.356732 -3.198504
v 2.861421 2.518198 -2.993492
v 3.430521 2.602348 -2.492410
v 0.196754 4.940247 0.549670
v 0.376231 4.691233 1.157940
v 0.564960 4.320997 1.738798
v 0.787366 4.122827 2.423304
v 0.972625 3.685526 2.993484
v 3.147552 3.685508 -0.000000
v 2.534219 4.100468 0.015831
v 1.888777 4.463470 0.000000
v 1.178348 4.541488 0.000000
v 0.559482 4.658389 0.000000
v -0.467908 4.812020 0.339951
v -0.985006 4.691233 0.715640
v -1.479114 4.320996 1.074627
v -1.995557 3.991156 1.449840
v -2.546417 3.685525 1.850059
v -2.859911 3.084991 2.077823
v -3.253563 2.667741 2.351570
v -0.996191 4.662022 -0.712584
v -1.479114 4.320996 -1.074627
v -2.061391 4.122826 -1.497671
v -2.546417 3.685525 -1.850059
v -2.859911 3.084991 -2.077823
v -3.343837 2.749335 -2.450669
v 0.194331 4.785711 -0.541914
v 0.376979 4.669428 -1.135959
v 0.583649 4.463479 -1.796319
v 0.804248 4.225334 -2.500598
v 0.941603 3.567709 -2.898007
v 0.779777 4.591796 -0.566539
v 1.441188 4.425406 -0.593605
v 1.043735 4.571229 -1.226589
v 2.246393 4.392972 -0.646111
v 1.753788 4.334822 -1.274200
v 2.848629 3.870330 -0.629202
v 2.377503 3.846918 -1.249926
v 2.052469 4.076005 -1.981824
v 1.478668 3.870342 -2.514763
v 3.076735 3.488919 -1.267523
v 2.654101 3.540434 -1.912728
v 2.167570 3.507260 -2.547707
v 1.641232 3.376235 -3.065524
v 3.340183 3.145548 -1.923374
v 2.800411 3.053466 -2.514774
v 2.347779 3.050113 -3.153309
v -0.308577 4.871281 -0.966172
v -0.123438 4.571230 -1.605820
v -0.844029 4.571230 -1.371682
v 0.075421 4.385631 -2.348207
v -0.693975 4.446916 -2.121885
v -1.394291 4.258993 -1.777652
v 0.273299 3.746700 -2.810900
v -0.464694 3.948330 -2.727199
v -1.252719 4.080437 -2.557362
v -0.256120 3.507263 -3.335199
v -0.985703 3.440802 -3.033626
v -1.753206 3.507263 -2.848758
v -2.408322 3.376235 -2.508198
v -1.526328 3.053471 -3.440447
v -2.210371 2.953544 -3.102915
v -2.707517 2.751002 -2.667387
v -0.996337 4.743137 0.000000
v -1.557018 4.546327 -0.386059
v -1.514855 4.425408 0.366865
v -2.071096 4.142236 -0.752361
v -2.167802 4.334822 0.000000
v -2.195628 4.391808 0.806377
v -2.588875 3.746696 -1.128543
v -2.658127 3.846919 -0.386244
v -2.658127 3.846919 0.386244
v -2.588875 3.746696 1.128543
v -3.129669 3.376232 -1.515345
v -3.251113 3.507257 -0.787058
v -3.189756 3.440795 0.000000
v -3.338094 3.600765 0.808458
v -3.117863 3.352066 1.511726
v -0.307889 4.743138 0.947567
v -0.844029 4.571230 1.371682
v -0.112888 4.542665 1.608650
v -1.400098 4.278776 1.794950
v -0.673492 4.453164 2.114128
v 0.075530 4.142240 2.202216
v -1.986218 3.973948 2.241572
v -1.227846 3.973792 2.488255
v -0.469241 3.973793 2.734745
v 0.273299 3.746700 2.810900
v -2.472983 3.466428 2.574914
v -1.697534 3.395092 2.757778
v -1.045342 3.649521 3.217176
v -0.247681 3.395092 3.228871
v -2.796300 2.842187 2.755488
v -2.268332 3.057118 3.204785
v -1.526328 3.053471 3.440447
v 0.779777 4.591796 0.566539
v 1.043735 4.571229 1.226589
v 1.489095 4.571226 0.613615
v 1.800867 4.450497 1.308403
v 2.117790 4.142231 0.608679
v 1.478668 3.870342 2.514763
v 2.032568 4.083627 1.987953
v 2.523148 4.082576 1.311609
v 2.757799 3.746687 0.608680
v 1.641232 3.376235 3.065524
v 2.167570 3.507260 2.547707
v 2.665584 3.554441 1.936663
v 3.092835 3.507252 1.274205
v 2.352908 3.059104 3.140786
v 2.711103 2.955608 2.434731
v 3.153342 2.955604 1.826048
v -2.111627 4.224051 -1.750351
v -2.481683 3.889158 -2.019155
v -1.604111 4.318523 -1.958257
v -0.141909 5.081204 -0.110485
v -1.503448 4.197622 -2.558479
v -1.878317 3.747998 -2.773108
v -2.376640 3.653971 -2.519088
v -2.137135 4.260934 -1.630977
v -2.587176 3.855174 -1.957947
v -1.518151 4.387279 -1.890763
v -1.851178 3.689770 -2.884612
v -2.459042 3.568193 -2.568616
v -1.386791 4.221602 -2.614234
v -1.868186 3.750554 -2.119901
v -2.330239 3.613050 -1.871814
v -1.352003 3.921515 -2.411137
v -1.452667 4.042416 -1.810916
v -1.960183 3.947944 -1.603009
v -1.726872 3.471891 -2.625767
v -2.225195 3.377864 -2.371747
v -0.489720 5.078668 0.142179
v 0.913835 4.648112 -1.926448
v -0.855509 4.964539 -0.598673
v -0.017255 5.050736 -0.484091
v -0.368473 5.127614 -0.779524
v -0.857302 5.030361 -0.094328
v -0.073844 5.081445 -0.060602
v -0.486526 5.075114 0.239224
v 0.076146 5.052761 -0.510054
v -0.351150 5.125465 -0.870526
v -0.935383 4.947668 -0.655064
v -0.935507 5.016587 -0.049616
v -0.115724 4.784755 -0.108441
v -0.460341 4.778665 -0.336412
v -0.829323 4.668090 -0.596629
v 0.008930 4.754287 -0.482047
v -0.342288 4.831165 -0.777480
v -0.463535 4.782219 0.144222
v -0.831117 4.733912 -0.092284
v 1.058172 4.508265 -2.381155
v 1.208413 4.722435 -1.565259
v 0.800320 4.478861 1.860058
v 1.655670 4.566704 -1.593308
v 1.849799 4.415169 -2.049481
v 1.477371 4.264669 -2.381457
v 0.792520 4.683518 -1.911626
v 0.970153 4.491756 -2.478735
v 1.162996 4.770282 -1.452860
v 1.975262 4.371511 -2.061001
v 1.513219 4.205905 -2.490141
v 1.734754 4.579920 -1.491199
v 1.240901 4.148710 -1.837997
v 0.950296 4.122186 -2.235119
v 1.547794 4.180625 -1.447273
v 1.100537 4.336356 -1.419223
v 0.805959 4.262033 -1.780413
v 1.741923 4.029089 -1.903445
v 1.369495 3.878590 -2.235421
v 0.960562 4.347782 2.348165
v 1.142068 4.662350 1.499033
v 1.674543 4.576323 1.555821
v 1.443997 4.160562 2.409894
v 1.838392 4.317360 2.036708
v 0.719317 4.507935 1.853476
v 0.902039 4.345124 2.415848
v 1.112665 4.713520 1.432658
v 1.469995 4.137689 2.490989
v 1.925065 4.312919 2.058176
v 1.734705 4.614329 1.499875
v 0.919771 4.041698 2.208996
v 1.227626 4.054988 1.785980
v 1.633752 4.270239 1.416652
v 0.759529 4.172778 1.720888
v 1.101277 4.356266 1.359864
v 1.403205 3.854478 2.270725
v 1.797601 4.011277 1.897539
vn 0.2841 0.9582 0.0337
vn 0.1854 0.9817 -0.0433
vn 0.1080 0.9836 -0.1445
vn 0.4797 0.8605 0.1716
vn 0.5598 0.8283 -0.0227
vn 0.3148 0.9491 0.0109
vn 0.3097 0.9465 -0.0901
vn 0.2399 0.9672 -0.0829
vn 0.2460 0.9669 0.0683
vn 0.1495 0.9883 0.0290
vn 0.1050 0.9582 -0.2660
vn 0.0342 0.9954 -0.0897
vn 0.0323 0.9926 -0.1173
vn 0.3170 0.9482 0.0194
vn 0.6837 -0.0169 -0.7296
vn -0.5887 0.7351 0.3364
vn 0.9111 0.3106 0.2709
vn 0.6538 0.7550 0.0493
vn 0.5861 0.6602 -0.4697
vn 0.5481 0.6761 -0.4924
vn 0.6166 0.7868 -0.0275
vn 0.2644 0.6507 0.7118
vn -0.7592 0.5063 -0.4090
vn 0.0167 0.0715 -0.9973
vn 0.2667 0.5387 -0.7992
vn 0.4199 0.8373 -0.3503
vn 0.4403 0.8708 -0.2189
vn 0.6676 0.7417 -0.0643
vn 0.6078 0.6185 -0.4980
vn 0.3373 0.6974 -0.6323
vn 0.3653 0.7439 -0.5596
vn 0.0475 0.7504 -0.6592
vn 0.4804 0.8414 -0.2475
vn 0.4248 0.7516 -0.5047
vn 0.5362 0.7152 -0.4482
vn 0.5492 0.7374 -0.3932
vn 0.3061 0.8014 -0.5139
vn 0.4965 0.6659 -0.5568
vn 0.4655 0.6189 -0.6327
vn 0.6946 0.5220 -0.4951
vn 0.6362 0.3628 -0.6809
vn 0.2557 0.9605 -0.1094
vn 0.0715 0.9583 -0.2765
vn 0.1517 0.9498 -0.2737
vn 0.0285 0.5213 -0.8529
vn 0.5511 0.3321 0.7655
vn -0.4032 0.2624 -0.8767
vn 0.1747 0.9099 -0.3762
vn -0.1478 0.8783 -0.4548
vn -0.3540 0.9120 -0.2074
vn -0.4457 0.8671 -0.2223
vn 0.0890 0.9716 -0.2191
vn 0.0064 0.9705 -0.2409
vn -0.0566 0.9831 -0.1742
vn -0.3527 0.9092 -0.2212
vn -0.4154 0.9004 -0.1295
vn -0.2446 0.9629 -0.1144
vn -0.0436 0.5771 -0.8155
vn 0.0735 0.5998 -0.7968
vn -0.1353 0.7390 -0.6600
vn -0.0083 0.7703 -0.6376
vn -0.3714 0.8881 -0.2708
vn -0.7068 0.2509 0.6615
vn 0.4462 0.0642 -0.8926
vn 0.7297 0.6834 -0.0240
vn 0.1638 0.8244 -0.5418
vn -0.3233 0.7098 -0.6258
vn -0.0795 0.5738 -0.8152
vn -0.1504 0.5493 -0.8220
vn 0.1351 0.7255 0.6748
vn -0.9586 -0.2758 -0.0715
vn -0.3704 -0.3665 -0.8535
vn -0.7367 0.5393 -0.4080
vn -0.0838 0.7749 -0.6265
vn -0.4134 0.6390 -0.6486
vn -0.4485 0.6513 -0.6122
vn -0.6823 0.4692 -0.5606
vn -0.7479 0.4758 -0.4629
vn -0.1791 0.8354 -0.5196
vn -0.6884 0.4235 -0.5888
vn -0.5789 0.5271 -0.6221
vn -0.2906 0.4393 -0.8500
vn 0.8911 0.3616 0.2743
vn -0.5459 0.2656 0.7947
vn -0.3696 0.8700 -0.3265
vn -0.3033 0.9525 -0.0288
vn -0.6240 0.7747 -0.1024
vn -0.6157 0.5393 -0.5745
vn -0.9768 0.2129 -0.0244
vn -0.1756 0.9817 0.0740
vn -0.2614 0.9590 -0.1092
vn -0.4268 0.8889 0.1666
vn -0.4842 0.8721 0.0709
vn -0.5206 0.8405 0.1503
vn -0.4309 0.8421 -0.3243
vn -0.4653 0.8413 -0.2752
vn -0.2268 0.9595 0.1668
vn -0.0964 0.9926 -0.0735
vn 0.0439 0.9887 0.1436
vn -0.1253 0.8243 0.5522
vn -0.5936 0.8043 -0.0287
vn -0.5221 0.8374 -0.1618
vn -0.5625 0.7807 -0.2721
vn -0.7054 0.7089 0.0000
vn -0.7318 0.6776 -0.0731
vn -0.8083 0.5687 0.1522
vn -0.5559 0.6170 0.5570
vn -0.4254 0.8993 0.1013
vn -0.5113 0.8533 -0.1024
vn -0.4333 0.8717 -0.2291
vn -0.4073 0.8993 -0.1594
vn -0.5502 0.8274 0.1128
vn -0.6071 0.7947 0.0000
vn -0.4644 0.8487 -0.2531
vn -0.2513 0.9558 0.1525
vn -0.3388 0.8486 0.4062
vn -0.5460 0.8315 0.1026
vn -0.6393 0.5410 0.5465
vn -0.1359 0.9766 -0.1664
vn -0.1246 0.9817 0.1441
vn -0.4551 0.8535 0.2539
vn -0.4807 0.8707 0.1038
vn -0.4712 0.8817 0.0247
vn -0.8202 0.5192 0.2400
vn -0.5731 0.7529 0.3236
vn -0.2384 0.9560 0.1712
vn -0.0506 0.9190 0.3911
vn -0.1454 0.9672 0.2082
vn -0.0622 0.9499 0.3064
vn -0.0183 0.9553 0.2951
vn 0.1866 0.8548 0.4842
vn -0.4040 0.9095 0.0976
vn -0.3179 0.9223 0.2197
vn -0.0133 0.9870 0.1600
vn 0.2907 0.8334 0.4700
vn 0.1769 0.8410 0.5112
vn -0.0664 0.9525 0.2973
vn -0.4464 0.8945 0.0247
vn -0.1389 0.8933 0.4275
vn -0.3905 0.8030 0.4503
vn -0.2079 0.7398 0.6399
vn 0.2708 0.8029 0.5310
vn 0.2102 0.8496 0.4838
vn -0.1561 0.8043 0.5734
vn -0.0955 0.7747 0.6251
vn -0.5897 0.7546 0.2878
vn -0.1242 0.6252 0.7705
vn -0.2540 0.5701 0.7813
vn -0.5807 0.6799 0.4478
vn -0.1402 0.8911 0.4315
vn 0.2065 0.6799 0.7036
vn 0.1309 0.6723 0.7286
vn -0.8256 0.5021 0.2574
vn -0.6694 0.5045 0.5453
vn -0.0550 0.8290 0.5566
vn -0.1455 0.8697 0.4717
vn -0.5894 0.6535 0.4749
vn -0.6633 0.5406 0.5175
vn -0.3919 0.4759 0.7873
vn -0.6822 0.2153 0.6987
vn 0.2794 0.9167 -0.2857
vn 0.4986 0.8438 0.1983
vn 0.1009 0.8535 0.5112
vn 0.8953 0.4404 -0.0675
vn 0.2225 0.8072 0.5468
vn 0.5126 0.8529 -0.0991
vn 0.1854 0.9817 0.0433
vn 0.1809 0.9826 -0.0417
vn 0.0277 0.9994 0.0201
vn 0.0332 0.9973 -0.0652
vn 0.1086 0.9887 -0.1029
vn -0.6557 0.7058 -0.2681
vn 0.1888 0.7774 -0.6000
vn 0.1454 0.9837 0.1057
vn 0.5597 0.8215 -0.1084
vn 0.5513 0.8054 0.2177
vn 0.4671 0.8423 0.2688
vn -0.8132 0.4325 0.3894
vn -0.1001 0.0849 0.9913
vn 0.6687 0.0874 0.7384
vn 0.4303 0.8475 0.3108
vn 0.4468 0.8756 -0.1834
vn 0.5122 0.8288 -0.2251
vn 0.5022 0.8127 0.2955
vn 0.5445 0.7945 0.2688
vn 0.2849 0.7538 0.5922
vn 0.3653 0.7439 0.5596
vn 0.3362 0.6955 0.6350
vn 0.5735 0.6359 0.5165
vn 0.5985 0.6740 0.4331
vn 0.6681 0.6364 0.3855
vn 0.7036 0.7033 -0.1012
vn 0.3038 0.8034 0.5121
vn 0.7133 0.6481 0.2668
vn 0.6430 0.5180 0.5641
vn 0.7088 0.4822 0.5149
vn 0.7352 0.5180 0.4372
vn 0.7360 0.6148 0.2833
vn 0.6771 0.6568 0.3320
vn 0.6472 0.6000 0.4702
vn -0.2260 -0.5522 -0.8025
vn -0.8656 -0.4987 -0.0447
vn 0.8838 0.4667 -0.0339
vn 0.6270 -0.0701 -0.7758
vn 0.2860 0.5685 0.7714
vn -0.5870 0.1063 0.8026
vn -0.4714 0.8074 -0.3549
vn -0.3280 0.8639 -0.3822
vn -0.4148 0.7444 -0.5233
vn -0.3894 0.8837 -0.2596
vn -0.4793 0.6825 -0.5518
vn -0.4992 0.7391 -0.4523
vn -0.4273 0.8697 -0.2469
vn -0.3196 0.8649 -0.3872
vn -0.4478 0.8058 -0.3874
vn -0.5181 0.6798 -0.5192
vn -0.4086 0.7464 -0.5253
vn -0.4694 0.7569 -0.4547
vn -0.5865 -0.0574 -0.8079
vn 0.3372 0.0363 0.9407
vn 0.9961 0.0879 -0.0079
vn -0.9472 -0.0858 -0.3090
vn -0.6495 -0.0521 0.7586
vn 0.5367 0.0416 -0.8427
vn 0.0035 0.9998 0.0209
vn -0.0032 0.9973 -0.0727
vn -0.3016 0.9534 0.0049
vn 0.1062 0.9893 0.0995
vn -0.1805 0.9764 -0.1189
vn -0.1543 0.9873 0.0390
vn 0.0296 0.9970 -0.0714
vn 0.0955 0.9851 0.1428
vn -0.3070 0.9512 0.0311
vn -0.0127 0.9999 -0.0075
vn -0.2012 0.9712 -0.1275
vn -0.1251 0.9921 -0.0082
vn 0.7470 -0.4074 -0.5254
vn -0.1660 -0.3080 -0.9368
vn 0.1776 0.3044 0.9359
vn 0.9321 -0.1331 0.3368
vn -0.6929 0.4163 0.5887
vn -0.9042 0.0951 -0.4164
vn 0.1847 0.9504 -0.2502
vn 0.1983 0.9188 -0.3413
vn 0.1510 0.8433 -0.5158
vn 0.2886 0.9080 -0.3038
vn 0.2416 0.9431 -0.2285
vn 0.4372 0.8036 -0.4038
vn 0.2958 0.9048 -0.3063
vn 0.1933 0.9179 -0.3465
vn 0.2180 0.9501 -0.2230
vn 0.1970 0.9524 -0.2325
vn 0.1314 0.8391 -0.5278
vn 0.4621 0.7958 -0.3913
vn -0.1598 -0.3909 0.9065
vn -0.9491 -0.0165 0.3145
vn 0.9511 0.0136 -0.3086
vn -0.7122 0.3670 -0.5984
vn 0.2577 0.3713 -0.8921
vn 0.7626 -0.3492 0.5445
vn 0.2589 0.9488 0.1809
vn 0.1946 0.7928 0.5775
vn -0.0639 0.9447 0.3218
vn 0.0639 0.7987 0.5983
vn 0.3162 0.9211 0.2272
vn -0.0817 0.8653 0.4945
vn 0.2152 0.9585 0.1868
vn 0.1323 0.8274 0.5458
vn 0.0734 0.8244 0.5612
vn 0.3194 0.9109 0.2611
vn -0.0042 0.9235 0.3835
vn -0.0270 0.8763 0.4811
usemtl None
s off
f 19//1 33//1 1//1
f 18//2 38//2 19//2
f 17//3 39//3 18//3
f 16//4 41//4 17//4
f 15//5 43//5 16//5
f 19//6 38//6 33//6
f 38//7 34//7 33//7
f 18//8 39//8 38//8
f 39//9 40//9 38//9
f 38//10 40//10 34//10
f 40//11 35//11 34//11
f 17//12 41//12 39//12
f 41//13 42//13 39//13
f 39//14 42//14 40//14
f 45//15 46//15 167//15 166//15
f 35//16 40//16 165//16 163//16
f 42//17 45//17 166//17 168//17
f 16//18 43//18 41//18
f 43//19 44//19 41//19
f 41//20 44//20 42//20
f 44//21 45//21 42//21
f 40//22 42//22 168//22 165//22
f 36//23 35//23 163//23 164//23
f 46//24 36//24 164//24 167//24
f 46//25 37//25 36//25
f 43//26 47//26 44//26
f 47//27 48//27 44//27
f 44//28 48//28 45//28
f 48//29 49//29 45//29
f 45//30 49//30 46//30
f 49//31 50//31 46//31
f 46//32 50//32 37//32
f 47//33 51//33 48//33
f 51//34 52//34 48//34
f 48//35 52//35 49//35
f 52//36 53//36 49//36
f 49//37 53//37 50//37
f 51//38 9//38 52//38
f 9//39 8//39 52//39
f 52//40 8//40 53//40
f 33//41 54//41 147//41 146//41
f 34//42 54//42 33//42
f 35//43 55//43 34//43
f 36//44 57//44 35//44
f 37//45 60//45 36//45
f 20//46 1//46 144//46 145//46
f 54//47 27//47 148//47 147//47
f 34//48 55//48 54//48
f 55//49 56//49 54//49
f 54//50 56//50 27//50
f 56//51 28//51 27//51
f 35//52 57//52 55//52
f 57//53 58//53 55//53
f 55//54 58//54 56//54
f 58//55 59//55 56//55
f 56//56 59//56 28//56
f 59//57 29//57 28//57
f 36//58 60//58 57//58
f 60//59 61//59 57//59
f 57//60 61//60 58//60
f 61//61 62//61 58//61
f 58//62 62//62 59//62
f 30//63 29//63 125//63 126//63
f 62//64 65//64 128//64 130//64
f 59//65 62//65 130//65 127//65
f 60//66 63//66 61//66
f 63//67 64//67 61//67
f 61//68 64//68 62//68
f 64//69 65//69 62//69
f 29//70 59//70 127//70 125//70
f 66//71 30//71 126//71 129//71
f 65//72 66//72 129//72 128//72
f 66//73 31//73 30//73
f 64//74 67//74 65//74
f 67//75 68//75 65//75
f 65//76 68//76 66//76
f 68//77 69//77 66//77
f 66//78 69//78 31//78
f 69//79 32//79 31//79
f 68//80 7//80 69//80
f 7//81 6//81 69//81
f 69//82 6//82 32//82
f 1//83 33//83 146//83 144//83
f 70//84 20//84 145//84 149//84
f 28//85 71//85 27//85
f 29//86 73//86 28//86
f 30//87 76//87 29//87
f 31//88 80//88 30//88
f 27//89 70//89 149//89 148//89
f 70//90 21//90 20//90
f 27//91 71//91 70//91
f 71//92 72//92 70//92
f 70//93 72//93 21//93
f 72//94 22//94 21//94
f 28//95 73//95 71//95
f 73//96 74//96 71//96
f 71//97 74//97 72//97
f 74//98 75//98 72//98
f 72//99 75//99 22//99
f 75//100 23//100 22//100
f 29//101 76//101 73//101
f 76//102 77//102 73//102
f 73//103 77//103 74//103
f 77//104 78//104 74//104
f 74//105 78//105 75//105
f 78//106 79//106 75//106
f 75//107 79//107 23//107
f 79//108 24//108 23//108
f 30//109 80//109 76//109
f 80//110 81//110 76//110
f 76//111 81//111 77//111
f 81//112 82//112 77//112
f 77//113 82//113 78//113
f 82//114 83//114 78//114
f 78//115 83//115 79//115
f 83//116 84//116 79//116
f 79//117 84//117 24//117
f 84//118 25//118 24//118
f 20//119 10//119 1//119
f 21//120 85//120 20//120
f 22//121 86//121 21//121
f 23//122 88//122 22//122
f 24//123 91//123 23//123
f 25//124 95//124 24//124
f 26//125 99//125 25//125
f 20//126 85//126 10//126
f 85//127 11//127 10//127
f 21//128 86//128 85//128
f 86//129 87//129 85//129
f 85//130 87//130 11//130
f 87//131 12//131 11//131
f 22//132 88//132 86//132
f 88//133 89//133 86//133
f 86//134 89//134 87//134
f 89//135 90//135 87//135
f 87//136 90//136 12//136
f 90//137 13//137 12//137
f 23//138 91//138 88//138
f 91//139 92//139 88//139
f 88//140 92//140 89//140
f 92//141 93//141 89//141
f 89//142 93//142 90//142
f 93//143 94//143 90//143
f 90//144 94//144 13//144
f 94//145 14//145 13//145
f 24//146 95//146 91//146
f 95//147 96//147 91//147
f 91//148 96//148 92//148
f 96//149 97//149 92//149
f 92//150 97//150 93//150
f 97//151 98//151 93//151
f 93//152 98//152 94//152
f 25//153 99//153 95//153
f 99//154 100//154 95//154
f 95//155 100//155 96//155
f 100//156 101//156 96//156
f 96//157 101//157 97//157
f 26//158 5//158 99//158
f 5//159 4//159 99//159
f 99//160 4//160 100//160
f 10//161 19//161 1//161
f 11//162 102//162 10//162
f 12//163 103//163 11//163
f 108//164 105//164 186//164 185//164
f 14//165 107//165 13//165
f 10//166 102//166 19//166
f 102//167 18//167 19//167
f 11//168 103//168 102//168
f 103//169 104//169 102//169
f 102//170 104//170 18//170
f 104//171 17//171 18//171
f 103//172 12//172 181//172 183//172
f 105//173 103//173 183//173 186//173
f 103//174 105//174 104//174
f 105//175 106//175 104//175
f 104//176 106//176 17//176
f 106//177 16//177 17//177
f 12//178 13//178 182//178 181//178
f 13//179 107//179 184//179 182//179
f 107//180 108//180 185//180 184//180
f 108//181 109//181 105//181
f 105//182 109//182 106//182
f 109//183 110//183 106//183
f 106//184 110//184 16//184
f 110//185 15//185 16//185
f 14//186 111//186 107//186
f 111//187 112//187 107//187
f 107//188 112//188 108//188
f 112//189 113//189 108//189
f 108//190 113//190 109//190
f 113//191 114//191 109//191
f 109//192 114//192 110//192
f 111//193 115//193 112//193
f 115//194 116//194 112//194
f 112//195 116//195 113//195
f 116//196 117//196 113//196
f 113//197 117//197 114//197
f 115//198 3//198 116//198
f 3//199 2//199 116//199
f 116//200 2//200 117//200
f 118//201 120//201 134//201 135//201
f 120//202 122//202 133//202 134//202
f 124//203 119//203 132//203 137//203
f 119//204 118//204 135//204 132//204
f 123//205 124//205 137//205 136//205
f 122//206 123//206 136//206 133//206
f 118//207 119//207 126//207 125//207
f 120//208 118//208 125//208 127//208
f 124//209 123//209 128//209 129//209
f 122//210 120//210 127//210 130//210
f 123//211 122//211 130//211 128//211
f 119//212 124//212 129//212 126//212
f 133//213 131//213 134//213
f 134//214 131//214 135//214
f 131//215 132//215 135//215
f 133//216 136//216 131//216
f 136//217 137//217 131//217
f 131//218 137//218 132//218
f 138//219 121//219 150//219 155//219
f 142//220 140//220 152//220 154//220
f 140//221 143//221 156//221 152//221
f 121//222 141//222 153//222 150//222
f 141//223 142//223 154//223 153//223
f 143//224 138//224 155//224 156//224
f 121//225 138//225 145//225 144//225
f 141//226 121//226 144//226 146//226
f 140//227 142//227 147//227 148//227
f 142//228 141//228 146//228 147//228
f 143//229 140//229 148//229 149//229
f 138//230 143//230 149//230 145//230
f 153//231 151//231 150//231
f 153//232 154//232 151//232
f 154//233 152//233 151//233
f 151//234 155//234 150//234
f 152//235 156//235 151//235
f 151//236 156//236 155//236
f 139//237 158//237 172//237 173//237
f 158//238 160//238 171//238 172//238
f 162//239 157//239 170//239 175//239
f 157//240 139//240 173//240 170//240
f 161//241 162//241 175//241 174//241
f 160//242 161//242 174//242 171//242
f 139//243 157//243 164//243 163//243
f 158//244 139//244 163//244 165//244
f 162//245 161//245 166//245 167//245
f 160//246 158//246 165//246 168//246
f 161//247 160//247 168//247 166//247
f 157//248 162//248 167//248 164//248
f 171//249 169//249 172//249
f 172//250 169//250 173//250
f 169//251 170//251 173//251
f 171//252 174//252 169//252
f 174//253 175//253 169//253
f 169//254 175//254 170//254
f 178//255 177//255 191//255 189//255
f 180//256 178//256 189//256 193//256
f 159//257 176//257 187//257 190//257
f 179//258 180//258 193//258 192//258
f 176//259 179//259 192//259 187//259
f 177//260 159//260 190//260 191//260
f 176//261 159//261 181//261 182//261
f 159//262 177//262 183//262 181//262
f 180//263 179//263 184//263 185//263
f 177//264 178//264 186//264 183//264
f 179//265 176//265 182//265 184//265
f 178//266 180//266 185//266 186//266
f 187//267 188//267 190//267
f 190//268 188//268 191//268
f 188//269 189//269 191//269
f 187//270 192//270 188//270
f 192//271 193//271 188//271
f 188//272 193//272 189//272
