# Blender v2.79 (sub 0) OBJ File: 'socket_left_geyser.blend'
# www.blender.org
mtllib socket_left_geyser.mtl
o Icosphere
v -4.457031 -2.208780 0.012832
v -3.594766 2.227685 2.621876
v -3.589731 2.218604 -2.633594
v -4.045339 -2.669321 -0.000000
v -3.535048 -3.084971 0.000000
v -3.228893 -2.466684 2.345918
v -3.710060 -2.511665 1.780223
v -3.899179 -2.356718 1.120668
v -4.089266 -2.237944 0.532094
v -4.224066 -2.311871 -0.550058
v -4.135206 -2.499601 -1.189131
v -3.731217 -2.518190 -1.796325
v -3.335415 -2.548061 -2.423312
v -4.286534 1.257764 2.189878
v -4.559023 0.638588 1.886877
v -4.462236 -0.000000 1.449846
v -4.526297 -0.609439 1.074631
v -4.636475 -1.216966 0.715643
v -4.369009 -1.678458 0.328850
v -3.317707 1.201656 3.284857
v -3.341314 1.678475 2.834070
v -3.341314 1.678475 -2.834070
v -3.330342 1.216978 -3.304214
v -4.369009 -1.678458 -0.328850
v -4.488360 -1.178360 -0.692606
v -4.526297 -0.609439 -1.074631
v -4.730912 -0.007888 -1.541851
v -4.038278 1.178366 -2.077828
v -3.851130 1.733510 -2.377768
v -3.841537 2.383066 2.076855
v -3.813217 2.356727 1.385216
v -3.944324 2.437757 0.716421
v -4.122795 2.548060 -0.000000
v -4.053158 2.505018 -0.736374
v -3.939099 2.434528 -1.430599
v -3.847283 2.366160 -2.087339
v -3.484750 2.842184 -1.807912
v -3.637907 2.958972 -1.116427
v -3.723978 3.037748 -0.386658
v -3.723978 3.037748 0.386658
v -3.636113 2.955281 1.134795
v -3.373525 2.750999 1.750700
v -3.969235 1.787127 -1.750703
v -4.278061 1.248334 -1.467470
v -4.274260 1.923198 -1.130217
v -4.657768 0.661235 -1.165333
v -4.710507 1.382094 -0.812448
v -4.783982 0.000359 -0.776888
v -4.629536 0.657137 -0.386245
v -4.652675 1.357446 0.000000
v -4.264448 1.920046 0.376183
v -4.762735 -0.648479 -0.372390
v -4.691866 0.000003 0.000002
v -4.629534 0.657139 0.386247
v -4.590914 1.339433 0.787062
v -4.158849 1.872502 1.100602
v -4.538078 -1.191409 0.000002
v -4.635671 -0.624160 0.366870
v -4.508920 0.640022 1.128552
v -4.278059 1.248340 1.467472
v -3.969233 1.787130 1.750704
v -3.792654 1.230054 -2.755499
v -3.534702 0.624170 -3.021573
v -3.965987 0.624169 -2.427956
v -3.304447 -0.000000 -3.330801
v -3.921031 -0.000370 -2.848781
v -4.326979 -0.000359 -2.183413
v -3.634511 -0.678917 -3.133600
v -3.972409 -0.657139 -2.408681
v -4.311149 -0.640016 -1.737235
v -3.251495 -1.339436 -3.335227
v -3.749577 -1.357123 -2.708643
v -4.043465 -1.296815 -1.995563
v -3.228889 -1.920051 -2.810924
v -3.671127 -1.920048 -2.202238
v -4.143819 -1.933930 -1.605837
v -4.502516 -1.885987 -0.960304
v -3.792655 1.230054 2.755499
v -4.096818 0.644196 2.508213
v -3.534702 0.624170 3.021573
v -4.188921 -0.000000 2.113421
v -3.921031 -0.000370 2.848781
v -3.304447 0.000000 3.330801
v -4.311149 -0.640016 1.737235
v -4.103363 -0.678916 2.488279
v -3.518342 -0.657140 3.033653
v -4.582237 -1.324634 1.416808
v -4.043465 -1.296815 1.995563
v -3.764093 -1.357450 2.734772
v -3.147393 -1.296819 3.228899
v -4.350983 -1.850476 0.938733
v -4.011504 -1.872498 1.554091
v -3.792307 -1.982991 2.275125
v -3.335654 -1.982994 2.903651
v -3.707891 -3.065402 -1.267856
v -3.881900 -2.842168 -0.585631
v -3.758288 -2.750984 0.566541
v -3.506545 -2.882408 1.187214
v -4.467722 2.497826 -0.117488
v -4.412408 2.464211 -0.627307
v -4.560011 2.059405 -0.898612
v -4.726119 0.001894 1.361925
v -4.871850 1.697090 -0.683141
v -4.825347 1.676833 -0.119986
v -4.548027 2.060416 0.138164
v -4.415624 2.587662 -0.060354
v -4.356731 2.551261 -0.683112
v -4.543719 2.059211 -1.016188
v -4.863748 1.580750 -0.060354
v -4.535421 2.056546 0.257787
v -4.912657 1.601595 -0.747448
v -4.377060 1.974963 -0.390139
v -4.212659 2.366386 -0.116679
v -4.616787 1.565650 -0.682332
v -4.304948 1.927964 -0.897803
v -4.157345 2.332770 -0.626498
v -4.570284 1.545393 -0.119177
v -4.292964 1.928976 0.138974
v -4.778751 -0.499076 1.053466
v -4.914110 -0.000718 0.172879
v -4.862612 0.539059 0.490268
v -4.868530 -0.511176 0.472757
v -4.727761 0.483373 1.875122
v -4.764163 0.525271 1.099077
v -4.679889 -0.000788 1.414518
v -4.737644 -0.550237 1.076238
v -4.886915 -0.000786 0.107390
v -4.830719 0.591665 0.455616
v -4.836252 -0.563509 0.438145
v -4.721977 0.576233 1.124851
v -4.335711 -0.351934 0.475566
v -4.487648 0.006017 0.723941
v -4.262506 0.375058 0.914884
v -4.367682 0.006115 0.265223
v -4.331560 0.384729 0.487848
v -4.272738 -0.343447 0.882891
v -4.235820 0.007947 1.099252
v -4.643579 -0.033641 1.576157
v -4.680667 -0.480058 1.297565
v -4.687445 0.439100 1.337726
v -4.445370 -0.028010 2.008150
v -4.540812 -0.500254 1.732921
v -4.649794 -0.031047 1.523068
v -4.701398 -0.521985 1.220811
v -4.687400 0.484529 1.264247
v -4.730306 0.437158 1.846293
v -4.528083 -0.546617 1.754577
v -4.429622 -0.031047 2.057617
v -4.578727 0.465159 1.804185
v -4.492000 -0.005640 1.534050
v -4.293791 -0.000008 1.966043
v -4.389233 -0.472252 1.690814
v -4.529088 -0.452056 1.255457
v -4.535866 0.467102 1.295618
v -5.007417 -1.262727 -1.115631
v -5.046377 -0.888247 -1.364977
v -4.901493 -0.908971 -1.806986
v -4.421157 -2.235346 0.565631
v -4.716278 -1.349881 -1.975436
v -4.784686 -1.770104 -1.721218
v -5.037829 -1.744853 -1.294720
v -4.984955 -1.245620 -0.970999
v -5.017154 -0.762743 -1.295247
v -4.834545 -0.788696 -1.857639
v -4.692523 -1.886919 -1.746113
v -4.996970 -1.846227 -1.198211
v -4.607346 -1.346160 -2.076898
v -4.472982 -1.294502 -1.371209
v -4.410671 -1.200877 -0.906932
v -4.119531 -1.288032 -1.766737
v -4.304746 -0.847121 -1.598287
v -4.449630 -0.826397 -1.156278
v -4.187940 -1.708254 -1.512519
v -4.441083 -1.683003 -1.086021
v -4.651068 -2.220484 0.262718
v -4.587873 -1.903033 0.442663
v -4.588253 -2.011832 0.805482
v -4.406957 -2.294815 0.587772
v -4.696909 -2.271822 0.178376
v -4.627512 -1.853706 0.427530
v -4.613299 -1.989328 0.908374
v -4.315993 -1.793638 0.369689
v -4.149277 -2.125951 0.492658
v -4.379188 -2.111090 0.189745
v -4.316373 -1.902437 0.732508
v -4.753875 0.290192 -1.740257
v -3.689891 1.777070 2.820615
v -4.330061 1.019422 -2.069641
v -4.467834 1.060061 -1.695296
v -4.706234 0.696133 -1.509102
v -4.278345 0.681070 -2.278498
v -4.505681 0.293350 -2.127622
v -4.829547 0.183657 -1.696619
v -4.771616 0.713606 -1.398415
v -4.280977 1.123177 -2.121116
v -4.470886 1.178591 -1.637709
v -4.509630 0.189620 -2.204739
v -4.223722 0.684249 -2.398419
v -4.453319 0.188393 -1.576451
v -4.182573 0.570785 -1.730186
v -4.029505 0.917623 -1.905835
v -4.167278 0.958262 -1.531490
v -4.405677 0.594334 -1.345295
v -3.977789 0.579271 -2.114691
v -4.205124 0.191551 -1.963816
v -3.880559 2.165915 2.682566
v -4.365644 1.498036 2.386909
v -4.055022 2.274921 2.303480
v -4.123779 1.857426 2.072169
v -4.010950 1.474228 2.777250
v -3.641745 1.775282 2.879614
v -3.846410 2.218776 2.708265
v -4.045681 2.344248 2.268154
v -4.148797 1.863022 2.004783
v -4.405021 1.435553 2.359421
v -4.006207 1.413177 2.816167
v -3.719523 2.102453 2.578188
v -3.892391 1.756262 2.406766
v -4.204608 1.434574 2.282531
v -3.962743 1.793965 1.967791
v -3.893986 2.211460 2.199102
v -3.528855 1.713609 2.716237
v -3.849914 1.410767 2.672871
vn 0.1469 -0.9763 -0.1589
vn -0.9865 0.1637 0.0000
vn -0.7329 0.6585 -0.1710
vn -0.7572 0.5956 -0.2683
vn -0.7983 0.5718 -0.1892
vn -0.7907 0.5917 -0.1571
vn -0.8115 0.5738 -0.1103
vn -0.7754 0.6315 0.0000
vn -0.8407 0.4630 0.2807
vn -0.8982 0.4129 0.1510
vn -0.9061 0.3607 0.2213
vn -0.7729 0.4256 0.4707
vn -0.6407 0.7658 -0.0554
vn -0.8587 0.2181 -0.4638
vn -0.9562 0.2151 -0.1985
vn -0.1866 0.9651 -0.1840
vn -0.6350 -0.6563 -0.4075
vn -0.9297 -0.3633 -0.0606
vn -0.9063 -0.2756 -0.3205
vn -0.9565 -0.2821 -0.0740
vn -0.9769 0.0941 -0.1920
vn -0.9815 0.1197 -0.1497
vn -0.8748 0.3025 -0.3784
vn -0.8494 0.2397 -0.4701
vn -0.8385 0.2724 -0.4719
vn -0.8685 0.4581 -0.1892
vn -0.9020 -0.1326 0.4108
vn -0.7928 0.2202 -0.5684
vn -0.7710 0.2881 -0.5679
vn -0.4846 -0.2299 0.8440
vn -0.0559 0.5742 -0.8168
vn -0.1023 0.5281 0.8430
vn -0.9866 0.1473 -0.0700
vn -0.9774 0.2081 0.0365
vn -0.9953 -0.0902 0.0356
vn -0.9951 -0.0708 0.0687
vn -0.7306 -0.6821 0.0313
vn 0.1428 0.9888 -0.0443
vn -0.4499 -0.1539 -0.8797
vn -0.8880 0.3666 0.2777
vn -0.9182 -0.2308 -0.3220
vn -0.9922 0.0409 0.1177
vn -0.9800 0.1613 0.1163
vn -0.9955 0.0944 0.0000
vn -0.9995 -0.0330 0.0000
vn -0.9969 0.0103 0.0785
vn -0.8443 0.5302 0.0784
vn -0.8101 0.5653 0.1552
vn -0.8829 0.4423 0.1577
vn -0.8507 0.4754 0.2244
vn -0.9029 -0.4236 -0.0728
vn -0.9463 -0.2738 0.1717
vn -0.9856 0.0106 0.1690
vn -0.2688 -0.9612 0.0615
vn -0.4223 0.4888 -0.7634
vn -0.1361 -0.5090 0.8499
vn -0.9865 -0.0378 0.1594
vn -0.8984 0.1031 0.4269
vn -0.8089 0.4050 0.4262
vn -0.8866 0.3482 0.3043
vn -0.8508 0.4284 0.3044
vn -0.9709 0.2347 -0.0487
vn -0.9447 -0.3279 0.0000
vn -0.9028 -0.4070 -0.1387
vn -0.9871 -0.0802 -0.1386
vn -0.9846 0.0898 0.1503
vn -0.2872 0.9554 0.0687
vn -0.1458 0.4353 0.8884
vn -0.4195 -0.4878 -0.7656
vn -0.2453 0.1947 0.9497
vn -0.9217 0.3833 -0.0602
vn -0.9123 0.4093 -0.0160
vn -0.8637 0.5038 -0.0167
vn -0.6502 0.4672 -0.5991
vn 0.0522 0.9664 0.2518
vn 0.0696 -0.2397 0.9684
vn -0.6685 -0.0317 -0.7431
vn -0.6355 0.5435 -0.5484
vn -0.5678 0.4508 -0.6888
vn -0.9345 0.1377 -0.3282
vn -0.7645 -0.0431 -0.6431
vn -0.8060 -0.0860 -0.5856
vn -0.9386 0.0882 -0.3335
vn 0.0284 0.5365 -0.8434
vn -0.6079 0.1609 -0.7775
vn -0.7665 0.3201 -0.5569
vn -0.8200 0.2781 -0.5003
vn -0.6269 0.6366 0.4492
vn -0.1718 -0.2715 -0.9470
vn -0.6144 0.0704 -0.7859
vn -0.8896 -0.2042 -0.4085
vn -0.8216 -0.2716 -0.5012
vn -0.8506 -0.3148 -0.4211
vn -0.7852 -0.3673 -0.4987
vn -0.8404 -0.4806 -0.2507
vn -0.7540 -0.2521 -0.6065
vn -0.9023 -0.1084 -0.4173
vn -0.9200 -0.1353 -0.3677
vn -0.8792 -0.1857 -0.4388
vn 0.1663 -0.5335 -0.8293
vn 0.0967 0.3982 -0.9122
vn -0.0912 -0.9956 0.0232
vn -0.6637 -0.5154 -0.5421
vn -0.6809 -0.5400 -0.4947
vn -0.8565 -0.4060 -0.3187
vn -0.7558 -0.2509 -0.6048
vn -0.4322 -0.3115 0.8463
vn -0.2447 0.9617 -0.1238
vn -0.4797 0.4669 0.7429
vn -0.9716 -0.0665 0.2273
vn -0.7892 -0.2200 -0.5734
vn -0.8218 -0.2611 -0.5064
vn -0.7368 -0.3274 -0.5916
vn -0.7745 -0.3828 -0.5036
vn -0.8338 -0.3356 -0.4384
vn -0.8517 -0.5229 0.0352
vn -0.9047 -0.3093 0.2929
vn -0.9261 -0.0834 -0.3680
vn 0.2748 0.4542 0.8474
vn -0.5202 -0.7450 0.4177
vn -0.8011 0.0612 0.5954
vn -0.3845 0.5129 -0.7675
vn -0.1384 -0.4821 0.8651
vn -0.9878 0.1229 0.0953
vn -0.8942 -0.4371 -0.0968
vn -0.8154 0.0086 -0.5788
vn -0.6207 0.5222 0.5849
vn -0.7460 0.1101 0.6568
vn -0.6731 0.0377 0.7385
vn -0.7448 -0.0242 0.6669
vn -0.7769 -0.2445 0.5802
vn -0.9369 -0.0752 0.3413
vn -0.6561 0.2049 0.7264
vn -0.6079 0.1609 0.7775
vn -0.2597 -0.4483 -0.8553
vn -0.9631 0.0265 0.2678
vn -0.9372 0.0704 0.3415
vn -0.6634 -0.2042 0.7198
vn -0.6085 -0.1540 0.7785
vn -0.9246 0.2208 0.3104
vn -0.7309 -0.0297 0.6818
vn -0.9281 -0.2830 0.2421
vn -0.8907 -0.3330 0.3093
vn -0.6786 -0.0738 0.7308
vn -0.6139 -0.1177 0.7806
vn -0.9127 -0.4085 0.0079
vn -0.6900 -0.6290 0.3581
vn -0.6228 -0.4976 0.6037
vn -0.9380 -0.2423 0.2480
vn -0.9215 -0.2022 0.3317
vn -0.7523 -0.3677 0.5466
vn -0.6002 -0.2022 0.7739
vn -0.4754 0.8430 0.2518
vn -0.7615 -0.6375 0.1173
vn -0.7513 -0.5283 0.3956
vn -0.9129 -0.3686 0.1752
vn -0.9098 -0.3502 0.2229
vn -0.5845 -0.6011 0.5450
vn -0.6145 -0.6504 0.4465
vn -0.7335 -0.4881 -0.4731
vn -0.7984 -0.6021 -0.0066
vn -0.8382 -0.5437 0.0432
vn -0.6307 -0.7743 0.0525
vn -0.8402 -0.5370 -0.0760
vn -0.7352 -0.6521 -0.1849
vn -0.6646 -0.6063 0.4367
vn -0.6183 -0.7591 0.2039
vn -0.8019 -0.4948 0.3350
vn -0.8340 -0.5271 0.1630
vn -0.7967 -0.5694 0.2026
vn -0.8033 -0.5883 0.0921
vn -0.4581 -0.8889 0.0089
vn 0.2233 0.4279 -0.8758
vn 0.4581 0.8889 -0.0059
vn -0.2477 -0.4754 0.8442
vn 0.1906 0.3754 0.9071
vn -0.2335 -0.4584 -0.8576
vn -0.8477 0.5174 -0.1175
vn -0.8883 0.4335 -0.1515
vn -0.8534 0.4977 0.1547
vn -0.8071 0.5603 -0.1860
vn -0.9217 0.3790 0.0828
vn -0.9323 0.3065 0.1922
vn -0.7942 0.5843 -0.1669
vn -0.8855 0.4341 -0.1660
vn -0.8803 0.4575 -0.1257
vn -0.8860 0.4550 0.0895
vn -0.8505 0.4949 0.1782
vn -0.9454 0.2754 0.1742
vn -0.1391 -0.4921 0.8594
vn -0.2789 -0.9600 0.0234
vn -0.4219 -0.4312 -0.7975
vn -0.4114 0.5088 -0.7562
vn -0.1512 0.4906 0.8582
vn -0.2864 0.9578 0.0243
vn -0.7230 -0.3055 0.6196
vn -0.8823 0.2981 -0.3642
vn -0.8812 -0.2957 -0.3688
vn -0.7992 0.5839 0.1429
vn -0.8008 -0.5834 0.1359
vn -0.7171 0.2704 0.6424
vn -0.9418 -0.2288 -0.2463
vn -0.9405 0.2343 -0.2459
vn -0.8768 0.4562 0.1521
vn -0.8708 -0.4699 0.1444
vn -0.8038 -0.2484 0.5406
vn -0.8117 0.2140 0.5435
vn 0.3165 -0.5210 0.7927
vn 0.1848 -0.9827 0.0118
vn -0.1713 -0.4157 -0.8932
vn 0.1589 0.4563 0.8755
vn -0.6747 0.7368 -0.0432
vn -0.3884 -0.9177 0.0838
vn -0.9758 -0.0408 0.2149
vn -0.9972 -0.0714 0.0215
vn -0.9972 -0.0080 -0.0742
vn -0.9479 -0.1023 0.3016
vn -0.8433 -0.3624 0.3969
vn -0.9340 -0.0253 0.3564
vn -0.9875 -0.1339 -0.0837
vn -0.8394 -0.3784 0.3901
vn -0.9479 -0.1082 0.2995
vn -0.9070 -0.0597 0.4169
vn -0.3165 0.5246 -0.7904
vn -0.1551 0.9833 0.0954
vn 0.3317 -0.4987 -0.8008
vn -0.0682 0.9927 -0.0992
vn -0.3287 0.5275 0.7834
vn 0.0778 -0.9944 0.0721
vn -0.2562 -0.4370 0.8622
vn 0.2834 0.3182 -0.9047
vn -0.9782 0.0530 0.2006
vn -0.8790 0.3675 -0.3037
vn -0.7296 -0.5692 -0.3790
vn -0.6613 0.0180 -0.7499
vn -0.6281 -0.3289 -0.7052
vn -0.9702 -0.0509 0.2370
vn -0.7439 -0.0582 -0.6657
vn -0.9302 0.1905 -0.3138
vn -0.9907 -0.0128 0.1355
vn -0.7151 -0.2729 -0.6435
vn -0.7995 -0.3967 -0.4510
vn -0.9914 0.0142 0.1302
vn -0.2962 0.9162 0.2698
vn 0.2947 -0.9154 -0.2742
vn -0.5793 0.4861 -0.6543
vn 0.2418 -0.6200 0.7464
vn -0.8064 -0.0972 0.5834
vn -0.7342 -0.2385 0.6357
vn -0.8179 -0.5561 -0.1477
vn -0.8876 -0.4150 -0.1997
vn -0.7881 -0.1772 0.5895
vn -0.8613 -0.4864 -0.1468
vn -0.4081 0.5085 -0.7582
vn 0.4085 -0.5103 0.7568
vn -0.3145 -0.9492 -0.0127
vn 0.2374 0.9582 0.1599
vn -0.2845 0.4879 0.8252
vn 0.5380 0.3685 -0.7581
vn 0.2407 -0.5624 -0.7911
vn -0.5388 -0.5006 0.6776
vn -0.7821 0.3713 -0.5005
vn -0.9080 0.1982 -0.3691
vn -0.8080 0.2522 -0.5325
vn -0.7843 0.3756 -0.4937
vn -0.8847 0.1516 -0.4407
vn -0.8530 0.3423 -0.3940
vn -0.9076 0.2193 -0.3579
vn -0.7944 0.3683 -0.4830
vn -0.8215 0.2856 -0.4936
vn -0.8738 0.1516 -0.4620
vn -0.8389 0.3208 -0.4397
vn -0.7881 0.3562 -0.5021
vn 0.5957 0.2636 0.7587
vn -0.3388 0.4755 -0.8119
vn -0.6001 -0.5124 -0.6143
vn 0.3244 -0.4987 0.8037
vn 0.2591 0.9494 -0.1775
vn -0.4070 -0.9104 -0.0745
vn -0.6959 -0.0647 0.7152
vn -0.8201 0.3288 0.4683
vn -0.9762 0.0747 0.2035
vn -0.7711 0.6181 0.1528
vn -0.7143 0.2604 0.6496
vn -0.5852 0.5009 0.6376
vn -0.7394 0.6503 0.1744
vn -0.9839 0.0713 0.1638
vn -0.8652 0.2056 0.4573
vn -0.6508 -0.0502 0.7576
vn -0.6651 0.4026 0.6289
vn -0.5389 0.4714 0.6981
usemtl None
s off
f 1//1 9//1 178//1 179//1
f 1//2 19//2 24//2
f 36//3 35//3 37//3
f 37//4 35//4 38//4
f 35//5 34//5 38//5
f 38//6 34//6 39//6
f 34//7 33//7 39//7
f 39//8 33//8 40//8
f 33//9 32//9 40//9
f 40//10 32//10 41//10
f 32//11 31//11 41//11
f 41//12 31//12 42//12
f 31//13 30//13 42//13
f 29//14 36//14 3//14
f 28//15 43//15 29//15
f 44//16 28//16 195//16 196//16
f 67//17 27//17 193//17 197//17
f 26//18 48//18 27//18
f 25//19 52//19 26//19
f 24//20 57//20 25//20
f 29//21 43//21 36//21
f 43//22 35//22 36//22
f 28//23 44//23 43//23
f 44//24 45//24 43//24
f 43//25 45//25 35//25
f 45//26 34//26 35//26
f 27//27 46//27 194//27 193//27
f 46//28 47//28 44//28
f 44//29 47//29 45//29
f 50//30 51//30 110//30 109//30
f 34//31 45//31 108//31 107//31
f 51//32 33//32 106//32 110//32
f 27//33 48//33 46//33
f 48//34 49//34 46//34
f 46//35 49//35 47//35
f 49//36 50//36 47//36
f 47//37 50//37 109//37 111//37
f 33//38 34//38 107//38 106//38
f 45//39 47//39 111//39 108//39
f 51//40 32//40 33//40
f 26//41 52//41 48//41
f 52//42 53//42 48//42
f 48//43 53//43 49//43
f 53//44 54//44 49//44
f 49//45 54//45 50//45
f 54//46 55//46 50//46
f 50//47 55//47 51//47
f 55//48 56//48 51//48
f 51//49 56//49 32//49
f 56//50 31//50 32//50
f 25//51 57//51 52//51
f 57//52 58//52 52//52
f 52//53 58//53 53//53
f 58//54 17//54 126//54 129//54
f 54//55 53//55 127//55 128//55
f 17//56 16//56 125//56 126//56
f 54//57 59//57 55//57
f 59//58 60//58 55//58
f 55//59 60//59 56//59
f 60//60 61//60 56//60
f 56//61 61//61 31//61
f 61//62 30//62 31//62
f 24//63 19//63 57//63
f 19//64 18//64 57//64
f 57//65 18//65 58//65
f 18//66 17//66 58//66
f 59//67 54//67 128//67 130//67
f 16//68 59//68 130//68 125//68
f 53//69 58//69 129//69 127//69
f 81//70 15//70 123//70 148//70
f 59//71 15//71 60//71
f 15//72 14//72 60//72
f 60//73 14//73 61//73
f 30//74 61//74 214//74 213//74
f 2//75 30//75 213//75 212//75
f 78//76 21//76 211//76 216//76
f 22//77 29//77 3//77
f 23//78 62//78 22//78
f 22//79 62//79 29//79
f 62//80 28//80 29//80
f 23//81 63//81 62//81
f 63//82 64//82 62//82
f 62//83 64//83 28//83
f 28//84 64//84 198//84 195//84
f 65//85 66//85 63//85
f 63//86 66//86 64//86
f 66//87 67//87 64//87
f 46//88 44//88 196//88 194//88
f 64//89 67//89 197//89 198//89
f 65//90 68//90 66//90
f 68//91 69//91 66//91
f 66//92 69//92 67//92
f 69//93 70//93 67//93
f 67//94 70//94 27//94
f 70//95 26//95 27//95
f 71//96 72//96 68//96
f 68//97 72//97 69//97
f 72//98 73//98 69//98
f 69//99 73//99 70//99
f 73//100 76//100 165//100 167//100
f 70//101 73//101 167//101 164//101
f 76//102 77//102 166//102 165//102
f 71//103 74//103 72//103
f 74//104 75//104 72//104
f 72//105 75//105 73//105
f 75//106 76//106 73//106
f 77//107 25//107 162//107 166//107
f 26//108 70//108 164//108 163//108
f 25//109 26//109 163//109 162//109
f 77//110 24//110 25//110
f 74//111 13//111 75//111
f 13//112 12//112 75//112
f 75//113 12//113 76//113
f 12//114 11//114 76//114
f 76//115 11//115 77//115
f 11//116 10//116 77//116
f 77//117 10//117 24//117
f 10//118 1//118 24//118
f 21//119 2//119 212//119 211//119
f 14//120 78//120 216//120 215//120
f 15//121 79//121 14//121
f 16//122 17//122 144//122 143//122
f 84//123 81//123 148//123 147//123
f 18//124 87//124 17//124
f 19//125 91//125 18//125
f 61//126 14//126 215//126 214//126
f 78//127 20//127 21//127
f 14//128 79//128 78//128
f 79//129 80//129 78//129
f 78//130 80//130 20//130
f 15//131 81//131 79//131
f 81//132 82//132 79//132
f 79//133 82//133 80//133
f 82//134 83//134 80//134
f 59//135 16//135 143//135 145//135
f 84//136 85//136 81//136
f 81//137 85//137 82//137
f 85//138 86//138 82//138
f 82//139 86//139 83//139
f 17//140 87//140 84//140
f 87//141 88//141 84//141
f 84//142 88//142 85//142
f 88//143 89//143 85//143
f 85//144 89//144 86//144
f 89//145 90//145 86//145
f 18//146 91//146 87//146
f 91//147 92//147 87//147
f 87//148 92//148 88//148
f 92//149 93//149 88//149
f 88//150 93//150 89//150
f 93//151 94//151 89//151
f 89//152 94//152 90//152
f 91//153 19//153 180//153 181//153
f 9//154 8//154 91//154
f 91//155 8//155 92//155
f 8//156 7//156 92//156
f 92//157 7//157 93//157
f 7//158 6//158 93//158
f 93//159 6//159 94//159
f 95//160 11//160 12//160
f 95//161 96//161 11//161
f 96//162 10//162 11//162
f 5//163 4//163 96//163
f 96//164 4//164 10//164
f 4//165 1//165 10//165
f 4//166 9//166 1//166
f 5//167 97//167 4//167
f 4//168 97//168 9//168
f 97//169 8//169 9//169
f 97//170 98//170 8//170
f 98//171 7//171 8//171
f 99//172 100//172 116//172 113//172
f 104//173 105//173 118//173 117//173
f 103//174 104//174 117//174 114//174
f 100//175 101//175 115//175 116//175
f 101//176 103//176 114//176 115//176
f 105//177 99//177 113//177 118//177
f 100//178 99//178 106//178 107//178
f 101//179 100//179 107//179 108//179
f 105//180 104//180 109//180 110//180
f 103//181 101//181 108//181 111//181
f 104//182 103//182 111//182 109//182
f 99//183 105//183 110//183 106//183
f 114//184 112//184 115//184
f 115//185 112//185 116//185
f 112//186 113//186 116//186
f 114//187 117//187 112//187
f 117//188 118//188 112//188
f 112//189 118//189 113//189
f 121//190 120//190 134//190 135//190
f 124//191 121//191 135//191 133//191
f 102//192 124//192 133//192 137//192
f 119//193 102//193 137//193 136//193
f 120//194 122//194 131//194 134//194
f 122//195 119//195 136//195 131//195
f 102//196 119//196 126//196 125//196
f 120//197 121//197 128//197 127//197
f 122//198 120//198 127//198 129//198
f 121//199 124//199 130//199 128//199
f 119//200 122//200 129//200 126//200
f 124//201 102//201 125//201 130//201
f 131//202 132//202 134//202
f 134//203 132//203 135//203
f 132//204 133//204 135//204
f 131//205 136//205 132//205
f 136//206 137//206 132//206
f 132//207 137//207 133//207
f 138//208 139//208 153//208 150//208
f 146//209 140//209 154//209 149//209
f 141//210 146//210 149//210 151//210
f 140//211 138//211 150//211 154//211
f 15//212 59//212 145//212 123//212
f 17//213 84//213 147//213 144//213
f 139//214 138//214 143//214 144//214
f 138//215 140//215 145//215 143//215
f 140//216 146//216 123//216 145//216
f 142//217 139//217 144//217 147//217
f 146//218 141//218 148//218 123//218
f 141//219 142//219 147//219 148//219
f 150//220 149//220 154//220
f 150//221 151//221 149//221
f 153//222 152//222 150//222
f 150//223 152//223 151//223
f 142//224 141//224 151//224 152//224
f 139//225 142//225 152//225 153//225
f 155//226 156//226 172//226 169//226
f 160//227 161//227 174//227 173//227
f 159//228 160//228 173//228 170//228
f 156//229 157//229 171//229 172//229
f 157//230 159//230 170//230 171//230
f 161//231 155//231 169//231 174//231
f 156//232 155//232 162//232 163//232
f 157//233 156//233 163//233 164//233
f 161//234 160//234 165//234 166//234
f 159//235 157//235 164//235 167//235
f 160//236 159//236 167//236 165//236
f 155//237 161//237 166//237 162//237
f 170//238 168//238 171//238
f 171//239 168//239 172//239
f 168//240 169//240 172//240
f 170//241 173//241 168//241
f 173//242 174//242 168//242
f 168//243 174//243 169//243
f 175//244 158//244 183//244 184//244
f 177//245 176//245 182//245 185//245
f 19//246 1//246 179//246 180//246
f 9//247 91//247 181//247 178//247
f 158//248 175//248 179//248 178//248
f 175//249 176//249 180//249 179//249
f 176//250 177//250 181//250 180//250
f 177//251 158//251 178//251 181//251
f 184//252 183//252 182//252
f 182//253 183//253 185//253
f 158//254 177//254 185//254 183//254
f 176//255 175//255 184//255 182//255
f 189//256 188//256 201//256 202//256
f 192//257 186//257 199//257 205//257
f 191//258 192//258 205//258 204//258
f 186//259 190//259 203//259 199//259
f 190//260 189//260 202//260 203//260
f 188//261 191//261 204//261 201//261
f 190//262 186//262 193//262 194//262
f 188//263 189//263 196//263 195//263
f 189//264 190//264 194//264 196//264
f 186//265 192//265 197//265 193//265
f 191//266 188//266 195//266 198//266
f 192//267 191//267 198//267 197//267
f 200//268 202//268 201//268
f 199//269 203//269 200//269
f 200//270 203//270 202//270
f 204//271 200//271 201//271
f 204//272 205//272 200//272
f 205//273 199//273 200//273
f 209//274 207//274 219//274 220//274
f 210//275 187//275 222//275 223//275
f 187//276 206//276 217//276 222//276
f 208//277 209//277 220//277 221//277
f 207//278 210//278 223//278 219//278
f 206//279 208//279 221//279 217//279
f 206//280 187//280 211//280 212//280
f 208//281 206//281 212//281 213//281
f 209//282 208//282 213//282 214//282
f 207//283 209//283 214//283 215//283
f 210//284 207//284 215//284 216//284
f 187//285 210//285 216//285 211//285
f 219//286 218//286 220//286
f 220//287 218//287 221//287
f 218//288 217//288 221//288
f 218//289 222//289 217//289
f 219//290 223//290 218//290
f 218//291 223//291 222//291
