# Blender v2.79 (sub 0) OBJ File: 'socket_right_geyser.blend'
# www.blender.org
mtllib socket_right_geyser.mtl
o Icosphere
v 3.395069 -2.098294 2.466633
v 3.600772 -2.225428 -2.616083
v 4.312346 2.156183 0.000000
v 3.836890 -2.382979 -2.087339
v 3.939099 -2.434528 -1.430599
v 4.074472 -2.518194 -0.739879
v 3.991126 -2.466683 0.000000
v 3.944324 -2.437757 0.716421
v 3.921454 -2.421751 1.413910
v 3.740662 -2.311886 2.037811
v 4.369009 1.678458 0.328850
v 4.630205 1.034511 0.614741
v 4.635348 0.612843 0.892244
v 4.462236 -0.000000 1.449846
v 4.145638 -1.219371 2.137490
v 3.727908 -1.678471 2.301966
v 3.851130 -1.733510 -2.377768
v 4.283010 -1.241613 -2.207554
v 4.435219 -0.629396 -1.850065
v 4.609447 0.000000 -1.497677
v 4.648844 0.626519 -1.112810
v 4.482776 1.740222 -0.325680
v 3.445793 -1.723478 2.895916
v 3.330342 -1.216978 3.304214
v 3.426325 -1.248700 -3.385132
v 3.451485 -1.733513 -2.927836
v 4.089266 2.237944 0.532094
v 4.027696 2.434518 1.157943
v 3.731217 2.518190 1.796325
v 3.228892 2.466684 2.345919
v 3.430521 2.602348 -2.492410
v 3.731218 2.518190 -1.796324
v 4.027696 2.434518 -1.157943
v 4.089266 2.237944 -0.532094
v 3.916375 2.583720 0.000000
v 3.637820 3.161997 -0.016483
v 3.413175 3.347649 -0.616984
v 3.758286 2.750986 -0.566545
v 3.597549 2.972541 -1.206216
v 3.422667 3.376220 0.613619
v 3.621835 2.977887 1.226598
v 4.380077 1.845824 -0.947570
v 4.323592 1.248331 -1.327340
v 4.011508 1.872497 -1.554081
v 4.311151 0.640016 -1.737230
v 4.176764 1.339431 -2.061702
v 3.772760 1.971832 -2.263524
v 4.326982 0.000359 -2.183408
v 4.103368 0.678916 -2.488271
v 3.764101 1.357450 -2.734762
v 3.318600 1.971836 -2.888627
v 3.965989 -0.624169 -2.427953
v 3.795810 0.000000 -2.757795
v 3.518348 0.657140 -3.033646
v 3.331871 1.375015 -3.430309
v 3.671392 -1.191422 -2.667396
v 3.534704 -0.624170 -3.021571
v 3.413679 0.000359 -3.440470
v 3.251501 1.339431 3.335222
v 3.419442 2.042596 2.982353
v 3.413677 0.000353 3.440472
v 3.518346 0.657132 3.033650
v 3.764099 1.357442 2.734767
v 3.792314 1.982985 2.275117
v 3.651460 -0.644202 3.121199
v 4.023073 0.008008 2.928130
v 4.103365 0.678905 2.488278
v 4.176763 1.339423 2.061709
v 4.011508 1.872492 1.554085
v 3.671390 -1.191427 2.667398
v 4.096816 -0.644204 2.508214
v 4.326979 0.000348 2.183414
v 4.577751 0.677875 1.826174
v 4.323593 1.248324 1.327346
v 4.380079 1.845820 0.947573
v 4.665330 1.044093 0.095450
v 4.728448 0.625004 -0.177160
v 4.726689 0.166163 0.659346
v 4.884632 0.178945 0.095610
v 4.631151 0.000000 -0.752364
v 4.508922 -0.640016 1.128548
v 4.782266 -0.678913 0.398821
v 4.782266 -0.678913 -0.398821
v 4.781955 -0.686500 -1.191905
v 4.278061 -1.248335 1.467470
v 4.590915 -1.339430 0.787061
v 4.652675 -1.357445 0.000000
v 4.278061 -1.248335 -1.467469
v 4.100534 -1.845833 1.807914
v 4.158849 -1.872500 1.100601
v 4.405327 -1.982989 0.388444
v 4.264449 -1.920046 -0.376182
v 4.418348 -1.971559 -1.157930
v 4.215075 -1.887706 -1.851432
v 3.373524 -2.750999 -1.750700
v 3.534681 -2.882416 -1.100599
v 3.624432 -2.955604 -0.376181
v 3.624432 -2.955603 0.376183
v 3.651103 -2.977890 1.136510
v 3.373526 -2.750995 1.750702
v 4.242812 2.578798 0.566848
v 4.211560 2.711342 0.978601
v 4.126494 2.812808 0.207004
v 3.951205 3.194439 0.195167
v 3.804179 3.329764 0.607964
v 3.937396 3.060098 1.021205
v 4.278157 2.467000 0.549008
v 4.226676 2.631362 1.072299
v 4.133598 2.756114 0.104107
v 3.900689 3.239629 0.090325
v 3.720793 3.418747 0.617173
v 3.887324 3.085689 1.129704
v 3.895718 2.851309 0.586609
v 3.917441 2.691904 0.199838
v 3.728343 2.939194 1.014038
v 3.595126 3.208861 0.600798
v 3.742152 3.073536 0.188000
v 4.002507 2.590438 0.971435
v 4.033759 2.457895 0.559681
v 4.636475 1.216966 0.715643
v 4.651215 0.626321 1.104246
v 4.687966 1.230044 0.000000
v 4.783982 -0.000359 0.776888
v 4.975859 0.007107 -0.004082
v 4.788689 0.644192 -0.378836
v 4.874720 0.807817 -0.972933
v 4.701102 0.650468 0.672347
v 4.741107 1.622931 -0.389205
v 4.678462 1.706065 -0.850981
v 4.620494 1.260627 -1.123705
v 4.895927 1.249440 -0.150191
v 4.969929 0.819640 -0.428141
v 4.847816 0.675603 0.689058
v 4.864499 -0.919672 -0.532489
v 4.909987 0.683983 -0.077036
v 4.846965 0.974775 0.492197
v 4.871353 0.981714 0.117526
v 4.909886 0.359503 0.524493
v 5.036953 0.373617 0.119848
v 4.848069 1.069213 0.544353
v 4.852789 0.682161 0.799074
v 4.880311 1.078009 0.067692
v 4.936632 0.272151 0.585296
v 5.081608 0.283884 0.067839
v 4.938246 0.693323 -0.182538
v 4.865177 0.694714 -1.041377
v 4.566627 1.265480 -1.238295
v 4.712742 1.716989 -0.318866
v 4.618475 1.813922 -0.889702
v 4.993542 0.710936 -0.367658
v 4.901088 1.248693 -0.019922
v 4.580184 0.725793 -0.904892
v 4.559288 1.154666 -0.608774
v 4.446570 1.540908 -0.321165
v 4.383925 1.624042 -0.782941
v 4.325958 1.178604 -1.055664
v 4.601391 1.167417 -0.082150
v 4.675393 0.737617 -0.360100
v 4.706370 0.667419 0.300116
v 4.763272 0.658848 -0.093747
v 4.700251 0.949640 0.475486
v 4.724638 0.956579 0.100815
v 4.763171 0.334368 0.507781
v 4.890239 0.348482 0.103137
v 4.881343 -0.934369 -1.087780
v 4.783362 -1.402575 -0.254038
v 4.576987 -0.244720 1.621902
v 4.501335 -1.320029 -1.278628
v 4.493151 -1.793589 -0.515645
v 4.632847 -1.835019 -1.064044
v 4.915639 -0.845191 -0.485280
v 4.915380 -0.851523 -1.147241
v 4.483434 -1.881124 -0.466384
v 4.611889 -1.924120 -1.118883
v 4.807474 -1.411540 -0.152396
v 4.494796 -1.320469 -1.377246
v 4.646235 -1.354349 -0.234410
v 4.496338 -1.312706 -0.768977
v 4.364207 -1.271803 -1.259000
v 4.727372 -0.871447 -0.512861
v 4.744215 -0.886143 -1.068153
v 4.356024 -1.745364 -0.496018
v 4.495719 -1.786793 -1.044417
v 4.376251 -1.035686 2.070329
v 4.341334 -0.663866 2.307708
v 4.498374 -0.243820 2.099184
v 4.615209 -0.657528 1.415401
v 4.457356 -1.052666 1.636053
v 4.269220 -0.662500 2.437027
v 4.463564 -0.118255 2.162773
v 4.310444 -1.148158 2.123995
v 4.577773 -0.118548 1.543364
v 4.422259 -1.172615 1.558245
v 4.617193 -0.658964 1.272067
v 4.336559 -0.207346 1.558553
v 4.314532 -0.612622 1.817951
v 4.135823 -0.998312 2.006980
v 4.100906 -0.626491 2.244359
v 4.257946 -0.206446 2.035835
v 4.374781 -0.620154 1.352052
v 4.216928 -1.015292 1.572704
vn 0.6791 -0.2708 0.6822
vn 0.7972 -0.4983 0.3409
vn 0.8026 -0.1260 -0.5831
vn 0.7190 0.6659 -0.1991
vn 0.8954 0.4278 -0.1236
vn 0.8589 0.4823 -0.1722
vn 0.8664 0.4973 -0.0455
vn 0.8402 0.5369 -0.0759
vn 0.8343 0.5442 0.0888
vn 0.7800 0.6255 0.0206
vn 0.7624 0.5846 -0.2774
vn -0.1228 0.8135 0.5685
vn 0.7334 -0.6246 0.2683
vn 0.3025 0.1063 0.9472
vn 0.7836 0.5484 0.2920
vn -0.1277 0.9249 -0.3581
vn 0.3381 0.1363 -0.9312
vn 0.6654 -0.5084 -0.5466
vn 0.7190 0.6659 0.1991
vn 0.8071 0.5317 -0.2567
vn 0.4796 -0.8699 0.1147
vn 0.8585 0.2282 -0.4593
vn 0.9238 -0.0427 -0.3805
vn 0.7655 0.1717 -0.6200
vn 0.5726 -0.2305 -0.7868
vn 0.7894 0.6133 -0.0262
vn 0.8413 0.5339 0.0849
vn 0.3114 -0.9496 -0.0365
vn 0.8348 0.2369 -0.4969
vn 0.8168 0.3165 -0.4824
vn 0.8914 0.2436 -0.3821
vn 0.8453 0.2866 -0.4509
vn 0.9777 0.1031 -0.1827
vn 0.9049 0.4050 -0.1307
vn 0.8524 0.4742 -0.2205
vn 0.9166 0.2978 -0.2668
vn 0.8738 0.3527 -0.3348
vn 0.8885 0.2772 -0.3658
vn 0.9471 0.1990 -0.2517
vn 0.9627 0.0629 -0.2631
vn 0.8318 0.2329 -0.5038
vn 0.8003 0.3577 -0.4811
vn 0.7407 0.4023 -0.5381
vn 0.7892 0.2202 -0.5734
vn 0.7602 -0.1970 -0.6191
vn 0.7252 -0.1566 -0.6705
vn 0.7327 -0.0630 -0.6776
vn 0.6821 -0.0188 -0.7310
vn 0.6786 0.0738 -0.7308
vn 0.8464 -0.0718 -0.5278
vn 0.7677 0.4400 -0.4659
vn 0.6020 0.0242 -0.7981
vn 0.7973 -0.1696 -0.5793
vn 0.8058 -0.0897 -0.5854
vn 0.8618 -0.1566 -0.4825
vn 0.8612 0.1613 -0.4820
vn 0.8082 -0.0458 -0.5872
vn 0.9259 -0.2326 -0.2976
vn 0.9454 0.0250 -0.3248
vn 0.8713 -0.1720 0.4597
vn 0.7604 0.0103 0.6494
vn 0.7504 0.1444 0.6450
vn 0.8594 0.2770 0.4298
vn 0.6453 0.7106 0.2803
vn 0.5723 0.5821 0.5776
vn 0.6383 -0.1395 0.7571
vn 0.6003 0.3498 0.7192
vn 0.6248 0.3744 0.6852
vn 0.6786 0.0738 0.7308
vn 0.8318 0.2329 0.5038
vn 0.8108 0.3224 0.4885
vn 0.8691 0.4547 0.1945
vn 0.9210 0.3128 0.2321
vn 0.8914 0.2436 0.3821
vn 0.8375 -0.3304 0.4353
vn 0.7356 -0.4164 0.5344
vn 0.7776 -0.2758 0.5650
vn 0.9165 -0.1381 0.3754
vn 0.9179 0.1348 0.3732
vn 0.8129 0.0062 0.5824
vn 0.7818 0.2746 0.5597
vn 0.8670 0.4852 0.1132
vn 0.9049 0.4050 0.1307
vn 0.8348 0.2369 0.4969
vn 0.8168 0.3165 0.4824
vn 0.8413 0.5339 -0.0849
vn 0.8904 -0.2025 0.4076
vn 0.6756 -0.3907 0.6252
vn 0.6886 -0.3507 0.6347
vn 0.6612 0.7403 0.1216
vn 0.4020 -0.9079 0.1187
vn 0.6325 -0.5461 -0.5493
vn 0.9498 -0.2591 0.1753
vn 0.9668 -0.2284 0.1147
vn 0.8918 0.4487 0.0587
vn 0.8556 0.2992 0.4223
vn 0.8771 0.1959 0.4386
vn 0.9009 0.4146 -0.1283
vn 0.8625 0.4844 -0.1465
vn 0.8884 0.3271 0.3222
vn 0.9517 0.2425 0.1883
vn 0.8364 0.5435 0.0701
vn 0.1348 -0.4822 -0.8657
vn 0.9017 -0.0342 0.4311
vn 0.7744 0.3281 -0.5409
vn 0.2839 -0.5023 0.8167
vn 0.6707 -0.3826 0.6355
vn 0.8610 0.4701 0.1940
vn 0.0437 0.4520 0.8909
vn -0.1549 0.9879 0.0078
vn 0.0304 0.5465 0.8369
vn 0.3097 -0.9508 0.0020
vn 0.0949 0.9839 0.1514
vn 0.4593 -0.3350 0.8227
vn 0.3493 -0.1371 -0.9269
vn 0.2669 0.4989 -0.8246
vn 0.9080 0.0206 -0.4185
vn 0.9743 -0.1325 -0.1824
vn 0.9986 -0.0449 -0.0291
vn 0.8921 -0.1491 0.4266
vn 0.9142 -0.1990 0.3531
vn 0.9627 -0.1335 0.2353
vn 0.9624 -0.2716 0.0000
vn 0.9082 -0.0156 -0.4182
vn 0.9764 0.2161 -0.0024
vn 0.9724 0.2317 -0.0283
vn 0.8852 0.0153 -0.4650
vn 0.3911 0.2990 0.8704
vn 0.8984 -0.1031 0.4269
vn 0.9335 -0.0629 0.3530
vn 0.9691 -0.2329 0.0814
vn 0.9822 -0.1876 0.0000
vn 0.4062 0.0821 -0.9101
vn 0.2647 -0.3356 -0.9041
vn 0.7784 0.6277 -0.0063
vn 0.7644 -0.4681 -0.4433
vn 0.9699 -0.2436 0.0043
vn 0.9647 -0.1737 0.1982
vn 0.9675 -0.2369 0.0887
vn 0.8089 -0.4050 0.4262
vn 0.8175 -0.4547 0.3535
vn 0.9431 -0.3224 0.0814
vn 0.8636 -0.4640 -0.1973
vn 0.7223 0.2427 0.6476
vn 0.3792 -0.6807 0.6268
vn 0.2164 -0.9705 0.1065
vn 0.9595 0.0693 -0.2729
vn 0.9948 -0.1014 0.0057
vn 0.6937 -0.4023 -0.5975
vn 0.7303 -0.2504 0.6356
vn 0.8196 -0.4745 0.3211
vn 0.9319 -0.3514 0.0901
vn 0.9251 -0.3776 0.0390
vn 0.7722 -0.5306 0.3496
vn 0.7268 -0.6827 0.0750
vn 0.8169 -0.5428 -0.1952
vn 0.9197 -0.3708 0.1294
vn 0.8912 -0.4060 0.2022
vn 0.7398 -0.6351 -0.2219
vn 0.7452 -0.6000 -0.2910
vn 0.8206 -0.5454 -0.1705
vn 0.7474 -0.2848 -0.6002
vn 0.8643 -0.2210 -0.4518
vn 0.5460 -0.8243 -0.1497
vn 0.6409 -0.7370 -0.2149
vn 0.7429 -0.6568 0.1294
vn 0.8250 -0.5599 0.0765
vn 0.8908 -0.4528 0.0396
vn 0.6217 -0.7206 0.3070
vn 0.5890 -0.7513 -0.2979
vn 0.6215 -0.7680 -0.1546
vn 0.8000 -0.6000 0.0000
vn 0.8629 -0.5034 -0.0450
vn 0.6509 -0.5678 0.5039
vn 0.4203 -0.6919 -0.5870
vn -0.4206 0.6924 0.5862
vn -0.4694 0.8295 -0.3026
vn 0.4440 -0.7926 0.4180
vn -0.0249 0.1019 -0.9945
vn -0.0412 0.0121 0.9991
vn 0.9667 0.2560 0.0042
vn 0.8869 0.4123 -0.2082
vn 0.7050 0.7092 0.0079
vn 0.7307 0.6557 0.1903
vn 0.7785 0.5592 0.2850
vn 0.9444 0.3120 -0.1034
vn 0.7579 0.6306 0.1671
vn 0.7652 0.6408 0.0625
vn 0.9037 0.4114 -0.1188
vn 0.7835 0.5933 0.1848
vn 0.9422 0.3331 -0.0357
vn 0.9383 0.3351 -0.0854
vn 0.9981 -0.0190 -0.0587
vn 0.9945 -0.0790 0.0683
vn 0.8851 0.4010 0.2363
vn 0.1788 0.5424 0.8209
vn 0.9630 0.2516 -0.0969
vn 0.8792 0.4167 0.2308
vn 0.2193 -0.9546 -0.2016
vn -0.2628 0.9645 0.0250
vn -0.3215 0.4746 -0.8194
vn 0.1860 -0.5397 -0.8210
vn 0.1104 0.3692 0.9228
vn -0.1668 0.9858 -0.0180
vn 0.0212 0.4649 -0.8851
vn 0.3275 -0.5240 0.7862
vn -0.0395 -0.5502 -0.8341
vn 0.1697 -0.9855 -0.0072
vn -0.0016 -0.5472 0.8370
vn -0.1794 0.4736 0.8623
vn 0.9653 -0.0119 0.2610
vn 0.9995 -0.0117 -0.0301
vn 0.9964 -0.0534 0.0653
vn 0.8876 0.3714 0.2723
vn 0.9739 -0.0099 0.2266
vn 0.9702 0.2317 -0.0706
vn 0.8784 0.4423 0.1809
vn 0.8359 0.2940 -0.4635
vn 0.9102 0.4088 -0.0670
vn 0.8521 0.2065 -0.4810
vn 0.9810 0.0687 -0.1816
vn 0.9362 0.3475 -0.0534
vn 0.9805 0.1928 -0.0373
vn 0.9427 0.3265 -0.0691
vn 0.8431 0.3327 -0.4224
vn 0.8784 0.1612 -0.4500
vn 0.9383 0.3357 -0.0831
vn 0.9717 0.2210 -0.0830
vn 0.9706 0.1669 -0.1733
vn 0.9998 0.0125 0.0147
vn 0.9977 -0.0185 0.0646
vn 0.9892 0.0355 0.1421
vn 0.9831 0.1815 0.0222
vn 0.8954 0.3353 0.2929
vn 0.8902 0.4397 0.1190
vn 0.0621 0.5227 -0.8502
vn 0.3335 0.9427 0.0137
vn -0.0207 -0.4269 0.9040
vn 0.2740 0.4287 0.8609
vn -0.3298 -0.9439 0.0150
vn -0.2781 -0.4443 -0.8516
vn 0.8799 -0.4748 0.0202
vn 0.9585 -0.1736 0.2262
vn 0.8916 -0.3371 -0.3024
vn 0.7615 -0.6195 -0.1905
vn 0.8586 -0.3908 -0.3318
vn 0.9644 0.1133 -0.2389
vn 0.9077 -0.3134 -0.2789
vn 0.8757 -0.4813 0.0393
vn 0.7488 -0.6126 -0.2530
vn 0.8509 -0.4485 -0.2735
vn 0.9555 -0.1492 0.2547
vn 0.9586 0.1420 -0.2466
vn 0.2921 0.5340 -0.7934
vn 0.1560 0.9877 -0.0095
vn -0.1397 0.5247 0.8397
vn 0.1517 -0.4844 -0.8616
vn -0.1478 -0.9888 -0.0225
vn -0.2923 -0.4494 0.8442
vn 0.8572 -0.0560 0.5120
vn 0.8396 -0.2386 0.4879
vn 0.9749 0.1419 0.1713
vn 0.8934 -0.4075 0.1892
vn 0.9973 0.0585 0.0453
vn 0.9396 -0.3393 0.0456
vn 0.8795 -0.1947 0.4343
vn 0.8898 -0.1132 0.4421
vn 0.9855 0.0503 0.1622
vn 0.9914 0.0279 0.1278
vn 0.9231 -0.3368 0.1856
vn 0.9435 -0.3060 0.1270
usemtl None
s off
f 1//1 10//1 16//1
f 1//2 16//2 23//2
f 2//3 26//3 17//3
f 3//4 34//4 35//4
f 35//5 38//5 36//5
f 36//6 38//6 37//6
f 38//7 39//7 37//7
f 35//8 34//8 38//8
f 34//9 33//9 38//9
f 38//10 33//10 39//10
f 33//11 32//11 39//11
f 40//12 41//12 112//12 111//12
f 28//13 27//13 107//13 108//13
f 41//14 28//14 108//14 112//14
f 29//15 28//15 41//15
f 36//16 40//16 111//16 110//16
f 35//17 36//17 110//17 109//17
f 27//18 35//18 109//18 107//18
f 27//19 3//19 35//19
f 22//20 34//20 3//20
f 78//21 79//21 144//21 143//21
f 20//22 45//22 21//22
f 19//23 48//23 20//23
f 18//24 52//24 19//24
f 17//25 56//25 18//25
f 22//26 42//26 34//26
f 42//27 33//27 34//27
f 125//28 21//28 146//28 150//28
f 43//29 44//29 42//29
f 42//30 44//30 33//30
f 44//31 32//31 33//31
f 21//32 45//32 43//32
f 45//33 46//33 43//33
f 43//34 46//34 44//34
f 46//35 47//35 44//35
f 44//36 47//36 32//36
f 47//37 31//37 32//37
f 20//38 48//38 45//38
f 48//39 49//39 45//39
f 45//40 49//40 46//40
f 49//41 50//41 46//41
f 46//42 50//42 47//42
f 50//43 51//43 47//43
f 47//44 51//44 31//44
f 19//45 52//45 48//45
f 52//46 53//46 48//46
f 48//47 53//47 49//47
f 53//48 54//48 49//48
f 49//49 54//49 50//49
f 54//50 55//50 50//50
f 50//51 55//51 51//51
f 18//52 56//52 52//52
f 56//53 57//53 52//53
f 52//54 57//54 53//54
f 57//55 58//55 53//55
f 53//56 58//56 54//56
f 17//57 26//57 56//57
f 26//58 25//58 56//58
f 56//59 25//59 57//59
f 23//60 70//60 24//60
f 62//61 63//61 59//61
f 59//62 63//62 60//62
f 63//63 64//63 60//63
f 60//64 64//64 30//64
f 64//65 29//65 30//65
f 65//66 66//66 61//66
f 61//67 66//67 62//67
f 66//68 67//68 62//68
f 62//69 67//69 63//69
f 67//70 68//70 63//70
f 63//71 68//71 64//71
f 68//72 69//72 64//72
f 64//73 69//73 29//73
f 69//74 28//74 29//74
f 24//75 70//75 65//75
f 70//76 71//76 65//76
f 65//77 71//77 66//77
f 71//78 72//78 66//78
f 66//79 72//79 67//79
f 72//80 73//80 67//80
f 67//81 73//81 68//81
f 73//82 74//82 68//82
f 68//83 74//83 69//83
f 74//84 75//84 69//84
f 69//85 75//85 28//85
f 75//86 27//86 28//86
f 23//87 16//87 70//87
f 16//88 15//88 70//88
f 70//89 15//89 71//89
f 14//90 72//90 190//90 192//90
f 15//91 85//91 193//91 191//91
f 85//92 81//92 194//92 193//92
f 72//93 14//93 73//93
f 14//94 121//94 73//94
f 73//95 121//95 74//95
f 121//96 120//96 74//96
f 74//97 120//97 75//97
f 120//98 11//98 75//98
f 75//99 11//99 27//99
f 11//100 3//100 27//100
f 11//101 22//101 3//101
f 120//102 122//102 11//102
f 79//103 77//103 145//103 144//103
f 14//104 123//104 121//104
f 81//105 14//105 192//105 194//105
f 71//106 15//106 191//106 189//106
f 16//107 89//107 15//107
f 11//108 122//108 22//108
f 122//109 76//109 142//109 151//109
f 76//110 12//110 140//110 142//110
f 22//111 122//111 151//111 148//111
f 77//112 125//112 150//112 145//112
f 42//113 22//113 148//113 149//113
f 13//114 78//114 143//114 141//114
f 21//115 43//115 147//115 146//115
f 43//116 42//116 149//116 147//116
f 124//117 80//117 125//117
f 125//118 80//118 21//118
f 80//119 20//119 21//119
f 14//120 81//120 123//120
f 81//121 82//121 123//121
f 123//122 82//122 124//122
f 82//123 83//123 124//123
f 124//124 83//124 80//124
f 83//125 84//125 80//125
f 80//126 84//126 20//126
f 84//127 19//127 20//127
f 72//128 71//128 189//128 190//128
f 85//129 86//129 81//129
f 81//130 86//130 82//130
f 86//131 87//131 82//131
f 82//132 87//132 83//132
f 88//133 84//133 172//133 176//133
f 93//134 88//134 176//134 174//134
f 84//135 83//135 171//135 172//135
f 84//136 88//136 19//136
f 88//137 18//137 19//137
f 15//138 89//138 85//138
f 89//139 90//139 85//139
f 85//140 90//140 86//140
f 90//141 91//141 86//141
f 86//142 91//142 87//142
f 91//143 92//143 87//143
f 83//144 87//144 175//144 171//144
f 87//145 92//145 173//145 175//145
f 92//146 93//146 174//146 173//146
f 93//147 94//147 88//147
f 88//148 94//148 18//148
f 94//149 17//149 18//149
f 16//150 10//150 89//150
f 10//151 9//151 89//151
f 89//152 9//152 90//152
f 9//153 8//153 90//153
f 90//154 8//154 91//154
f 8//155 7//155 91//155
f 91//156 7//156 92//156
f 7//157 6//157 92//157
f 92//158 6//158 93//158
f 6//159 5//159 93//159
f 93//160 5//160 94//160
f 5//161 4//161 94//161
f 94//162 4//162 17//162
f 4//163 2//163 17//163
f 5//164 95//164 4//164
f 6//165 96//165 5//165
f 7//166 97//166 6//166
f 8//167 98//167 7//167
f 9//168 99//168 8//168
f 10//169 100//169 9//169
f 5//170 96//170 95//170
f 6//171 97//171 96//171
f 7//172 98//172 97//172
f 8//173 99//173 98//173
f 9//174 100//174 99//174
f 105//175 106//175 115//175 116//175
f 101//176 103//176 114//176 119//176
f 102//177 101//177 119//177 118//177
f 104//178 105//178 116//178 117//178
f 106//179 102//179 118//179 115//179
f 103//180 104//180 117//180 114//180
f 101//181 102//181 108//181 107//181
f 104//182 103//182 109//182 110//182
f 105//183 104//183 110//183 111//183
f 106//184 105//184 111//184 112//184
f 102//185 106//185 112//185 108//185
f 103//186 101//186 107//186 109//186
f 115//187 113//187 116//187
f 116//188 113//188 117//188
f 113//189 114//189 117//189
f 115//190 118//190 113//190
f 118//191 119//191 113//191
f 113//192 119//192 114//192
f 13//193 12//193 120//193 121//193
f 12//194 76//194 122//194 120//194
f 79//195 78//195 123//195 124//195
f 12//196 13//196 141//196 140//196
f 78//197 13//197 121//197 123//197
f 77//198 79//198 124//198 125//198
f 129//199 128//199 154//199 155//199
f 132//200 126//200 152//200 158//200
f 131//201 132//201 158//201 157//201
f 136//202 133//202 127//202 161//202
f 126//203 130//203 156//203 152//203
f 138//204 139//204 164//204 163//204
f 133//205 138//205 163//205 127//205
f 130//206 129//206 155//206 156//206
f 128//207 131//207 157//207 154//207
f 137//208 136//208 161//208 162//208
f 135//209 137//209 162//209 160//209
f 139//210 135//210 160//210 164//210
f 142//211 145//211 150//211 151//211
f 133//212 136//212 140//212 141//212
f 136//213 137//213 142//213 140//213
f 139//214 138//214 143//214 144//214
f 137//215 135//215 145//215 142//215
f 138//216 133//216 141//216 143//216
f 135//217 139//217 144//217 145//217
f 130//218 126//218 146//218 147//218
f 128//219 129//219 149//219 148//219
f 129//220 130//220 147//220 149//220
f 126//221 132//221 150//221 146//221
f 131//222 128//222 148//222 151//222
f 132//223 131//223 151//223 150//223
f 153//224 155//224 154//224
f 152//225 156//225 153//225
f 153//226 156//226 155//226
f 157//227 153//227 154//227
f 157//228 158//228 153//228
f 158//229 152//229 153//229
f 127//230 159//230 161//230
f 161//231 159//231 162//231
f 159//232 160//232 162//232
f 127//233 163//233 159//233
f 163//234 164//234 159//234
f 159//235 164//235 160//235
f 166//236 169//236 182//236 177//236
f 169//237 170//237 183//237 182//237
f 168//238 165//238 181//238 179//238
f 170//239 168//239 179//239 183//239
f 165//240 134//240 180//240 181//240
f 134//241 166//241 177//241 180//241
f 134//242 165//242 172//242 171//242
f 170//243 169//243 173//243 174//243
f 166//244 134//244 171//244 175//244
f 165//245 168//245 176//245 172//245
f 169//246 166//246 175//246 173//246
f 168//247 170//247 174//247 176//247
f 177//248 178//248 180//248
f 180//249 178//249 181//249
f 178//250 179//250 181//250
f 177//251 182//251 178//251
f 182//252 183//252 178//252
f 178//253 183//253 179//253
f 185//254 184//254 197//254 198//254
f 184//255 188//255 201//255 197//255
f 188//256 187//256 200//256 201//256
f 186//257 185//257 198//257 199//257
f 167//258 186//258 199//258 195//258
f 187//259 167//259 195//259 200//259
f 185//260 186//260 190//260 189//260
f 184//261 185//261 189//261 191//261
f 186//262 167//262 192//262 190//262
f 188//263 184//263 191//263 193//263
f 167//264 187//264 194//264 192//264
f 187//265 188//265 193//265 194//265
f 197//266 196//266 198//266
f 198//267 196//267 199//267
f 196//268 195//268 199//268
f 196//269 200//269 195//269
f 197//270 201//270 196//270
f 196//271 201//271 200//271
